G04 #@! TF.FileFunction,Soldermask,Bot*
%FSLAX46Y46*%
G04 Gerber Fmt 4.6, Leading zero omitted, Abs format (unit mm)*
G04 Created by KiCad (PCBNEW 4.0.6) date 04/22/17 16:33:41*
%MOMM*%
%LPD*%
G01*
G04 APERTURE LIST*
%ADD10C,0.100000*%
%ADD11C,2.700000*%
%ADD12R,2.100000X2.100000*%
%ADD13O,2.100000X2.100000*%
%ADD14C,3.600000*%
%ADD15O,1.350000X1.650000*%
%ADD16O,1.950000X1.400000*%
%ADD17C,2.400000*%
%ADD18R,3.900000X3.900000*%
%ADD19C,2.800000*%
%ADD20R,2.800000X2.800000*%
%ADD21R,2.000000X2.000000*%
%ADD22C,2.000000*%
G04 APERTURE END LIST*
D10*
D11*
X131541000Y-108122500D03*
X137541000Y-122872500D03*
X131541000Y-120322500D03*
X143541000Y-120322500D03*
X143541000Y-108122500D03*
D12*
X126047500Y-83756500D03*
D13*
X126047500Y-81216500D03*
X126047500Y-78676500D03*
X126047500Y-76136500D03*
X126047500Y-73596500D03*
X126047500Y-71056500D03*
X126047500Y-68516500D03*
D14*
X127269000Y-61031000D03*
X185325000Y-61031000D03*
X185325000Y-129031000D03*
X127325000Y-129031000D03*
D12*
X126047500Y-97599500D03*
D13*
X126047500Y-95059500D03*
X126047500Y-92519500D03*
X126047500Y-89979500D03*
X126047500Y-87439500D03*
D12*
X168783000Y-82613500D03*
D13*
X168783000Y-80073500D03*
X171323000Y-82613500D03*
X171323000Y-80073500D03*
X173863000Y-82613500D03*
X173863000Y-80073500D03*
D15*
X184641500Y-89939500D03*
X184641500Y-84939500D03*
D16*
X187341500Y-90939500D03*
X187341500Y-83939500D03*
D11*
X150241000Y-108132500D03*
X156241000Y-122882500D03*
X150241000Y-120332500D03*
X162241000Y-120332500D03*
X162241000Y-108132500D03*
X169037000Y-108140500D03*
X175037000Y-122890500D03*
X169037000Y-120340500D03*
X181037000Y-120340500D03*
X181037000Y-108140500D03*
D17*
X183896000Y-80137000D03*
X179396000Y-80137000D03*
X183896000Y-73637000D03*
X179396000Y-73637000D03*
X180522000Y-66636900D03*
X176022000Y-66636900D03*
X180522000Y-60136900D03*
X176022000Y-60136900D03*
X172521000Y-66636900D03*
X168021000Y-66636900D03*
X172521000Y-60136900D03*
X168021000Y-60136900D03*
X164647000Y-66636900D03*
X160147000Y-66636900D03*
X164647000Y-60136900D03*
X160147000Y-60136900D03*
X156773000Y-66636900D03*
X152273000Y-66636900D03*
X156773000Y-60136900D03*
X152273000Y-60136900D03*
D18*
X136144000Y-67658500D03*
X136144000Y-61658500D03*
X131444000Y-64658500D03*
D19*
X148717000Y-129438400D03*
D20*
X145217000Y-129438400D03*
D19*
X167355400Y-129438400D03*
D20*
X163855400Y-129438400D03*
D21*
X138557000Y-71795000D03*
D22*
X138557000Y-74295000D03*
M02*
