M48
;DRILL file {KiCad 4.0.6} date 04/22/17 16:33:49
;FORMAT={-:-/ absolute / inch / decimal}
FMAT,2
INCH,TZ
T1C0.016
T2C0.020
T3C0.022
T4C0.031
T5C0.039
T6C0.043
T7C0.047
T8C0.053
T9C0.126
%
G90
G05
M72
T1
X4.901Y-2.746
X4.904Y-2.662
X4.923Y-3.957
X4.925Y-4.365
X4.947Y-4.85
X5.015Y-2.748
X5.033Y-3.144
X5.06Y-2.849
X5.134Y-2.953
X5.2Y-3.053
X5.27Y-3.144
X5.273Y-2.884
X5.273Y-4.845
X5.278Y-3.29
X5.278Y-3.615
X5.432Y-3.356
X5.45Y-3.059
X5.459Y-3.615
X5.555Y-4.843
X5.56Y-5.165
X5.565Y-4.57
X5.6Y-4.095
X5.63Y-2.952
X5.666Y-3.496
X5.674Y-3.258
X5.71Y-3.006
X5.769Y-3.269
X5.769Y-3.553
X5.775Y-4.255
X5.786Y-2.544
X5.788Y-3.629
X5.789Y-2.774
X5.855Y-3.232
X5.88Y-2.993
X5.965Y-2.762
X5.985Y-5.165
X6.011Y-4.847
X6.0325Y-3.31
X6.0325Y-3.5525
X6.147Y-3.059
X6.178Y-3.234
X6.214Y-3.11
X6.233Y-2.724
X6.28Y-3.5525
X6.288Y-4.839
X6.2975Y-4.255
X6.2975Y-4.575
X6.309Y-5.165
X6.31Y-2.8975
X6.3125Y-3.755
X6.36Y-3.192
X6.3675Y-2.9775
X6.478Y-3.56
X6.542Y-2.723
X6.558Y-3.082
X6.61Y-3.5425
X6.65Y-3.8275
X6.7225Y-3.4
X6.742Y-3.067
X6.759Y-4.843
X6.817Y-5.171
X6.8375Y-3.5125
X6.851Y-2.723
X6.95Y-3.4075
X6.98Y-2.895
X6.9825Y-2.9775
X7.0025Y-3.6225
X7.0175Y-3.4075
X7.0175Y-3.51
X7.0275Y-3.8325
X7.042Y-4.839
X7.122Y-5.159
X7.1225Y-3.7125
X7.1325Y-4.1025
X7.27Y-4.856
X7.3525Y-4.52
T4
X5.455Y-2.8266
X5.455Y-2.925
T5
X4.9625Y-2.6975
X4.9625Y-2.7975
X4.9625Y-2.8975
X4.9625Y-2.9975
X4.9625Y-3.0975
X4.9625Y-3.1975
X4.9625Y-3.2975
X4.9625Y-3.4425
X4.9625Y-3.5425
X4.9625Y-3.6425
X4.9625Y-3.7425
X4.9625Y-3.8425
X6.645Y-3.1525
X6.645Y-3.2525
X6.745Y-3.1525
X6.745Y-3.2525
X6.845Y-3.1525
X6.845Y-3.2525
T6
X5.995Y-2.3676
X5.995Y-2.6235
X6.1722Y-2.3676
X6.1722Y-2.6235
X6.305Y-2.3676
X6.305Y-2.6235
X6.4822Y-2.3676
X6.4822Y-2.6235
X6.615Y-2.3676
X6.615Y-2.6235
X6.7922Y-2.3676
X6.7922Y-2.6235
X6.93Y-2.3676
X6.93Y-2.6235
X7.0628Y-2.8991
X7.0628Y-3.155
X7.1072Y-2.3676
X7.1072Y-2.6235
X7.24Y-2.8991
X7.24Y-3.155
T7
X5.7172Y-5.096
X5.855Y-5.096
X6.451Y-5.096
X6.5888Y-5.096
T8
X5.1788Y-4.2568
X5.1788Y-4.7371
X5.415Y-4.8375
X5.6512Y-4.2568
X5.6512Y-4.7371
X5.915Y-4.2572
X5.915Y-4.7375
X6.1512Y-4.8379
X6.3874Y-4.2572
X6.3874Y-4.7375
X6.655Y-4.2575
X6.655Y-4.7378
X6.8912Y-4.8382
X7.1274Y-4.2575
X7.1274Y-4.7378
T9
X5.0106Y-2.4028
X5.0128Y-5.08
X7.2963Y-2.4028
X7.2963Y-5.08
T2
X7.3884Y-3.3047G85X7.3629Y-3.3047
G05
X7.3884Y-3.5803G85X7.3629Y-3.5803
G05
T3
X7.2694Y-3.35G85X7.2694Y-3.3382
G05
X7.2694Y-3.5468G85X7.2694Y-3.535
G05
T5
X5.175Y-2.5062G85X5.175Y-2.585
G05
X5.3994Y-2.4275G85X5.3206Y-2.4275
G05
X5.3994Y-2.6637G85X5.3206Y-2.6637
G05
T0
M30
