G04 #@! TF.FileFunction,Legend,Top*
%FSLAX46Y46*%
G04 Gerber Fmt 4.6, Leading zero omitted, Abs format (unit mm)*
G04 Created by KiCad (PCBNEW 4.0.6) date 04/22/17 16:33:41*
%MOMM*%
%LPD*%
G01*
G04 APERTURE LIST*
%ADD10C,0.100000*%
%ADD11C,0.250000*%
%ADD12C,0.300000*%
%ADD13C,0.150000*%
%ADD14C,0.120000*%
%ADD15C,0.125000*%
G04 APERTURE END LIST*
D10*
D11*
X154036924Y-69118171D02*
X154179781Y-69165790D01*
X154227400Y-69213410D01*
X154275019Y-69308648D01*
X154275019Y-69451505D01*
X154227400Y-69546743D01*
X154179781Y-69594362D01*
X154084543Y-69641981D01*
X153703590Y-69641981D01*
X153703590Y-68641981D01*
X154036924Y-68641981D01*
X154132162Y-68689600D01*
X154179781Y-68737219D01*
X154227400Y-68832457D01*
X154227400Y-68927695D01*
X154179781Y-69022933D01*
X154132162Y-69070552D01*
X154036924Y-69118171D01*
X153703590Y-69118171D01*
X154560733Y-68641981D02*
X155132162Y-68641981D01*
X154846447Y-69641981D02*
X154846447Y-68641981D01*
X155465495Y-69641981D02*
X155465495Y-68641981D01*
X156036924Y-69641981D01*
X156036924Y-68641981D01*
X156275019Y-69737219D02*
X157036924Y-69737219D01*
X157703591Y-68975314D02*
X157703591Y-69641981D01*
X157465495Y-68594362D02*
X157227400Y-69308648D01*
X157846448Y-69308648D01*
X161936324Y-69168971D02*
X162079181Y-69216590D01*
X162126800Y-69264210D01*
X162174419Y-69359448D01*
X162174419Y-69502305D01*
X162126800Y-69597543D01*
X162079181Y-69645162D01*
X161983943Y-69692781D01*
X161602990Y-69692781D01*
X161602990Y-68692781D01*
X161936324Y-68692781D01*
X162031562Y-68740400D01*
X162079181Y-68788019D01*
X162126800Y-68883257D01*
X162126800Y-68978495D01*
X162079181Y-69073733D01*
X162031562Y-69121352D01*
X161936324Y-69168971D01*
X161602990Y-69168971D01*
X162460133Y-68692781D02*
X163031562Y-68692781D01*
X162745847Y-69692781D02*
X162745847Y-68692781D01*
X163364895Y-69692781D02*
X163364895Y-68692781D01*
X163936324Y-69692781D01*
X163936324Y-68692781D01*
X164174419Y-69788019D02*
X164936324Y-69788019D01*
X165079181Y-68692781D02*
X165698229Y-68692781D01*
X165364895Y-69073733D01*
X165507753Y-69073733D01*
X165602991Y-69121352D01*
X165650610Y-69168971D01*
X165698229Y-69264210D01*
X165698229Y-69502305D01*
X165650610Y-69597543D01*
X165602991Y-69645162D01*
X165507753Y-69692781D01*
X165222038Y-69692781D01*
X165126800Y-69645162D01*
X165079181Y-69597543D01*
X169810324Y-69118171D02*
X169953181Y-69165790D01*
X170000800Y-69213410D01*
X170048419Y-69308648D01*
X170048419Y-69451505D01*
X170000800Y-69546743D01*
X169953181Y-69594362D01*
X169857943Y-69641981D01*
X169476990Y-69641981D01*
X169476990Y-68641981D01*
X169810324Y-68641981D01*
X169905562Y-68689600D01*
X169953181Y-68737219D01*
X170000800Y-68832457D01*
X170000800Y-68927695D01*
X169953181Y-69022933D01*
X169905562Y-69070552D01*
X169810324Y-69118171D01*
X169476990Y-69118171D01*
X170334133Y-68641981D02*
X170905562Y-68641981D01*
X170619847Y-69641981D02*
X170619847Y-68641981D01*
X171238895Y-69641981D02*
X171238895Y-68641981D01*
X171810324Y-69641981D01*
X171810324Y-68641981D01*
X172048419Y-69737219D02*
X172810324Y-69737219D01*
X173000800Y-68737219D02*
X173048419Y-68689600D01*
X173143657Y-68641981D01*
X173381753Y-68641981D01*
X173476991Y-68689600D01*
X173524610Y-68737219D01*
X173572229Y-68832457D01*
X173572229Y-68927695D01*
X173524610Y-69070552D01*
X172953181Y-69641981D01*
X173572229Y-69641981D01*
X178116124Y-69219771D02*
X178258981Y-69267390D01*
X178306600Y-69315010D01*
X178354219Y-69410248D01*
X178354219Y-69553105D01*
X178306600Y-69648343D01*
X178258981Y-69695962D01*
X178163743Y-69743581D01*
X177782790Y-69743581D01*
X177782790Y-68743581D01*
X178116124Y-68743581D01*
X178211362Y-68791200D01*
X178258981Y-68838819D01*
X178306600Y-68934057D01*
X178306600Y-69029295D01*
X178258981Y-69124533D01*
X178211362Y-69172152D01*
X178116124Y-69219771D01*
X177782790Y-69219771D01*
X178639933Y-68743581D02*
X179211362Y-68743581D01*
X178925647Y-69743581D02*
X178925647Y-68743581D01*
X179544695Y-69743581D02*
X179544695Y-68743581D01*
X180116124Y-69743581D01*
X180116124Y-68743581D01*
X180354219Y-69838819D02*
X181116124Y-69838819D01*
X181878029Y-69743581D02*
X181306600Y-69743581D01*
X181592314Y-69743581D02*
X181592314Y-68743581D01*
X181497076Y-68886438D01*
X181401838Y-68981676D01*
X181306600Y-69029295D01*
X184285000Y-119530142D02*
X184237381Y-119625380D01*
X184237381Y-119768237D01*
X184285000Y-119911095D01*
X184380238Y-120006333D01*
X184475476Y-120053952D01*
X184665952Y-120101571D01*
X184808810Y-120101571D01*
X184999286Y-120053952D01*
X185094524Y-120006333D01*
X185189762Y-119911095D01*
X185237381Y-119768237D01*
X185237381Y-119672999D01*
X185189762Y-119530142D01*
X185142143Y-119482523D01*
X184808810Y-119482523D01*
X184808810Y-119672999D01*
X185237381Y-118577761D02*
X185237381Y-119053952D01*
X184237381Y-119053952D01*
X184951667Y-118292047D02*
X184951667Y-117815856D01*
X185237381Y-118387285D02*
X184237381Y-118053952D01*
X185237381Y-117720618D01*
X184237381Y-117482523D02*
X184237381Y-116815856D01*
X185237381Y-117482523D01*
X185237381Y-116815856D01*
X184713571Y-116434904D02*
X184713571Y-116101570D01*
X185237381Y-115958713D02*
X185237381Y-116434904D01*
X184237381Y-116434904D01*
X184237381Y-115958713D01*
X185237381Y-114958713D02*
X184761190Y-115292047D01*
X185237381Y-115530142D02*
X184237381Y-115530142D01*
X184237381Y-115149189D01*
X184285000Y-115053951D01*
X184332619Y-115006332D01*
X184427857Y-114958713D01*
X184570714Y-114958713D01*
X184665952Y-115006332D01*
X184713571Y-115053951D01*
X184761190Y-115149189D01*
X184761190Y-115530142D01*
X185237381Y-114530142D02*
X184237381Y-114530142D01*
X185237381Y-114053952D02*
X184237381Y-114053952D01*
X185237381Y-113482523D01*
X184237381Y-113482523D01*
X185142143Y-113006333D02*
X185189762Y-112958714D01*
X185237381Y-113006333D01*
X185189762Y-113053952D01*
X185142143Y-113006333D01*
X185237381Y-113006333D01*
X185189762Y-112577762D02*
X185237381Y-112434905D01*
X185237381Y-112196809D01*
X185189762Y-112101571D01*
X185142143Y-112053952D01*
X185046905Y-112006333D01*
X184951667Y-112006333D01*
X184856429Y-112053952D01*
X184808810Y-112101571D01*
X184761190Y-112196809D01*
X184713571Y-112387286D01*
X184665952Y-112482524D01*
X184618333Y-112530143D01*
X184523095Y-112577762D01*
X184427857Y-112577762D01*
X184332619Y-112530143D01*
X184285000Y-112482524D01*
X184237381Y-112387286D01*
X184237381Y-112149190D01*
X184285000Y-112006333D01*
X185237381Y-111577762D02*
X184237381Y-111577762D01*
X184237381Y-111196809D01*
X184285000Y-111101571D01*
X184332619Y-111053952D01*
X184427857Y-111006333D01*
X184570714Y-111006333D01*
X184665952Y-111053952D01*
X184713571Y-111101571D01*
X184761190Y-111196809D01*
X184761190Y-111577762D01*
X184951667Y-110625381D02*
X184951667Y-110149190D01*
X185237381Y-110720619D02*
X184237381Y-110387286D01*
X185237381Y-110053952D01*
X185142143Y-109149190D02*
X185189762Y-109196809D01*
X185237381Y-109339666D01*
X185237381Y-109434904D01*
X185189762Y-109577762D01*
X185094524Y-109673000D01*
X184999286Y-109720619D01*
X184808810Y-109768238D01*
X184665952Y-109768238D01*
X184475476Y-109720619D01*
X184380238Y-109673000D01*
X184285000Y-109577762D01*
X184237381Y-109434904D01*
X184237381Y-109339666D01*
X184285000Y-109196809D01*
X184332619Y-109149190D01*
X184713571Y-108720619D02*
X184713571Y-108387285D01*
X185237381Y-108244428D02*
X185237381Y-108720619D01*
X184237381Y-108720619D01*
X184237381Y-108244428D01*
D12*
X175744429Y-130615571D02*
X175744429Y-131615571D01*
X175387286Y-130044143D02*
X175030143Y-131115571D01*
X175958715Y-131115571D01*
X177601571Y-130044143D02*
X176315857Y-131972714D01*
X178887286Y-131615571D02*
X178030143Y-131615571D01*
X178458715Y-131615571D02*
X178458715Y-130115571D01*
X178315858Y-130329857D01*
X178173000Y-130472714D01*
X178030143Y-130544143D01*
X179387286Y-130115571D02*
X180387286Y-130115571D01*
X179744429Y-131615571D01*
X131707287Y-131615571D02*
X131207287Y-130901286D01*
X130850144Y-131615571D02*
X130850144Y-130115571D01*
X131421572Y-130115571D01*
X131564430Y-130187000D01*
X131635858Y-130258429D01*
X131707287Y-130401286D01*
X131707287Y-130615571D01*
X131635858Y-130758429D01*
X131564430Y-130829857D01*
X131421572Y-130901286D01*
X130850144Y-130901286D01*
X132350144Y-130829857D02*
X132850144Y-130829857D01*
X133064430Y-131615571D02*
X132350144Y-131615571D01*
X132350144Y-130115571D01*
X133064430Y-130115571D01*
X133493001Y-130115571D02*
X133993001Y-131615571D01*
X134493001Y-130115571D01*
X134635858Y-131758429D02*
X135778715Y-131758429D01*
X136921572Y-131615571D02*
X136064429Y-131615571D01*
X136493001Y-131615571D02*
X136493001Y-130115571D01*
X136350144Y-130329857D01*
X136207286Y-130472714D01*
X136064429Y-130544143D01*
X137493000Y-131187000D02*
X138207286Y-131187000D01*
X137350143Y-131615571D02*
X137850143Y-130115571D01*
X138350143Y-131615571D01*
D13*
X129291000Y-124872500D02*
X145791000Y-124872500D01*
X145791000Y-124872500D02*
X145791000Y-102372500D01*
X129291000Y-102372500D02*
X145791000Y-102372500D01*
X129291000Y-124872500D02*
X129291000Y-102372500D01*
D14*
X127377500Y-82486500D02*
X127377500Y-67186500D01*
X127377500Y-67186500D02*
X124717500Y-67186500D01*
X124717500Y-67186500D02*
X124717500Y-82486500D01*
X124717500Y-82486500D02*
X127377500Y-82486500D01*
X127377500Y-83756500D02*
X127377500Y-85086500D01*
X127377500Y-85086500D02*
X126047500Y-85086500D01*
X127377500Y-96329500D02*
X127377500Y-86109500D01*
X127377500Y-86109500D02*
X124717500Y-86109500D01*
X124717500Y-86109500D02*
X124717500Y-96329500D01*
X124717500Y-96329500D02*
X127377500Y-96329500D01*
X127377500Y-97599500D02*
X127377500Y-98929500D01*
X127377500Y-98929500D02*
X126047500Y-98929500D01*
X170053000Y-83943500D02*
X175193000Y-83943500D01*
X175193000Y-83943500D02*
X175193000Y-78743500D01*
X175193000Y-78743500D02*
X167453000Y-78743500D01*
X167453000Y-78743500D02*
X167453000Y-81343500D01*
X167453000Y-81343500D02*
X170053000Y-81343500D01*
X170053000Y-81343500D02*
X170053000Y-83943500D01*
X168783000Y-83943500D02*
X167453000Y-83943500D01*
X167453000Y-83943500D02*
X167453000Y-82613500D01*
X181575000Y-89566000D02*
X181575000Y-90266000D01*
X180375000Y-90266000D02*
X180375000Y-89566000D01*
X143414000Y-71536000D02*
X144114000Y-71536000D01*
X144114000Y-72736000D02*
X143414000Y-72736000D01*
X149926600Y-72878200D02*
X149926600Y-73578200D01*
X148726600Y-73578200D02*
X148726600Y-72878200D01*
X164940500Y-88808000D02*
X165640500Y-88808000D01*
X165640500Y-90008000D02*
X164940500Y-90008000D01*
X158213500Y-77832000D02*
X158213500Y-77132000D01*
X159413500Y-77132000D02*
X159413500Y-77832000D01*
X164940500Y-85633000D02*
X165640500Y-85633000D01*
X165640500Y-86833000D02*
X164940500Y-86833000D01*
X153260500Y-74518000D02*
X153260500Y-73818000D01*
X154460500Y-73818000D02*
X154460500Y-74518000D01*
X159413500Y-73869500D02*
X159413500Y-74569500D01*
X158213500Y-74569500D02*
X158213500Y-73869500D01*
X159289000Y-93316500D02*
X159989000Y-93316500D01*
X159989000Y-94516500D02*
X159289000Y-94516500D01*
X181513000Y-92625800D02*
X181513000Y-91625800D01*
X181513000Y-91625800D02*
X179413000Y-91625800D01*
X181513000Y-92625800D02*
X179413000Y-92625800D01*
X144305500Y-62492000D02*
X144305500Y-63492000D01*
X144305500Y-63492000D02*
X146405500Y-63492000D01*
X144305500Y-62492000D02*
X146405500Y-62492000D01*
X145385000Y-77922500D02*
X145385000Y-78922500D01*
X145385000Y-78922500D02*
X147485000Y-78922500D01*
X145385000Y-77922500D02*
X147485000Y-77922500D01*
X190021500Y-91789500D02*
X190021500Y-83089500D01*
X183611500Y-91789500D02*
X183611500Y-83089500D01*
X183611500Y-83089500D02*
X190021500Y-83089500D01*
X188791500Y-83089500D02*
X188791500Y-91789500D01*
X190021500Y-91789500D02*
X183611500Y-91789500D01*
X180131000Y-89416000D02*
X180131000Y-90416000D01*
X178771000Y-90416000D02*
X178771000Y-89416000D01*
X161017500Y-76970000D02*
X161017500Y-77970000D01*
X159657500Y-77970000D02*
X159657500Y-76970000D01*
X148090000Y-62312000D02*
X149090000Y-62312000D01*
X149090000Y-63672000D02*
X148090000Y-63672000D01*
X169334500Y-87865500D02*
X168334500Y-87865500D01*
X168334500Y-86505500D02*
X169334500Y-86505500D01*
X169346500Y-89326000D02*
X168346500Y-89326000D01*
X168346500Y-87966000D02*
X169346500Y-87966000D01*
X150042500Y-79102500D02*
X149042500Y-79102500D01*
X149042500Y-77742500D02*
X150042500Y-77742500D01*
X132834000Y-97200000D02*
X131834000Y-97200000D01*
X131834000Y-95840000D02*
X132834000Y-95840000D01*
X145751000Y-99635500D02*
X145751000Y-98635500D01*
X147111000Y-98635500D02*
X147111000Y-99635500D01*
X164674000Y-99560000D02*
X164674000Y-98560000D01*
X166034000Y-98560000D02*
X166034000Y-99560000D01*
X140909000Y-101027500D02*
X140909000Y-97727500D01*
X140909000Y-97727500D02*
X135509000Y-97727500D01*
X140909000Y-101027500D02*
X135509000Y-101027500D01*
X159610000Y-101281500D02*
X159610000Y-97981500D01*
X159610000Y-97981500D02*
X154210000Y-97981500D01*
X159610000Y-101281500D02*
X154210000Y-101281500D01*
X178406000Y-101281500D02*
X178406000Y-97981500D01*
X178406000Y-97981500D02*
X173006000Y-97981500D01*
X178406000Y-101281500D02*
X173006000Y-101281500D01*
X131173000Y-100642500D02*
X131173000Y-99712500D01*
X131173000Y-97482500D02*
X131173000Y-98412500D01*
X131173000Y-97482500D02*
X129013000Y-97482500D01*
X131173000Y-100642500D02*
X129713000Y-100642500D01*
X149969000Y-100896500D02*
X149969000Y-99966500D01*
X149969000Y-97736500D02*
X149969000Y-98666500D01*
X149969000Y-97736500D02*
X147809000Y-97736500D01*
X149969000Y-100896500D02*
X148509000Y-100896500D01*
X168781000Y-100830500D02*
X168781000Y-99900500D01*
X168781000Y-97670500D02*
X168781000Y-98600500D01*
X168781000Y-97670500D02*
X166621000Y-97670500D01*
X168781000Y-100830500D02*
X167321000Y-100830500D01*
X176522000Y-69856900D02*
X175522000Y-69856900D01*
X175522000Y-68496900D02*
X176522000Y-68496900D01*
X168521000Y-69856900D02*
X167521000Y-69856900D01*
X167521000Y-68496900D02*
X168521000Y-68496900D01*
X160647000Y-69856900D02*
X159647000Y-69856900D01*
X159647000Y-68496900D02*
X160647000Y-68496900D01*
X152773000Y-69856900D02*
X151773000Y-69856900D01*
X151773000Y-68496900D02*
X152773000Y-68496900D01*
X148087000Y-71291500D02*
X148087000Y-70031500D01*
X148087000Y-64471500D02*
X148087000Y-65731500D01*
X144327000Y-71291500D02*
X148087000Y-71291500D01*
X142077000Y-64471500D02*
X148087000Y-64471500D01*
D13*
X161590500Y-91408000D02*
X161590500Y-90833000D01*
X151240500Y-91408000D02*
X151240500Y-90733000D01*
X151240500Y-81058000D02*
X151240500Y-81733000D01*
X161590500Y-81058000D02*
X161590500Y-81733000D01*
X161590500Y-91408000D02*
X160915500Y-91408000D01*
X161590500Y-81058000D02*
X160915500Y-81058000D01*
X151240500Y-81058000D02*
X151915500Y-81058000D01*
X151240500Y-91408000D02*
X151915500Y-91408000D01*
X161590500Y-90833000D02*
X162865500Y-90833000D01*
X147991000Y-124882500D02*
X164491000Y-124882500D01*
X164491000Y-124882500D02*
X164491000Y-102382500D01*
X147991000Y-102382500D02*
X164491000Y-102382500D01*
X147991000Y-124882500D02*
X147991000Y-102382500D01*
X166787000Y-124890500D02*
X183287000Y-124890500D01*
X183287000Y-124890500D02*
X183287000Y-102390500D01*
X166787000Y-102390500D02*
X183287000Y-102390500D01*
X166787000Y-124890500D02*
X166787000Y-102390500D01*
D14*
X184896000Y-79137000D02*
X184896000Y-74637000D01*
X180896000Y-80387000D02*
X182396000Y-80387000D01*
X178396000Y-74637000D02*
X178396000Y-79137000D01*
X182396000Y-73387000D02*
X180896000Y-73387000D01*
X181522000Y-65636900D02*
X181522000Y-61136900D01*
X177522000Y-66886900D02*
X179022000Y-66886900D01*
X175022000Y-61136900D02*
X175022000Y-65636900D01*
X179022000Y-59886900D02*
X177522000Y-59886900D01*
X173521000Y-65636900D02*
X173521000Y-61136900D01*
X169521000Y-66886900D02*
X171021000Y-66886900D01*
X167021000Y-61136900D02*
X167021000Y-65636900D01*
X171021000Y-59886900D02*
X169521000Y-59886900D01*
X165647000Y-65636900D02*
X165647000Y-61136900D01*
X161647000Y-66886900D02*
X163147000Y-66886900D01*
X159147000Y-61136900D02*
X159147000Y-65636900D01*
X163147000Y-59886900D02*
X161647000Y-59886900D01*
X157773000Y-65636900D02*
X157773000Y-61136900D01*
X153773000Y-66886900D02*
X155273000Y-66886900D01*
X151273000Y-61136900D02*
X151273000Y-65636900D01*
X155273000Y-59886900D02*
X153773000Y-59886900D01*
X131544000Y-62658500D02*
X131544000Y-53858500D01*
X131544000Y-53858500D02*
X140744000Y-53858500D01*
X134244000Y-68558500D02*
X131544000Y-68558500D01*
X131544000Y-68558500D02*
X131544000Y-66658500D01*
X140744000Y-53858500D02*
X140744000Y-68558500D01*
X140744000Y-68558500D02*
X138144000Y-68558500D01*
D13*
X146967000Y-133538400D02*
X146967000Y-133938400D01*
X143467000Y-132438400D02*
X150467000Y-132438400D01*
X143467000Y-133538400D02*
X150467000Y-133538400D01*
X143467000Y-126338400D02*
X143467000Y-133938400D01*
X150467000Y-133938400D02*
X150467000Y-126338400D01*
X150467000Y-126338400D02*
X143467000Y-126338400D01*
X165605400Y-133538400D02*
X165605400Y-133938400D01*
X162105400Y-132438400D02*
X169105400Y-132438400D01*
X162105400Y-133538400D02*
X169105400Y-133538400D01*
X162105400Y-126338400D02*
X162105400Y-133938400D01*
X169105400Y-133938400D02*
X169105400Y-126338400D01*
X169105400Y-126338400D02*
X162105400Y-126338400D01*
D14*
X157962500Y-72887000D02*
X154662500Y-72887000D01*
X154662500Y-72887000D02*
X154662500Y-76887000D01*
X139536357Y-76133440D02*
G75*
G03X139537000Y-69956764I-979357J3088440D01*
G01*
X137577643Y-76133440D02*
G75*
G02X137577000Y-69956764I979357J3088440D01*
G01*
X137577643Y-76133440D02*
G75*
G03X139537000Y-76133236I979357J3088440D01*
G01*
X141757000Y-73045000D02*
X135357000Y-73045000D01*
X141757000Y-73085000D02*
X135357000Y-73085000D01*
X141757000Y-73125000D02*
X135357000Y-73125000D01*
X141755000Y-73165000D02*
X135359000Y-73165000D01*
X141754000Y-73205000D02*
X135360000Y-73205000D01*
X141751000Y-73245000D02*
X135363000Y-73245000D01*
X141749000Y-73285000D02*
X135365000Y-73285000D01*
X141745000Y-73325000D02*
X139537000Y-73325000D01*
X137577000Y-73325000D02*
X135369000Y-73325000D01*
X141742000Y-73365000D02*
X139537000Y-73365000D01*
X137577000Y-73365000D02*
X135372000Y-73365000D01*
X141737000Y-73405000D02*
X139537000Y-73405000D01*
X137577000Y-73405000D02*
X135377000Y-73405000D01*
X141733000Y-73445000D02*
X139537000Y-73445000D01*
X137577000Y-73445000D02*
X135381000Y-73445000D01*
X141727000Y-73485000D02*
X139537000Y-73485000D01*
X137577000Y-73485000D02*
X135387000Y-73485000D01*
X141722000Y-73525000D02*
X139537000Y-73525000D01*
X137577000Y-73525000D02*
X135392000Y-73525000D01*
X141715000Y-73565000D02*
X139537000Y-73565000D01*
X137577000Y-73565000D02*
X135399000Y-73565000D01*
X141709000Y-73605000D02*
X139537000Y-73605000D01*
X137577000Y-73605000D02*
X135405000Y-73605000D01*
X141701000Y-73645000D02*
X139537000Y-73645000D01*
X137577000Y-73645000D02*
X135413000Y-73645000D01*
X141694000Y-73685000D02*
X139537000Y-73685000D01*
X137577000Y-73685000D02*
X135420000Y-73685000D01*
X141685000Y-73725000D02*
X139537000Y-73725000D01*
X137577000Y-73725000D02*
X135429000Y-73725000D01*
X141676000Y-73766000D02*
X139537000Y-73766000D01*
X137577000Y-73766000D02*
X135438000Y-73766000D01*
X141667000Y-73806000D02*
X139537000Y-73806000D01*
X137577000Y-73806000D02*
X135447000Y-73806000D01*
X141657000Y-73846000D02*
X139537000Y-73846000D01*
X137577000Y-73846000D02*
X135457000Y-73846000D01*
X141647000Y-73886000D02*
X139537000Y-73886000D01*
X137577000Y-73886000D02*
X135467000Y-73886000D01*
X141636000Y-73926000D02*
X139537000Y-73926000D01*
X137577000Y-73926000D02*
X135478000Y-73926000D01*
X141624000Y-73966000D02*
X139537000Y-73966000D01*
X137577000Y-73966000D02*
X135490000Y-73966000D01*
X141612000Y-74006000D02*
X139537000Y-74006000D01*
X137577000Y-74006000D02*
X135502000Y-74006000D01*
X141599000Y-74046000D02*
X139537000Y-74046000D01*
X137577000Y-74046000D02*
X135515000Y-74046000D01*
X141586000Y-74086000D02*
X139537000Y-74086000D01*
X137577000Y-74086000D02*
X135528000Y-74086000D01*
X141572000Y-74126000D02*
X139537000Y-74126000D01*
X137577000Y-74126000D02*
X135542000Y-74126000D01*
X141558000Y-74166000D02*
X139537000Y-74166000D01*
X137577000Y-74166000D02*
X135556000Y-74166000D01*
X141543000Y-74206000D02*
X139537000Y-74206000D01*
X137577000Y-74206000D02*
X135571000Y-74206000D01*
X141527000Y-74246000D02*
X139537000Y-74246000D01*
X137577000Y-74246000D02*
X135587000Y-74246000D01*
X141511000Y-74286000D02*
X139537000Y-74286000D01*
X137577000Y-74286000D02*
X135603000Y-74286000D01*
X141494000Y-74326000D02*
X139537000Y-74326000D01*
X137577000Y-74326000D02*
X135620000Y-74326000D01*
X141476000Y-74366000D02*
X139537000Y-74366000D01*
X137577000Y-74366000D02*
X135638000Y-74366000D01*
X141458000Y-74406000D02*
X139537000Y-74406000D01*
X137577000Y-74406000D02*
X135656000Y-74406000D01*
X141439000Y-74446000D02*
X139537000Y-74446000D01*
X137577000Y-74446000D02*
X135675000Y-74446000D01*
X141420000Y-74486000D02*
X139537000Y-74486000D01*
X137577000Y-74486000D02*
X135694000Y-74486000D01*
X141400000Y-74526000D02*
X139537000Y-74526000D01*
X137577000Y-74526000D02*
X135714000Y-74526000D01*
X141379000Y-74566000D02*
X139537000Y-74566000D01*
X137577000Y-74566000D02*
X135735000Y-74566000D01*
X141357000Y-74606000D02*
X139537000Y-74606000D01*
X137577000Y-74606000D02*
X135757000Y-74606000D01*
X141335000Y-74646000D02*
X139537000Y-74646000D01*
X137577000Y-74646000D02*
X135779000Y-74646000D01*
X141312000Y-74686000D02*
X139537000Y-74686000D01*
X137577000Y-74686000D02*
X135802000Y-74686000D01*
X141288000Y-74726000D02*
X139537000Y-74726000D01*
X137577000Y-74726000D02*
X135826000Y-74726000D01*
X141263000Y-74766000D02*
X139537000Y-74766000D01*
X137577000Y-74766000D02*
X135851000Y-74766000D01*
X141238000Y-74806000D02*
X139537000Y-74806000D01*
X137577000Y-74806000D02*
X135876000Y-74806000D01*
X141211000Y-74846000D02*
X139537000Y-74846000D01*
X137577000Y-74846000D02*
X135903000Y-74846000D01*
X141184000Y-74886000D02*
X139537000Y-74886000D01*
X137577000Y-74886000D02*
X135930000Y-74886000D01*
X141156000Y-74926000D02*
X139537000Y-74926000D01*
X137577000Y-74926000D02*
X135958000Y-74926000D01*
X141127000Y-74966000D02*
X139537000Y-74966000D01*
X137577000Y-74966000D02*
X135987000Y-74966000D01*
X141097000Y-75006000D02*
X139537000Y-75006000D01*
X137577000Y-75006000D02*
X136017000Y-75006000D01*
X141067000Y-75046000D02*
X139537000Y-75046000D01*
X137577000Y-75046000D02*
X136047000Y-75046000D01*
X141035000Y-75086000D02*
X139537000Y-75086000D01*
X137577000Y-75086000D02*
X136079000Y-75086000D01*
X141002000Y-75126000D02*
X139537000Y-75126000D01*
X137577000Y-75126000D02*
X136112000Y-75126000D01*
X140968000Y-75166000D02*
X139537000Y-75166000D01*
X137577000Y-75166000D02*
X136146000Y-75166000D01*
X140932000Y-75206000D02*
X139537000Y-75206000D01*
X137577000Y-75206000D02*
X136182000Y-75206000D01*
X140896000Y-75246000D02*
X139537000Y-75246000D01*
X137577000Y-75246000D02*
X136218000Y-75246000D01*
X140858000Y-75286000D02*
X136256000Y-75286000D01*
X140819000Y-75326000D02*
X136295000Y-75326000D01*
X140779000Y-75366000D02*
X136335000Y-75366000D01*
X140737000Y-75406000D02*
X136377000Y-75406000D01*
X140694000Y-75446000D02*
X136420000Y-75446000D01*
X140649000Y-75486000D02*
X136465000Y-75486000D01*
X140602000Y-75526000D02*
X136512000Y-75526000D01*
X140554000Y-75566000D02*
X136560000Y-75566000D01*
X140503000Y-75606000D02*
X136611000Y-75606000D01*
X140451000Y-75646000D02*
X136663000Y-75646000D01*
X140396000Y-75686000D02*
X136718000Y-75686000D01*
X140338000Y-75726000D02*
X136776000Y-75726000D01*
X140278000Y-75766000D02*
X136836000Y-75766000D01*
X140215000Y-75806000D02*
X136899000Y-75806000D01*
X140148000Y-75846000D02*
X136966000Y-75846000D01*
X140077000Y-75886000D02*
X137037000Y-75886000D01*
X140002000Y-75926000D02*
X137112000Y-75926000D01*
X139921000Y-75966000D02*
X137193000Y-75966000D01*
X139835000Y-76006000D02*
X137279000Y-76006000D01*
X139741000Y-76046000D02*
X137373000Y-76046000D01*
X139638000Y-76086000D02*
X137476000Y-76086000D01*
X139523000Y-76126000D02*
X137591000Y-76126000D01*
X139391000Y-76166000D02*
X137723000Y-76166000D01*
X139233000Y-76206000D02*
X137881000Y-76206000D01*
X139025000Y-76246000D02*
X138089000Y-76246000D01*
X138557000Y-69595000D02*
X138557000Y-70795000D01*
X139207000Y-70195000D02*
X137907000Y-70195000D01*
D13*
X137643381Y-114543928D02*
X137167190Y-114877262D01*
X137643381Y-115115357D02*
X136643381Y-115115357D01*
X136643381Y-114734404D01*
X136691000Y-114639166D01*
X136738619Y-114591547D01*
X136833857Y-114543928D01*
X136976714Y-114543928D01*
X137071952Y-114591547D01*
X137119571Y-114639166D01*
X137167190Y-114734404D01*
X137167190Y-115115357D01*
X137643381Y-113639166D02*
X137643381Y-114115357D01*
X136643381Y-114115357D01*
X137643381Y-112782023D02*
X137643381Y-113353452D01*
X137643381Y-113067738D02*
X136643381Y-113067738D01*
X136786238Y-113162976D01*
X136881476Y-113258214D01*
X136929095Y-113353452D01*
X125714167Y-85538881D02*
X125714167Y-86253167D01*
X125666547Y-86396024D01*
X125571309Y-86491262D01*
X125428452Y-86538881D01*
X125333214Y-86538881D01*
X126333214Y-85967452D02*
X126237976Y-85919833D01*
X126190357Y-85872214D01*
X126142738Y-85776976D01*
X126142738Y-85729357D01*
X126190357Y-85634119D01*
X126237976Y-85586500D01*
X126333214Y-85538881D01*
X126523691Y-85538881D01*
X126618929Y-85586500D01*
X126666548Y-85634119D01*
X126714167Y-85729357D01*
X126714167Y-85776976D01*
X126666548Y-85872214D01*
X126618929Y-85919833D01*
X126523691Y-85967452D01*
X126333214Y-85967452D01*
X126237976Y-86015071D01*
X126190357Y-86062690D01*
X126142738Y-86157929D01*
X126142738Y-86348405D01*
X126190357Y-86443643D01*
X126237976Y-86491262D01*
X126333214Y-86538881D01*
X126523691Y-86538881D01*
X126618929Y-86491262D01*
X126666548Y-86443643D01*
X126714167Y-86348405D01*
X126714167Y-86157929D01*
X126666548Y-86062690D01*
X126618929Y-86015071D01*
X126523691Y-85967452D01*
X125991667Y-57283381D02*
X125658333Y-56807190D01*
X125420238Y-57283381D02*
X125420238Y-56283381D01*
X125801191Y-56283381D01*
X125896429Y-56331000D01*
X125944048Y-56378619D01*
X125991667Y-56473857D01*
X125991667Y-56616714D01*
X125944048Y-56711952D01*
X125896429Y-56759571D01*
X125801191Y-56807190D01*
X125420238Y-56807190D01*
X126420238Y-56759571D02*
X126753572Y-56759571D01*
X126896429Y-57283381D02*
X126420238Y-57283381D01*
X126420238Y-56283381D01*
X126896429Y-56283381D01*
X127658334Y-56759571D02*
X127325000Y-56759571D01*
X127325000Y-57283381D02*
X127325000Y-56283381D01*
X127801191Y-56283381D01*
X128325000Y-56283381D02*
X128325000Y-56521476D01*
X128086905Y-56426238D02*
X128325000Y-56521476D01*
X128563096Y-56426238D01*
X128182143Y-56711952D02*
X128325000Y-56521476D01*
X128467858Y-56711952D01*
X129086905Y-56283381D02*
X129086905Y-56521476D01*
X128848810Y-56426238D02*
X129086905Y-56521476D01*
X129325001Y-56426238D01*
X128944048Y-56711952D02*
X129086905Y-56521476D01*
X129229763Y-56711952D01*
D15*
D13*
X183991667Y-125283381D02*
X183658333Y-124807190D01*
X183420238Y-125283381D02*
X183420238Y-124283381D01*
X183801191Y-124283381D01*
X183896429Y-124331000D01*
X183944048Y-124378619D01*
X183991667Y-124473857D01*
X183991667Y-124616714D01*
X183944048Y-124711952D01*
X183896429Y-124759571D01*
X183801191Y-124807190D01*
X183420238Y-124807190D01*
X184420238Y-124759571D02*
X184753572Y-124759571D01*
X184896429Y-125283381D02*
X184420238Y-125283381D01*
X184420238Y-124283381D01*
X184896429Y-124283381D01*
X185658334Y-124759571D02*
X185325000Y-124759571D01*
X185325000Y-125283381D02*
X185325000Y-124283381D01*
X185801191Y-124283381D01*
X186325000Y-124283381D02*
X186325000Y-124521476D01*
X186086905Y-124426238D02*
X186325000Y-124521476D01*
X186563096Y-124426238D01*
X186182143Y-124711952D02*
X186325000Y-124521476D01*
X186467858Y-124711952D01*
X187086905Y-124283381D02*
X187086905Y-124521476D01*
X186848810Y-124426238D02*
X187086905Y-124521476D01*
X187325001Y-124426238D01*
X186944048Y-124711952D02*
X187086905Y-124521476D01*
X187229763Y-124711952D01*
D15*
X125880834Y-99655690D02*
X125880834Y-100012833D01*
X125857024Y-100084262D01*
X125809405Y-100131881D01*
X125737977Y-100155690D01*
X125690358Y-100155690D01*
X126333214Y-99822357D02*
X126333214Y-100155690D01*
X126214167Y-99631881D02*
X126095119Y-99989024D01*
X126404643Y-99989024D01*
X166179190Y-81510166D02*
X166536333Y-81510166D01*
X166607762Y-81533976D01*
X166655381Y-81581595D01*
X166679190Y-81653023D01*
X166679190Y-81700642D01*
X166179190Y-81319690D02*
X166179190Y-81010167D01*
X166369667Y-81176833D01*
X166369667Y-81105405D01*
X166393476Y-81057786D01*
X166417286Y-81033976D01*
X166464905Y-81010167D01*
X166583952Y-81010167D01*
X166631571Y-81033976D01*
X166655381Y-81057786D01*
X166679190Y-81105405D01*
X166679190Y-81248262D01*
X166655381Y-81295881D01*
X166631571Y-81319690D01*
X182653571Y-89999333D02*
X182677381Y-90023143D01*
X182701190Y-90094571D01*
X182701190Y-90142190D01*
X182677381Y-90213619D01*
X182629762Y-90261238D01*
X182582143Y-90285047D01*
X182486905Y-90308857D01*
X182415476Y-90308857D01*
X182320238Y-90285047D01*
X182272619Y-90261238D01*
X182225000Y-90213619D01*
X182201190Y-90142190D01*
X182201190Y-90094571D01*
X182225000Y-90023143D01*
X182248810Y-89999333D01*
X182701190Y-89523143D02*
X182701190Y-89808857D01*
X182701190Y-89666000D02*
X182201190Y-89666000D01*
X182272619Y-89713619D01*
X182320238Y-89761238D01*
X182344048Y-89808857D01*
X145720571Y-72219333D02*
X145744381Y-72243143D01*
X145768190Y-72314571D01*
X145768190Y-72362190D01*
X145744381Y-72433619D01*
X145696762Y-72481238D01*
X145649143Y-72505047D01*
X145553905Y-72528857D01*
X145482476Y-72528857D01*
X145387238Y-72505047D01*
X145339619Y-72481238D01*
X145292000Y-72433619D01*
X145268190Y-72362190D01*
X145268190Y-72314571D01*
X145292000Y-72243143D01*
X145315810Y-72219333D01*
X145315810Y-72028857D02*
X145292000Y-72005047D01*
X145268190Y-71957428D01*
X145268190Y-71838381D01*
X145292000Y-71790762D01*
X145315810Y-71766952D01*
X145363429Y-71743143D01*
X145411048Y-71743143D01*
X145482476Y-71766952D01*
X145768190Y-72052666D01*
X145768190Y-71743143D01*
X149141667Y-75235571D02*
X149117857Y-75259381D01*
X149046429Y-75283190D01*
X148998810Y-75283190D01*
X148927381Y-75259381D01*
X148879762Y-75211762D01*
X148855953Y-75164143D01*
X148832143Y-75068905D01*
X148832143Y-74997476D01*
X148855953Y-74902238D01*
X148879762Y-74854619D01*
X148927381Y-74807000D01*
X148998810Y-74783190D01*
X149046429Y-74783190D01*
X149117857Y-74807000D01*
X149141667Y-74830810D01*
X149308334Y-74783190D02*
X149617857Y-74783190D01*
X149451191Y-74973667D01*
X149522619Y-74973667D01*
X149570238Y-74997476D01*
X149594048Y-75021286D01*
X149617857Y-75068905D01*
X149617857Y-75187952D01*
X149594048Y-75235571D01*
X149570238Y-75259381D01*
X149522619Y-75283190D01*
X149379762Y-75283190D01*
X149332143Y-75259381D01*
X149308334Y-75235571D01*
X166096167Y-88570571D02*
X166072357Y-88594381D01*
X166000929Y-88618190D01*
X165953310Y-88618190D01*
X165881881Y-88594381D01*
X165834262Y-88546762D01*
X165810453Y-88499143D01*
X165786643Y-88403905D01*
X165786643Y-88332476D01*
X165810453Y-88237238D01*
X165834262Y-88189619D01*
X165881881Y-88142000D01*
X165953310Y-88118190D01*
X166000929Y-88118190D01*
X166072357Y-88142000D01*
X166096167Y-88165810D01*
X166524738Y-88284857D02*
X166524738Y-88618190D01*
X166405691Y-88094381D02*
X166286643Y-88451524D01*
X166596167Y-88451524D01*
X158039571Y-78188333D02*
X158063381Y-78212143D01*
X158087190Y-78283571D01*
X158087190Y-78331190D01*
X158063381Y-78402619D01*
X158015762Y-78450238D01*
X157968143Y-78474047D01*
X157872905Y-78497857D01*
X157801476Y-78497857D01*
X157706238Y-78474047D01*
X157658619Y-78450238D01*
X157611000Y-78402619D01*
X157587190Y-78331190D01*
X157587190Y-78283571D01*
X157611000Y-78212143D01*
X157634810Y-78188333D01*
X157587190Y-77735952D02*
X157587190Y-77974047D01*
X157825286Y-77997857D01*
X157801476Y-77974047D01*
X157777667Y-77926428D01*
X157777667Y-77807381D01*
X157801476Y-77759762D01*
X157825286Y-77735952D01*
X157872905Y-77712143D01*
X157991952Y-77712143D01*
X158039571Y-77735952D01*
X158063381Y-77759762D01*
X158087190Y-77807381D01*
X158087190Y-77926428D01*
X158063381Y-77974047D01*
X158039571Y-77997857D01*
X166159667Y-85459071D02*
X166135857Y-85482881D01*
X166064429Y-85506690D01*
X166016810Y-85506690D01*
X165945381Y-85482881D01*
X165897762Y-85435262D01*
X165873953Y-85387643D01*
X165850143Y-85292405D01*
X165850143Y-85220976D01*
X165873953Y-85125738D01*
X165897762Y-85078119D01*
X165945381Y-85030500D01*
X166016810Y-85006690D01*
X166064429Y-85006690D01*
X166135857Y-85030500D01*
X166159667Y-85054310D01*
X166588238Y-85006690D02*
X166493000Y-85006690D01*
X166445381Y-85030500D01*
X166421572Y-85054310D01*
X166373953Y-85125738D01*
X166350143Y-85220976D01*
X166350143Y-85411452D01*
X166373953Y-85459071D01*
X166397762Y-85482881D01*
X166445381Y-85506690D01*
X166540619Y-85506690D01*
X166588238Y-85482881D01*
X166612048Y-85459071D01*
X166635857Y-85411452D01*
X166635857Y-85292405D01*
X166612048Y-85244786D01*
X166588238Y-85220976D01*
X166540619Y-85197167D01*
X166445381Y-85197167D01*
X166397762Y-85220976D01*
X166373953Y-85244786D01*
X166350143Y-85292405D01*
X153213571Y-73362333D02*
X153237381Y-73386143D01*
X153261190Y-73457571D01*
X153261190Y-73505190D01*
X153237381Y-73576619D01*
X153189762Y-73624238D01*
X153142143Y-73648047D01*
X153046905Y-73671857D01*
X152975476Y-73671857D01*
X152880238Y-73648047D01*
X152832619Y-73624238D01*
X152785000Y-73576619D01*
X152761190Y-73505190D01*
X152761190Y-73457571D01*
X152785000Y-73386143D01*
X152808810Y-73362333D01*
X152761190Y-73195666D02*
X152761190Y-72862333D01*
X153261190Y-73076619D01*
X160071571Y-75140333D02*
X160095381Y-75164143D01*
X160119190Y-75235571D01*
X160119190Y-75283190D01*
X160095381Y-75354619D01*
X160047762Y-75402238D01*
X160000143Y-75426047D01*
X159904905Y-75449857D01*
X159833476Y-75449857D01*
X159738238Y-75426047D01*
X159690619Y-75402238D01*
X159643000Y-75354619D01*
X159619190Y-75283190D01*
X159619190Y-75235571D01*
X159643000Y-75164143D01*
X159666810Y-75140333D01*
X159833476Y-74854619D02*
X159809667Y-74902238D01*
X159785857Y-74926047D01*
X159738238Y-74949857D01*
X159714429Y-74949857D01*
X159666810Y-74926047D01*
X159643000Y-74902238D01*
X159619190Y-74854619D01*
X159619190Y-74759381D01*
X159643000Y-74711762D01*
X159666810Y-74687952D01*
X159714429Y-74664143D01*
X159738238Y-74664143D01*
X159785857Y-74687952D01*
X159809667Y-74711762D01*
X159833476Y-74759381D01*
X159833476Y-74854619D01*
X159857286Y-74902238D01*
X159881095Y-74926047D01*
X159928714Y-74949857D01*
X160023952Y-74949857D01*
X160071571Y-74926047D01*
X160095381Y-74902238D01*
X160119190Y-74854619D01*
X160119190Y-74759381D01*
X160095381Y-74711762D01*
X160071571Y-74687952D01*
X160023952Y-74664143D01*
X159928714Y-74664143D01*
X159881095Y-74687952D01*
X159857286Y-74711762D01*
X159833476Y-74759381D01*
X158539667Y-95047571D02*
X158515857Y-95071381D01*
X158444429Y-95095190D01*
X158396810Y-95095190D01*
X158325381Y-95071381D01*
X158277762Y-95023762D01*
X158253953Y-94976143D01*
X158230143Y-94880905D01*
X158230143Y-94809476D01*
X158253953Y-94714238D01*
X158277762Y-94666619D01*
X158325381Y-94619000D01*
X158396810Y-94595190D01*
X158444429Y-94595190D01*
X158515857Y-94619000D01*
X158539667Y-94642810D01*
X158777762Y-95095190D02*
X158873000Y-95095190D01*
X158920619Y-95071381D01*
X158944429Y-95047571D01*
X158992048Y-94976143D01*
X159015857Y-94880905D01*
X159015857Y-94690429D01*
X158992048Y-94642810D01*
X158968238Y-94619000D01*
X158920619Y-94595190D01*
X158825381Y-94595190D01*
X158777762Y-94619000D01*
X158753953Y-94642810D01*
X158730143Y-94690429D01*
X158730143Y-94809476D01*
X158753953Y-94857095D01*
X158777762Y-94880905D01*
X158825381Y-94904714D01*
X158920619Y-94904714D01*
X158968238Y-94880905D01*
X158992048Y-94857095D01*
X159015857Y-94809476D01*
X179843953Y-93601990D02*
X179843953Y-93101990D01*
X179963000Y-93101990D01*
X180034429Y-93125800D01*
X180082048Y-93173419D01*
X180105857Y-93221038D01*
X180129667Y-93316276D01*
X180129667Y-93387705D01*
X180105857Y-93482943D01*
X180082048Y-93530562D01*
X180034429Y-93578181D01*
X179963000Y-93601990D01*
X179843953Y-93601990D01*
X180605857Y-93601990D02*
X180320143Y-93601990D01*
X180463000Y-93601990D02*
X180463000Y-93101990D01*
X180415381Y-93173419D01*
X180367762Y-93221038D01*
X180320143Y-93244848D01*
X144220453Y-62265690D02*
X144220453Y-61765690D01*
X144339500Y-61765690D01*
X144410929Y-61789500D01*
X144458548Y-61837119D01*
X144482357Y-61884738D01*
X144506167Y-61979976D01*
X144506167Y-62051405D01*
X144482357Y-62146643D01*
X144458548Y-62194262D01*
X144410929Y-62241881D01*
X144339500Y-62265690D01*
X144220453Y-62265690D01*
X144696643Y-61813310D02*
X144720453Y-61789500D01*
X144768072Y-61765690D01*
X144887119Y-61765690D01*
X144934738Y-61789500D01*
X144958548Y-61813310D01*
X144982357Y-61860929D01*
X144982357Y-61908548D01*
X144958548Y-61979976D01*
X144672834Y-62265690D01*
X144982357Y-62265690D01*
X145299953Y-77569190D02*
X145299953Y-77069190D01*
X145419000Y-77069190D01*
X145490429Y-77093000D01*
X145538048Y-77140619D01*
X145561857Y-77188238D01*
X145585667Y-77283476D01*
X145585667Y-77354905D01*
X145561857Y-77450143D01*
X145538048Y-77497762D01*
X145490429Y-77545381D01*
X145419000Y-77569190D01*
X145299953Y-77569190D01*
X145752334Y-77069190D02*
X146061857Y-77069190D01*
X145895191Y-77259667D01*
X145966619Y-77259667D01*
X146014238Y-77283476D01*
X146038048Y-77307286D01*
X146061857Y-77354905D01*
X146061857Y-77473952D01*
X146038048Y-77521571D01*
X146014238Y-77545381D01*
X145966619Y-77569190D01*
X145823762Y-77569190D01*
X145776143Y-77545381D01*
X145752334Y-77521571D01*
D13*
X182203881Y-87772833D02*
X182918167Y-87772833D01*
X183061024Y-87820453D01*
X183156262Y-87915691D01*
X183203881Y-88058548D01*
X183203881Y-88153786D01*
X182299119Y-87344262D02*
X182251500Y-87296643D01*
X182203881Y-87201405D01*
X182203881Y-86963309D01*
X182251500Y-86868071D01*
X182299119Y-86820452D01*
X182394357Y-86772833D01*
X182489595Y-86772833D01*
X182632452Y-86820452D01*
X183203881Y-87391881D01*
X183203881Y-86772833D01*
D15*
X178227190Y-89999333D02*
X177989095Y-90166000D01*
X178227190Y-90285047D02*
X177727190Y-90285047D01*
X177727190Y-90094571D01*
X177751000Y-90046952D01*
X177774810Y-90023143D01*
X177822429Y-89999333D01*
X177893857Y-89999333D01*
X177941476Y-90023143D01*
X177965286Y-90046952D01*
X177989095Y-90094571D01*
X177989095Y-90285047D01*
X178227190Y-89523143D02*
X178227190Y-89808857D01*
X178227190Y-89666000D02*
X177727190Y-89666000D01*
X177798619Y-89713619D01*
X177846238Y-89761238D01*
X177870048Y-89808857D01*
X161643190Y-78442333D02*
X161405095Y-78609000D01*
X161643190Y-78728047D02*
X161143190Y-78728047D01*
X161143190Y-78537571D01*
X161167000Y-78489952D01*
X161190810Y-78466143D01*
X161238429Y-78442333D01*
X161309857Y-78442333D01*
X161357476Y-78466143D01*
X161381286Y-78489952D01*
X161405095Y-78537571D01*
X161405095Y-78728047D01*
X161190810Y-78251857D02*
X161167000Y-78228047D01*
X161143190Y-78180428D01*
X161143190Y-78061381D01*
X161167000Y-78013762D01*
X161190810Y-77989952D01*
X161238429Y-77966143D01*
X161286048Y-77966143D01*
X161357476Y-77989952D01*
X161643190Y-78275666D01*
X161643190Y-77966143D01*
X147744667Y-62202190D02*
X147578000Y-61964095D01*
X147458953Y-62202190D02*
X147458953Y-61702190D01*
X147649429Y-61702190D01*
X147697048Y-61726000D01*
X147720857Y-61749810D01*
X147744667Y-61797429D01*
X147744667Y-61868857D01*
X147720857Y-61916476D01*
X147697048Y-61940286D01*
X147649429Y-61964095D01*
X147458953Y-61964095D01*
X147911334Y-61702190D02*
X148220857Y-61702190D01*
X148054191Y-61892667D01*
X148125619Y-61892667D01*
X148173238Y-61916476D01*
X148197048Y-61940286D01*
X148220857Y-61987905D01*
X148220857Y-62106952D01*
X148197048Y-62154571D01*
X148173238Y-62178381D01*
X148125619Y-62202190D01*
X147982762Y-62202190D01*
X147935143Y-62178381D01*
X147911334Y-62154571D01*
X168751167Y-85961690D02*
X168584500Y-85723595D01*
X168465453Y-85961690D02*
X168465453Y-85461690D01*
X168655929Y-85461690D01*
X168703548Y-85485500D01*
X168727357Y-85509310D01*
X168751167Y-85556929D01*
X168751167Y-85628357D01*
X168727357Y-85675976D01*
X168703548Y-85699786D01*
X168655929Y-85723595D01*
X168465453Y-85723595D01*
X169179738Y-85628357D02*
X169179738Y-85961690D01*
X169060691Y-85437881D02*
X168941643Y-85795024D01*
X169251167Y-85795024D01*
X168763167Y-87422190D02*
X168596500Y-87184095D01*
X168477453Y-87422190D02*
X168477453Y-86922190D01*
X168667929Y-86922190D01*
X168715548Y-86946000D01*
X168739357Y-86969810D01*
X168763167Y-87017429D01*
X168763167Y-87088857D01*
X168739357Y-87136476D01*
X168715548Y-87160286D01*
X168667929Y-87184095D01*
X168477453Y-87184095D01*
X169215548Y-86922190D02*
X168977453Y-86922190D01*
X168953643Y-87160286D01*
X168977453Y-87136476D01*
X169025072Y-87112667D01*
X169144119Y-87112667D01*
X169191738Y-87136476D01*
X169215548Y-87160286D01*
X169239357Y-87207905D01*
X169239357Y-87326952D01*
X169215548Y-87374571D01*
X169191738Y-87398381D01*
X169144119Y-87422190D01*
X169025072Y-87422190D01*
X168977453Y-87398381D01*
X168953643Y-87374571D01*
X148633667Y-77569190D02*
X148467000Y-77331095D01*
X148347953Y-77569190D02*
X148347953Y-77069190D01*
X148538429Y-77069190D01*
X148586048Y-77093000D01*
X148609857Y-77116810D01*
X148633667Y-77164429D01*
X148633667Y-77235857D01*
X148609857Y-77283476D01*
X148586048Y-77307286D01*
X148538429Y-77331095D01*
X148347953Y-77331095D01*
X149062238Y-77069190D02*
X148967000Y-77069190D01*
X148919381Y-77093000D01*
X148895572Y-77116810D01*
X148847953Y-77188238D01*
X148824143Y-77283476D01*
X148824143Y-77473952D01*
X148847953Y-77521571D01*
X148871762Y-77545381D01*
X148919381Y-77569190D01*
X149014619Y-77569190D01*
X149062238Y-77545381D01*
X149086048Y-77521571D01*
X149109857Y-77473952D01*
X149109857Y-77354905D01*
X149086048Y-77307286D01*
X149062238Y-77283476D01*
X149014619Y-77259667D01*
X148919381Y-77259667D01*
X148871762Y-77283476D01*
X148847953Y-77307286D01*
X148824143Y-77354905D01*
X130909190Y-96603333D02*
X130671095Y-96770000D01*
X130909190Y-96889047D02*
X130409190Y-96889047D01*
X130409190Y-96698571D01*
X130433000Y-96650952D01*
X130456810Y-96627143D01*
X130504429Y-96603333D01*
X130575857Y-96603333D01*
X130623476Y-96627143D01*
X130647286Y-96650952D01*
X130671095Y-96698571D01*
X130671095Y-96889047D01*
X130409190Y-96436666D02*
X130409190Y-96103333D01*
X130909190Y-96317619D01*
X145641190Y-100032333D02*
X145403095Y-100199000D01*
X145641190Y-100318047D02*
X145141190Y-100318047D01*
X145141190Y-100127571D01*
X145165000Y-100079952D01*
X145188810Y-100056143D01*
X145236429Y-100032333D01*
X145307857Y-100032333D01*
X145355476Y-100056143D01*
X145379286Y-100079952D01*
X145403095Y-100127571D01*
X145403095Y-100318047D01*
X145355476Y-99746619D02*
X145331667Y-99794238D01*
X145307857Y-99818047D01*
X145260238Y-99841857D01*
X145236429Y-99841857D01*
X145188810Y-99818047D01*
X145165000Y-99794238D01*
X145141190Y-99746619D01*
X145141190Y-99651381D01*
X145165000Y-99603762D01*
X145188810Y-99579952D01*
X145236429Y-99556143D01*
X145260238Y-99556143D01*
X145307857Y-99579952D01*
X145331667Y-99603762D01*
X145355476Y-99651381D01*
X145355476Y-99746619D01*
X145379286Y-99794238D01*
X145403095Y-99818047D01*
X145450714Y-99841857D01*
X145545952Y-99841857D01*
X145593571Y-99818047D01*
X145617381Y-99794238D01*
X145641190Y-99746619D01*
X145641190Y-99651381D01*
X145617381Y-99603762D01*
X145593571Y-99579952D01*
X145545952Y-99556143D01*
X145450714Y-99556143D01*
X145403095Y-99579952D01*
X145379286Y-99603762D01*
X145355476Y-99651381D01*
X164437190Y-100032333D02*
X164199095Y-100199000D01*
X164437190Y-100318047D02*
X163937190Y-100318047D01*
X163937190Y-100127571D01*
X163961000Y-100079952D01*
X163984810Y-100056143D01*
X164032429Y-100032333D01*
X164103857Y-100032333D01*
X164151476Y-100056143D01*
X164175286Y-100079952D01*
X164199095Y-100127571D01*
X164199095Y-100318047D01*
X164437190Y-99794238D02*
X164437190Y-99699000D01*
X164413381Y-99651381D01*
X164389571Y-99627571D01*
X164318143Y-99579952D01*
X164222905Y-99556143D01*
X164032429Y-99556143D01*
X163984810Y-99579952D01*
X163961000Y-99603762D01*
X163937190Y-99651381D01*
X163937190Y-99746619D01*
X163961000Y-99794238D01*
X163984810Y-99818047D01*
X164032429Y-99841857D01*
X164151476Y-99841857D01*
X164199095Y-99818047D01*
X164222905Y-99794238D01*
X164246714Y-99746619D01*
X164246714Y-99651381D01*
X164222905Y-99603762D01*
X164199095Y-99579952D01*
X164151476Y-99556143D01*
X134123953Y-97889190D02*
X134123953Y-97389190D01*
X134243000Y-97389190D01*
X134314429Y-97413000D01*
X134362048Y-97460619D01*
X134385857Y-97508238D01*
X134409667Y-97603476D01*
X134409667Y-97674905D01*
X134385857Y-97770143D01*
X134362048Y-97817762D01*
X134314429Y-97865381D01*
X134243000Y-97889190D01*
X134123953Y-97889190D01*
X134838238Y-97555857D02*
X134838238Y-97889190D01*
X134719191Y-97365381D02*
X134600143Y-97722524D01*
X134909667Y-97722524D01*
X152919953Y-98143190D02*
X152919953Y-97643190D01*
X153039000Y-97643190D01*
X153110429Y-97667000D01*
X153158048Y-97714619D01*
X153181857Y-97762238D01*
X153205667Y-97857476D01*
X153205667Y-97928905D01*
X153181857Y-98024143D01*
X153158048Y-98071762D01*
X153110429Y-98119381D01*
X153039000Y-98143190D01*
X152919953Y-98143190D01*
X153658048Y-97643190D02*
X153419953Y-97643190D01*
X153396143Y-97881286D01*
X153419953Y-97857476D01*
X153467572Y-97833667D01*
X153586619Y-97833667D01*
X153634238Y-97857476D01*
X153658048Y-97881286D01*
X153681857Y-97928905D01*
X153681857Y-98047952D01*
X153658048Y-98095571D01*
X153634238Y-98119381D01*
X153586619Y-98143190D01*
X153467572Y-98143190D01*
X153419953Y-98119381D01*
X153396143Y-98095571D01*
X171715953Y-98143190D02*
X171715953Y-97643190D01*
X171835000Y-97643190D01*
X171906429Y-97667000D01*
X171954048Y-97714619D01*
X171977857Y-97762238D01*
X172001667Y-97857476D01*
X172001667Y-97928905D01*
X171977857Y-98024143D01*
X171954048Y-98071762D01*
X171906429Y-98119381D01*
X171835000Y-98143190D01*
X171715953Y-98143190D01*
X172430238Y-97643190D02*
X172335000Y-97643190D01*
X172287381Y-97667000D01*
X172263572Y-97690810D01*
X172215953Y-97762238D01*
X172192143Y-97857476D01*
X172192143Y-98047952D01*
X172215953Y-98095571D01*
X172239762Y-98119381D01*
X172287381Y-98143190D01*
X172382619Y-98143190D01*
X172430238Y-98119381D01*
X172454048Y-98095571D01*
X172477857Y-98047952D01*
X172477857Y-97928905D01*
X172454048Y-97881286D01*
X172430238Y-97857476D01*
X172382619Y-97833667D01*
X172287381Y-97833667D01*
X172239762Y-97857476D01*
X172215953Y-97881286D01*
X172192143Y-97928905D01*
X129365381Y-97238310D02*
X129317762Y-97214500D01*
X129270143Y-97166881D01*
X129198714Y-97095452D01*
X129151095Y-97071643D01*
X129103476Y-97071643D01*
X129127286Y-97190690D02*
X129079667Y-97166881D01*
X129032048Y-97119262D01*
X129008238Y-97024024D01*
X129008238Y-96857357D01*
X129032048Y-96762119D01*
X129079667Y-96714500D01*
X129127286Y-96690690D01*
X129222524Y-96690690D01*
X129270143Y-96714500D01*
X129317762Y-96762119D01*
X129341571Y-96857357D01*
X129341571Y-97024024D01*
X129317762Y-97119262D01*
X129270143Y-97166881D01*
X129222524Y-97190690D01*
X129127286Y-97190690D01*
X129817762Y-97190690D02*
X129532048Y-97190690D01*
X129674905Y-97190690D02*
X129674905Y-96690690D01*
X129627286Y-96762119D01*
X129579667Y-96809738D01*
X129532048Y-96833548D01*
X147907381Y-97428810D02*
X147859762Y-97405000D01*
X147812143Y-97357381D01*
X147740714Y-97285952D01*
X147693095Y-97262143D01*
X147645476Y-97262143D01*
X147669286Y-97381190D02*
X147621667Y-97357381D01*
X147574048Y-97309762D01*
X147550238Y-97214524D01*
X147550238Y-97047857D01*
X147574048Y-96952619D01*
X147621667Y-96905000D01*
X147669286Y-96881190D01*
X147764524Y-96881190D01*
X147812143Y-96905000D01*
X147859762Y-96952619D01*
X147883571Y-97047857D01*
X147883571Y-97214524D01*
X147859762Y-97309762D01*
X147812143Y-97357381D01*
X147764524Y-97381190D01*
X147669286Y-97381190D01*
X148074048Y-96928810D02*
X148097858Y-96905000D01*
X148145477Y-96881190D01*
X148264524Y-96881190D01*
X148312143Y-96905000D01*
X148335953Y-96928810D01*
X148359762Y-96976429D01*
X148359762Y-97024048D01*
X148335953Y-97095476D01*
X148050239Y-97381190D01*
X148359762Y-97381190D01*
X166957381Y-97428810D02*
X166909762Y-97405000D01*
X166862143Y-97357381D01*
X166790714Y-97285952D01*
X166743095Y-97262143D01*
X166695476Y-97262143D01*
X166719286Y-97381190D02*
X166671667Y-97357381D01*
X166624048Y-97309762D01*
X166600238Y-97214524D01*
X166600238Y-97047857D01*
X166624048Y-96952619D01*
X166671667Y-96905000D01*
X166719286Y-96881190D01*
X166814524Y-96881190D01*
X166862143Y-96905000D01*
X166909762Y-96952619D01*
X166933571Y-97047857D01*
X166933571Y-97214524D01*
X166909762Y-97309762D01*
X166862143Y-97357381D01*
X166814524Y-97381190D01*
X166719286Y-97381190D01*
X167100239Y-96881190D02*
X167409762Y-96881190D01*
X167243096Y-97071667D01*
X167314524Y-97071667D01*
X167362143Y-97095476D01*
X167385953Y-97119286D01*
X167409762Y-97166905D01*
X167409762Y-97285952D01*
X167385953Y-97333571D01*
X167362143Y-97357381D01*
X167314524Y-97381190D01*
X167171667Y-97381190D01*
X167124048Y-97357381D01*
X167100239Y-97333571D01*
X176259372Y-70558790D02*
X176092705Y-70320695D01*
X175973658Y-70558790D02*
X175973658Y-70058790D01*
X176164134Y-70058790D01*
X176211753Y-70082600D01*
X176235562Y-70106410D01*
X176259372Y-70154029D01*
X176259372Y-70225457D01*
X176235562Y-70273076D01*
X176211753Y-70296886D01*
X176164134Y-70320695D01*
X175973658Y-70320695D01*
X176735562Y-70558790D02*
X176449848Y-70558790D01*
X176592705Y-70558790D02*
X176592705Y-70058790D01*
X176545086Y-70130219D01*
X176497467Y-70177838D01*
X176449848Y-70201648D01*
X177045086Y-70058790D02*
X177092705Y-70058790D01*
X177140324Y-70082600D01*
X177164133Y-70106410D01*
X177187943Y-70154029D01*
X177211752Y-70249267D01*
X177211752Y-70368314D01*
X177187943Y-70463552D01*
X177164133Y-70511171D01*
X177140324Y-70534981D01*
X177092705Y-70558790D01*
X177045086Y-70558790D01*
X176997467Y-70534981D01*
X176973657Y-70511171D01*
X176949848Y-70463552D01*
X176926038Y-70368314D01*
X176926038Y-70249267D01*
X176949848Y-70154029D01*
X176973657Y-70106410D01*
X176997467Y-70082600D01*
X177045086Y-70058790D01*
X168232972Y-70507990D02*
X168066305Y-70269895D01*
X167947258Y-70507990D02*
X167947258Y-70007990D01*
X168137734Y-70007990D01*
X168185353Y-70031800D01*
X168209162Y-70055610D01*
X168232972Y-70103229D01*
X168232972Y-70174657D01*
X168209162Y-70222276D01*
X168185353Y-70246086D01*
X168137734Y-70269895D01*
X167947258Y-70269895D01*
X168709162Y-70507990D02*
X168423448Y-70507990D01*
X168566305Y-70507990D02*
X168566305Y-70007990D01*
X168518686Y-70079419D01*
X168471067Y-70127038D01*
X168423448Y-70150848D01*
X169185352Y-70507990D02*
X168899638Y-70507990D01*
X169042495Y-70507990D02*
X169042495Y-70007990D01*
X168994876Y-70079419D01*
X168947257Y-70127038D01*
X168899638Y-70150848D01*
X160409772Y-70558790D02*
X160243105Y-70320695D01*
X160124058Y-70558790D02*
X160124058Y-70058790D01*
X160314534Y-70058790D01*
X160362153Y-70082600D01*
X160385962Y-70106410D01*
X160409772Y-70154029D01*
X160409772Y-70225457D01*
X160385962Y-70273076D01*
X160362153Y-70296886D01*
X160314534Y-70320695D01*
X160124058Y-70320695D01*
X160885962Y-70558790D02*
X160600248Y-70558790D01*
X160743105Y-70558790D02*
X160743105Y-70058790D01*
X160695486Y-70130219D01*
X160647867Y-70177838D01*
X160600248Y-70201648D01*
X161076438Y-70106410D02*
X161100248Y-70082600D01*
X161147867Y-70058790D01*
X161266914Y-70058790D01*
X161314533Y-70082600D01*
X161338343Y-70106410D01*
X161362152Y-70154029D01*
X161362152Y-70201648D01*
X161338343Y-70273076D01*
X161052629Y-70558790D01*
X161362152Y-70558790D01*
X152535772Y-70507990D02*
X152369105Y-70269895D01*
X152250058Y-70507990D02*
X152250058Y-70007990D01*
X152440534Y-70007990D01*
X152488153Y-70031800D01*
X152511962Y-70055610D01*
X152535772Y-70103229D01*
X152535772Y-70174657D01*
X152511962Y-70222276D01*
X152488153Y-70246086D01*
X152440534Y-70269895D01*
X152250058Y-70269895D01*
X153011962Y-70507990D02*
X152726248Y-70507990D01*
X152869105Y-70507990D02*
X152869105Y-70007990D01*
X152821486Y-70079419D01*
X152773867Y-70127038D01*
X152726248Y-70150848D01*
X153178629Y-70007990D02*
X153488152Y-70007990D01*
X153321486Y-70198467D01*
X153392914Y-70198467D01*
X153440533Y-70222276D01*
X153464343Y-70246086D01*
X153488152Y-70293705D01*
X153488152Y-70412752D01*
X153464343Y-70460371D01*
X153440533Y-70484181D01*
X153392914Y-70507990D01*
X153250057Y-70507990D01*
X153202438Y-70484181D01*
X153178629Y-70460371D01*
X145796048Y-63107690D02*
X145796048Y-63512452D01*
X145819857Y-63560071D01*
X145843667Y-63583881D01*
X145891286Y-63607690D01*
X145986524Y-63607690D01*
X146034143Y-63583881D01*
X146057952Y-63560071D01*
X146081762Y-63512452D01*
X146081762Y-63107690D01*
X146581762Y-63607690D02*
X146296048Y-63607690D01*
X146438905Y-63607690D02*
X146438905Y-63107690D01*
X146391286Y-63179119D01*
X146343667Y-63226738D01*
X146296048Y-63250548D01*
X156034548Y-93409190D02*
X156034548Y-93813952D01*
X156058357Y-93861571D01*
X156082167Y-93885381D01*
X156129786Y-93909190D01*
X156225024Y-93909190D01*
X156272643Y-93885381D01*
X156296452Y-93861571D01*
X156320262Y-93813952D01*
X156320262Y-93409190D01*
X156534548Y-93456810D02*
X156558358Y-93433000D01*
X156605977Y-93409190D01*
X156725024Y-93409190D01*
X156772643Y-93433000D01*
X156796453Y-93456810D01*
X156820262Y-93504429D01*
X156820262Y-93552048D01*
X156796453Y-93623476D01*
X156510739Y-93909190D01*
X156820262Y-93909190D01*
D13*
X156343381Y-114553928D02*
X155867190Y-114887262D01*
X156343381Y-115125357D02*
X155343381Y-115125357D01*
X155343381Y-114744404D01*
X155391000Y-114649166D01*
X155438619Y-114601547D01*
X155533857Y-114553928D01*
X155676714Y-114553928D01*
X155771952Y-114601547D01*
X155819571Y-114649166D01*
X155867190Y-114744404D01*
X155867190Y-115125357D01*
X156343381Y-113649166D02*
X156343381Y-114125357D01*
X155343381Y-114125357D01*
X155438619Y-113363452D02*
X155391000Y-113315833D01*
X155343381Y-113220595D01*
X155343381Y-112982499D01*
X155391000Y-112887261D01*
X155438619Y-112839642D01*
X155533857Y-112792023D01*
X155629095Y-112792023D01*
X155771952Y-112839642D01*
X156343381Y-113411071D01*
X156343381Y-112792023D01*
X175139381Y-114561928D02*
X174663190Y-114895262D01*
X175139381Y-115133357D02*
X174139381Y-115133357D01*
X174139381Y-114752404D01*
X174187000Y-114657166D01*
X174234619Y-114609547D01*
X174329857Y-114561928D01*
X174472714Y-114561928D01*
X174567952Y-114609547D01*
X174615571Y-114657166D01*
X174663190Y-114752404D01*
X174663190Y-115133357D01*
X175139381Y-113657166D02*
X175139381Y-114133357D01*
X174139381Y-114133357D01*
X174139381Y-113419071D02*
X174139381Y-112800023D01*
X174520333Y-113133357D01*
X174520333Y-112990499D01*
X174567952Y-112895261D01*
X174615571Y-112847642D01*
X174710810Y-112800023D01*
X174948905Y-112800023D01*
X175044143Y-112847642D01*
X175091762Y-112895261D01*
X175139381Y-112990499D01*
X175139381Y-113276214D01*
X175091762Y-113371452D01*
X175044143Y-113419071D01*
D15*
X177598381Y-77553666D02*
X177622190Y-77482237D01*
X177622190Y-77363190D01*
X177598381Y-77315571D01*
X177574571Y-77291761D01*
X177526952Y-77267952D01*
X177479333Y-77267952D01*
X177431714Y-77291761D01*
X177407905Y-77315571D01*
X177384095Y-77363190D01*
X177360286Y-77458428D01*
X177336476Y-77506047D01*
X177312667Y-77529856D01*
X177265048Y-77553666D01*
X177217429Y-77553666D01*
X177169810Y-77529856D01*
X177146000Y-77506047D01*
X177122190Y-77458428D01*
X177122190Y-77339380D01*
X177146000Y-77267952D01*
X177122190Y-77101285D02*
X177622190Y-76982238D01*
X177265048Y-76887000D01*
X177622190Y-76791762D01*
X177122190Y-76672714D01*
X177622190Y-76220333D02*
X177622190Y-76506047D01*
X177622190Y-76363190D02*
X177122190Y-76363190D01*
X177193619Y-76410809D01*
X177241238Y-76458428D01*
X177265048Y-76506047D01*
X175228334Y-58495381D02*
X175299763Y-58519190D01*
X175418810Y-58519190D01*
X175466429Y-58495381D01*
X175490239Y-58471571D01*
X175514048Y-58423952D01*
X175514048Y-58376333D01*
X175490239Y-58328714D01*
X175466429Y-58304905D01*
X175418810Y-58281095D01*
X175323572Y-58257286D01*
X175275953Y-58233476D01*
X175252144Y-58209667D01*
X175228334Y-58162048D01*
X175228334Y-58114429D01*
X175252144Y-58066810D01*
X175275953Y-58043000D01*
X175323572Y-58019190D01*
X175442620Y-58019190D01*
X175514048Y-58043000D01*
X175680715Y-58019190D02*
X175799762Y-58519190D01*
X175895000Y-58162048D01*
X175990238Y-58519190D01*
X176109286Y-58019190D01*
X176275953Y-58066810D02*
X176299763Y-58043000D01*
X176347382Y-58019190D01*
X176466429Y-58019190D01*
X176514048Y-58043000D01*
X176537858Y-58066810D01*
X176561667Y-58114429D01*
X176561667Y-58162048D01*
X176537858Y-58233476D01*
X176252144Y-58519190D01*
X176561667Y-58519190D01*
X167354334Y-58495381D02*
X167425763Y-58519190D01*
X167544810Y-58519190D01*
X167592429Y-58495381D01*
X167616239Y-58471571D01*
X167640048Y-58423952D01*
X167640048Y-58376333D01*
X167616239Y-58328714D01*
X167592429Y-58304905D01*
X167544810Y-58281095D01*
X167449572Y-58257286D01*
X167401953Y-58233476D01*
X167378144Y-58209667D01*
X167354334Y-58162048D01*
X167354334Y-58114429D01*
X167378144Y-58066810D01*
X167401953Y-58043000D01*
X167449572Y-58019190D01*
X167568620Y-58019190D01*
X167640048Y-58043000D01*
X167806715Y-58019190D02*
X167925762Y-58519190D01*
X168021000Y-58162048D01*
X168116238Y-58519190D01*
X168235286Y-58019190D01*
X168378144Y-58019190D02*
X168687667Y-58019190D01*
X168521001Y-58209667D01*
X168592429Y-58209667D01*
X168640048Y-58233476D01*
X168663858Y-58257286D01*
X168687667Y-58304905D01*
X168687667Y-58423952D01*
X168663858Y-58471571D01*
X168640048Y-58495381D01*
X168592429Y-58519190D01*
X168449572Y-58519190D01*
X168401953Y-58495381D01*
X168378144Y-58471571D01*
X159480334Y-58495381D02*
X159551763Y-58519190D01*
X159670810Y-58519190D01*
X159718429Y-58495381D01*
X159742239Y-58471571D01*
X159766048Y-58423952D01*
X159766048Y-58376333D01*
X159742239Y-58328714D01*
X159718429Y-58304905D01*
X159670810Y-58281095D01*
X159575572Y-58257286D01*
X159527953Y-58233476D01*
X159504144Y-58209667D01*
X159480334Y-58162048D01*
X159480334Y-58114429D01*
X159504144Y-58066810D01*
X159527953Y-58043000D01*
X159575572Y-58019190D01*
X159694620Y-58019190D01*
X159766048Y-58043000D01*
X159932715Y-58019190D02*
X160051762Y-58519190D01*
X160147000Y-58162048D01*
X160242238Y-58519190D01*
X160361286Y-58019190D01*
X160766048Y-58185857D02*
X160766048Y-58519190D01*
X160647001Y-57995381D02*
X160527953Y-58352524D01*
X160837477Y-58352524D01*
X151606334Y-58495381D02*
X151677763Y-58519190D01*
X151796810Y-58519190D01*
X151844429Y-58495381D01*
X151868239Y-58471571D01*
X151892048Y-58423952D01*
X151892048Y-58376333D01*
X151868239Y-58328714D01*
X151844429Y-58304905D01*
X151796810Y-58281095D01*
X151701572Y-58257286D01*
X151653953Y-58233476D01*
X151630144Y-58209667D01*
X151606334Y-58162048D01*
X151606334Y-58114429D01*
X151630144Y-58066810D01*
X151653953Y-58043000D01*
X151701572Y-58019190D01*
X151820620Y-58019190D01*
X151892048Y-58043000D01*
X152058715Y-58019190D02*
X152177762Y-58519190D01*
X152273000Y-58162048D01*
X152368238Y-58519190D01*
X152487286Y-58019190D01*
X152915858Y-58019190D02*
X152677763Y-58019190D01*
X152653953Y-58257286D01*
X152677763Y-58233476D01*
X152725382Y-58209667D01*
X152844429Y-58209667D01*
X152892048Y-58233476D01*
X152915858Y-58257286D01*
X152939667Y-58304905D01*
X152939667Y-58423952D01*
X152915858Y-58471571D01*
X152892048Y-58495381D01*
X152844429Y-58519190D01*
X152725382Y-58519190D01*
X152677763Y-58495381D01*
X152653953Y-58471571D01*
X130120190Y-59375166D02*
X130477333Y-59375166D01*
X130548762Y-59398976D01*
X130596381Y-59446595D01*
X130620190Y-59518023D01*
X130620190Y-59565642D01*
X130620190Y-58875167D02*
X130620190Y-59160881D01*
X130620190Y-59018024D02*
X130120190Y-59018024D01*
X130191619Y-59065643D01*
X130239238Y-59113262D01*
X130263048Y-59160881D01*
D13*
X146633667Y-124590781D02*
X146633667Y-125305067D01*
X146586047Y-125447924D01*
X146490809Y-125543162D01*
X146347952Y-125590781D01*
X146252714Y-125590781D01*
X147586048Y-124590781D02*
X147109857Y-124590781D01*
X147062238Y-125066971D01*
X147109857Y-125019352D01*
X147205095Y-124971733D01*
X147443191Y-124971733D01*
X147538429Y-125019352D01*
X147586048Y-125066971D01*
X147633667Y-125162210D01*
X147633667Y-125400305D01*
X147586048Y-125495543D01*
X147538429Y-125543162D01*
X147443191Y-125590781D01*
X147205095Y-125590781D01*
X147109857Y-125543162D01*
X147062238Y-125495543D01*
X165272067Y-124590781D02*
X165272067Y-125305067D01*
X165224447Y-125447924D01*
X165129209Y-125543162D01*
X164986352Y-125590781D01*
X164891114Y-125590781D01*
X166176829Y-124590781D02*
X165986352Y-124590781D01*
X165891114Y-124638400D01*
X165843495Y-124686019D01*
X165748257Y-124828876D01*
X165700638Y-125019352D01*
X165700638Y-125400305D01*
X165748257Y-125495543D01*
X165795876Y-125543162D01*
X165891114Y-125590781D01*
X166081591Y-125590781D01*
X166176829Y-125543162D01*
X166224448Y-125495543D01*
X166272067Y-125400305D01*
X166272067Y-125162210D01*
X166224448Y-125066971D01*
X166176829Y-125019352D01*
X166081591Y-124971733D01*
X165891114Y-124971733D01*
X165795876Y-125019352D01*
X165748257Y-125066971D01*
X165700638Y-125162210D01*
D15*
X157368906Y-72505095D02*
X157368906Y-72743190D01*
X157202239Y-72243190D02*
X157368906Y-72505095D01*
X157535572Y-72243190D01*
X157964143Y-72743190D02*
X157678429Y-72743190D01*
X157821286Y-72743190D02*
X157821286Y-72243190D01*
X157773667Y-72314619D01*
X157726048Y-72362238D01*
X157678429Y-72386048D01*
X141834371Y-76064228D02*
X141858181Y-76088038D01*
X141881990Y-76159466D01*
X141881990Y-76207085D01*
X141858181Y-76278514D01*
X141810562Y-76326133D01*
X141762943Y-76349942D01*
X141667705Y-76373752D01*
X141596276Y-76373752D01*
X141501038Y-76349942D01*
X141453419Y-76326133D01*
X141405800Y-76278514D01*
X141381990Y-76207085D01*
X141381990Y-76159466D01*
X141405800Y-76088038D01*
X141429610Y-76064228D01*
X141881990Y-75588038D02*
X141881990Y-75873752D01*
X141881990Y-75730895D02*
X141381990Y-75730895D01*
X141453419Y-75778514D01*
X141501038Y-75826133D01*
X141524848Y-75873752D01*
X141381990Y-75278514D02*
X141381990Y-75230895D01*
X141405800Y-75183276D01*
X141429610Y-75159467D01*
X141477229Y-75135657D01*
X141572467Y-75111848D01*
X141691514Y-75111848D01*
X141786752Y-75135657D01*
X141834371Y-75159467D01*
X141858181Y-75183276D01*
X141881990Y-75230895D01*
X141881990Y-75278514D01*
X141858181Y-75326133D01*
X141834371Y-75349943D01*
X141786752Y-75373752D01*
X141691514Y-75397562D01*
X141572467Y-75397562D01*
X141477229Y-75373752D01*
X141429610Y-75349943D01*
X141405800Y-75326133D01*
X141381990Y-75278514D01*
M02*
