G04 #@! TF.FileFunction,Copper,L2,Bot,Signal*
%FSLAX46Y46*%
G04 Gerber Fmt 4.6, Leading zero omitted, Abs format (unit mm)*
G04 Created by KiCad (PCBNEW 4.0.6) date 04/22/17 16:33:41*
%MOMM*%
%LPD*%
G01*
G04 APERTURE LIST*
%ADD10C,0.100000*%
%ADD11C,2.300000*%
%ADD12R,1.700000X1.700000*%
%ADD13O,1.700000X1.700000*%
%ADD14O,0.950000X1.250000*%
%ADD15O,1.550000X1.000000*%
%ADD16C,2.000000*%
%ADD17R,3.500000X3.500000*%
%ADD18C,2.400000*%
%ADD19R,2.400000X2.400000*%
%ADD20R,1.600000X1.600000*%
%ADD21C,1.600000*%
%ADD22C,0.600000*%
%ADD23C,0.250000*%
%ADD24C,1.500000*%
%ADD25C,1.250000*%
%ADD26C,0.254000*%
G04 APERTURE END LIST*
D10*
D11*
X131541000Y-108122500D03*
X137541000Y-122872500D03*
X131541000Y-120322500D03*
X143541000Y-120322500D03*
X143541000Y-108122500D03*
D12*
X126047500Y-83756500D03*
D13*
X126047500Y-81216500D03*
X126047500Y-78676500D03*
X126047500Y-76136500D03*
X126047500Y-73596500D03*
X126047500Y-71056500D03*
X126047500Y-68516500D03*
D12*
X126047500Y-97599500D03*
D13*
X126047500Y-95059500D03*
X126047500Y-92519500D03*
X126047500Y-89979500D03*
X126047500Y-87439500D03*
D12*
X168783000Y-82613500D03*
D13*
X168783000Y-80073500D03*
X171323000Y-82613500D03*
X171323000Y-80073500D03*
X173863000Y-82613500D03*
X173863000Y-80073500D03*
D14*
X184641500Y-89939500D03*
X184641500Y-84939500D03*
D15*
X187341500Y-90939500D03*
X187341500Y-83939500D03*
D11*
X150241000Y-108132500D03*
X156241000Y-122882500D03*
X150241000Y-120332500D03*
X162241000Y-120332500D03*
X162241000Y-108132500D03*
X169037000Y-108140500D03*
X175037000Y-122890500D03*
X169037000Y-120340500D03*
X181037000Y-120340500D03*
X181037000Y-108140500D03*
D16*
X183896000Y-80137000D03*
X179396000Y-80137000D03*
X183896000Y-73637000D03*
X179396000Y-73637000D03*
X180522000Y-66636900D03*
X176022000Y-66636900D03*
X180522000Y-60136900D03*
X176022000Y-60136900D03*
X172521000Y-66636900D03*
X168021000Y-66636900D03*
X172521000Y-60136900D03*
X168021000Y-60136900D03*
X164647000Y-66636900D03*
X160147000Y-66636900D03*
X164647000Y-60136900D03*
X160147000Y-60136900D03*
X156773000Y-66636900D03*
X152273000Y-66636900D03*
X156773000Y-60136900D03*
X152273000Y-60136900D03*
D17*
X136144000Y-67658500D03*
X136144000Y-61658500D03*
X131444000Y-64658500D03*
D18*
X148717000Y-129438400D03*
D19*
X145217000Y-129438400D03*
D18*
X167355400Y-129438400D03*
D19*
X163855400Y-129438400D03*
D20*
X138557000Y-71795000D03*
D21*
X138557000Y-74295000D03*
D22*
X178244500Y-86550500D03*
X178244500Y-89154000D03*
X186753500Y-114808000D03*
X181165500Y-104203500D03*
X146964400Y-64617600D03*
X147040600Y-70459600D03*
X143002000Y-74980800D03*
X144119600Y-82753200D03*
X138430000Y-77698600D03*
X133934200Y-73253600D03*
X137972800Y-85242400D03*
X143916400Y-88798400D03*
X147015200Y-92176600D03*
X138658600Y-91821000D03*
X134061200Y-91821000D03*
X173151800Y-131343400D03*
X160248600Y-131191000D03*
X141224000Y-131191000D03*
X152019000Y-131191000D03*
X125044200Y-100507800D03*
X125095000Y-110871000D03*
X125653800Y-123190000D03*
X133934200Y-123063000D03*
X141097000Y-123012200D03*
X152679400Y-123113800D03*
X159715200Y-122910600D03*
X171678600Y-123012200D03*
X178866800Y-122910600D03*
X184658000Y-123342400D03*
X180898800Y-131038600D03*
X134061200Y-83566000D03*
X132080000Y-77546200D03*
X130403600Y-75006200D03*
X128524000Y-72364600D03*
X127381000Y-69799200D03*
X124485400Y-69748400D03*
X124561600Y-67614800D03*
X127838200Y-79857600D03*
X133858000Y-79857600D03*
X148717000Y-82092800D03*
X145034000Y-76352400D03*
X149352000Y-76022200D03*
X178498500Y-97345500D03*
X168910000Y-97218500D03*
X160337500Y-95377000D03*
X167894000Y-89979500D03*
X173672500Y-89217500D03*
X177863500Y-92011500D03*
X180911500Y-94297500D03*
X146685000Y-108077000D03*
X142240000Y-104013000D03*
X141351000Y-116078000D03*
X159956500Y-108077000D03*
X159956500Y-116205000D03*
X161734500Y-75628500D03*
X177355500Y-75628500D03*
X177292000Y-73533000D03*
X160274000Y-73596500D03*
X153225500Y-84074000D03*
X153225500Y-90233500D03*
X159512000Y-90233500D03*
X176530000Y-86550500D03*
X170751500Y-86360000D03*
X156921200Y-82143600D03*
X157835600Y-78994000D03*
X161544000Y-81076800D03*
X166573200Y-78282800D03*
X171246800Y-77901800D03*
X156133800Y-77698600D03*
X151511000Y-70154800D03*
X174015400Y-69164200D03*
X166166800Y-69164200D03*
X158318200Y-69189600D03*
X164541200Y-90424000D03*
X146532600Y-83032600D03*
X146532600Y-90246200D03*
D23*
X128143000Y-89662000D02*
X128143000Y-98996500D01*
X178244500Y-89154000D02*
X178244500Y-86550500D01*
X169037000Y-108140500D02*
X177228500Y-108140500D01*
X177228500Y-108140500D02*
X181165500Y-104203500D01*
X146964400Y-64617600D02*
X142824200Y-68757800D01*
X142824200Y-68757800D02*
X142824200Y-72517000D01*
X143002000Y-74980800D02*
X143002000Y-74498200D01*
X143002000Y-74498200D02*
X147040600Y-70459600D01*
X138430000Y-77698600D02*
X139065000Y-77698600D01*
X139065000Y-77698600D02*
X144119600Y-82753200D01*
X143916400Y-88798400D02*
X141528800Y-88798400D01*
X141528800Y-88798400D02*
X137972800Y-85242400D01*
X138658600Y-91821000D02*
X146659600Y-91821000D01*
X146659600Y-91821000D02*
X147015200Y-92176600D01*
X160248600Y-131191000D02*
X172999400Y-131191000D01*
X172999400Y-131191000D02*
X173151800Y-131343400D01*
X152019000Y-131191000D02*
X141224000Y-131191000D01*
X125095000Y-110871000D02*
X125095000Y-100558600D01*
X125095000Y-100558600D02*
X125044200Y-100507800D01*
X133934200Y-123063000D02*
X125780800Y-123063000D01*
X125780800Y-123063000D02*
X125653800Y-123190000D01*
X152679400Y-123113800D02*
X141198600Y-123113800D01*
X141198600Y-123113800D02*
X141097000Y-123012200D01*
X171678600Y-123012200D02*
X159816800Y-123012200D01*
X159816800Y-123012200D02*
X159715200Y-122910600D01*
X184658000Y-123342400D02*
X184226200Y-122910600D01*
X184226200Y-122910600D02*
X178866800Y-122910600D01*
X163855400Y-129438400D02*
X163855400Y-130888400D01*
X163855400Y-130888400D02*
X164005600Y-131038600D01*
X164005600Y-131038600D02*
X166698598Y-131038600D01*
X166698598Y-131038600D02*
X180898800Y-131038600D01*
X130403600Y-75006200D02*
X130403600Y-75869800D01*
X130403600Y-75869800D02*
X132080000Y-77546200D01*
X128524000Y-72364600D02*
X128524000Y-73126600D01*
X128524000Y-73126600D02*
X130403600Y-75006200D01*
X124485400Y-69748400D02*
X126478402Y-69748400D01*
X126478402Y-69748400D02*
X128524000Y-71793998D01*
X128524000Y-71793998D02*
X128524000Y-72364600D01*
X124561600Y-67614800D02*
X124561600Y-69672200D01*
X124561600Y-69672200D02*
X124485400Y-69748400D01*
X133858000Y-79857600D02*
X127838200Y-79857600D01*
X149352000Y-76022200D02*
X149021800Y-76352400D01*
X149021800Y-76352400D02*
X145034000Y-76352400D01*
X160337500Y-95377000D02*
X167068500Y-95377000D01*
X167068500Y-95377000D02*
X168910000Y-97218500D01*
X173672500Y-89217500D02*
X172910500Y-89979500D01*
X172910500Y-89979500D02*
X167894000Y-89979500D01*
X180911500Y-94297500D02*
X178625500Y-92011500D01*
X178625500Y-92011500D02*
X177863500Y-92011500D01*
X142240000Y-104013000D02*
X146304000Y-108077000D01*
X146304000Y-108077000D02*
X146685000Y-108077000D01*
X126047500Y-83756500D02*
X127317500Y-83756500D01*
X177292000Y-73533000D02*
X177292000Y-75565000D01*
X177292000Y-75565000D02*
X177355500Y-75628500D01*
X173863000Y-80073500D02*
X171691300Y-77901800D01*
X171691300Y-77901800D02*
X171246800Y-77901800D01*
D24*
X136144000Y-100725500D02*
X136144000Y-87274400D01*
X136144000Y-87274400D02*
X136144000Y-81724500D01*
D25*
X126047500Y-87439500D02*
X135978900Y-87439500D01*
D23*
X135978900Y-87439500D02*
X136144000Y-87274400D01*
D24*
X136144000Y-81724500D02*
X136144000Y-67658500D01*
D23*
X136017000Y-81851500D02*
X136144000Y-81724500D01*
D24*
X177673000Y-111506000D02*
X162369500Y-111506000D01*
X162369500Y-111506000D02*
X146924500Y-111506000D01*
X162241000Y-108132500D02*
X162241000Y-111377500D01*
D23*
X162241000Y-111377500D02*
X162369500Y-111506000D01*
D24*
X143541000Y-108122500D02*
X136144000Y-100725500D01*
X146924500Y-111506000D02*
X143541000Y-108122500D01*
X179887001Y-109291999D02*
X177673000Y-111506000D01*
X181037000Y-108140500D02*
X179887001Y-109290499D01*
D23*
X179887001Y-109290499D02*
X179887001Y-109291999D01*
X151511000Y-70154800D02*
X152476200Y-69189600D01*
X152476200Y-69189600D02*
X158318200Y-69189600D01*
X166166800Y-69164200D02*
X158343600Y-69164200D01*
X158343600Y-69164200D02*
X158318200Y-69189600D01*
X166166800Y-69164200D02*
X168732200Y-69164200D01*
X168732200Y-69164200D02*
X174015400Y-69164200D01*
X168783000Y-80073500D02*
X168783000Y-69215000D01*
X168783000Y-69215000D02*
X168732200Y-69164200D01*
X166141400Y-69189600D02*
X166166800Y-69164200D01*
X164541200Y-81584800D02*
X166052500Y-80073500D01*
X166052500Y-80073500D02*
X168783000Y-80073500D01*
X164541200Y-90424000D02*
X164541200Y-81584800D01*
X146532600Y-90246200D02*
X146532600Y-83032600D01*
D26*
G36*
X188115000Y-82922594D02*
X187743500Y-82804500D01*
X187468500Y-82804500D01*
X187468500Y-83812500D01*
X187488500Y-83812500D01*
X187488500Y-84066500D01*
X187468500Y-84066500D01*
X187468500Y-85074500D01*
X187743500Y-85074500D01*
X188115000Y-84956406D01*
X188115000Y-89922594D01*
X187743500Y-89804500D01*
X187468500Y-89804500D01*
X187468500Y-90812500D01*
X187488500Y-90812500D01*
X187488500Y-91066500D01*
X187468500Y-91066500D01*
X187468500Y-92074500D01*
X187743500Y-92074500D01*
X188115000Y-91956406D01*
X188115000Y-131821000D01*
X124535000Y-131821000D01*
X124535000Y-129473619D01*
X125089613Y-129473619D01*
X125429155Y-130295372D01*
X126057321Y-130924636D01*
X126878481Y-131265611D01*
X127767619Y-131266387D01*
X128589372Y-130926845D01*
X129218636Y-130298679D01*
X129559611Y-129477519D01*
X129560387Y-128588381D01*
X129415778Y-128238400D01*
X143369560Y-128238400D01*
X143369560Y-130638400D01*
X143413838Y-130873717D01*
X143552910Y-131089841D01*
X143765110Y-131234831D01*
X144017000Y-131285840D01*
X146417000Y-131285840D01*
X146652317Y-131241562D01*
X146868441Y-131102490D01*
X147013431Y-130890290D01*
X147064440Y-130638400D01*
X147064440Y-130244112D01*
X147160455Y-130476486D01*
X147676199Y-130993130D01*
X148350395Y-131273081D01*
X149080403Y-131273718D01*
X149755086Y-130994945D01*
X150271730Y-130479201D01*
X150551681Y-129805005D01*
X150551683Y-129801803D01*
X165520082Y-129801803D01*
X165798855Y-130476486D01*
X166314599Y-130993130D01*
X166988795Y-131273081D01*
X167718803Y-131273718D01*
X168393486Y-130994945D01*
X168910130Y-130479201D01*
X169190081Y-129805005D01*
X169190370Y-129473619D01*
X183089613Y-129473619D01*
X183429155Y-130295372D01*
X184057321Y-130924636D01*
X184878481Y-131265611D01*
X185767619Y-131266387D01*
X186589372Y-130926845D01*
X187218636Y-130298679D01*
X187559611Y-129477519D01*
X187560387Y-128588381D01*
X187220845Y-127766628D01*
X186592679Y-127137364D01*
X185771519Y-126796389D01*
X184882381Y-126795613D01*
X184060628Y-127135155D01*
X183431364Y-127763321D01*
X183090389Y-128584481D01*
X183089613Y-129473619D01*
X169190370Y-129473619D01*
X169190718Y-129074997D01*
X168911945Y-128400314D01*
X168396201Y-127883670D01*
X167722005Y-127603719D01*
X166991997Y-127603082D01*
X166317314Y-127881855D01*
X165800670Y-128397599D01*
X165520719Y-129071795D01*
X165520082Y-129801803D01*
X150551683Y-129801803D01*
X150552318Y-129074997D01*
X150273545Y-128400314D01*
X149757801Y-127883670D01*
X149083605Y-127603719D01*
X148353597Y-127603082D01*
X147678914Y-127881855D01*
X147162270Y-128397599D01*
X147064440Y-128633199D01*
X147064440Y-128238400D01*
X147020162Y-128003083D01*
X146881090Y-127786959D01*
X146668890Y-127641969D01*
X146417000Y-127590960D01*
X144017000Y-127590960D01*
X143781683Y-127635238D01*
X143565559Y-127774310D01*
X143420569Y-127986510D01*
X143369560Y-128238400D01*
X129415778Y-128238400D01*
X129220845Y-127766628D01*
X128592679Y-127137364D01*
X127771519Y-126796389D01*
X126882381Y-126795613D01*
X126060628Y-127135155D01*
X125431364Y-127763321D01*
X125090389Y-128584481D01*
X125089613Y-129473619D01*
X124535000Y-129473619D01*
X124535000Y-123226001D01*
X135755691Y-123226001D01*
X136026868Y-123882300D01*
X136528559Y-124384867D01*
X137184384Y-124657189D01*
X137894501Y-124657809D01*
X138550800Y-124386632D01*
X139053367Y-123884941D01*
X139322830Y-123236001D01*
X154455691Y-123236001D01*
X154726868Y-123892300D01*
X155228559Y-124394867D01*
X155884384Y-124667189D01*
X156594501Y-124667809D01*
X157250800Y-124396632D01*
X157753367Y-123894941D01*
X158023660Y-123244001D01*
X173251691Y-123244001D01*
X173522868Y-123900300D01*
X174024559Y-124402867D01*
X174680384Y-124675189D01*
X175390501Y-124675809D01*
X176046800Y-124404632D01*
X176549367Y-123902941D01*
X176821689Y-123247116D01*
X176822309Y-122536999D01*
X176551132Y-121880700D01*
X176049441Y-121378133D01*
X175393616Y-121105811D01*
X174683499Y-121105191D01*
X174027200Y-121376368D01*
X173524633Y-121878059D01*
X173252311Y-122533884D01*
X173251691Y-123244001D01*
X158023660Y-123244001D01*
X158025689Y-123239116D01*
X158026309Y-122528999D01*
X157755132Y-121872700D01*
X157253441Y-121370133D01*
X156597616Y-121097811D01*
X155887499Y-121097191D01*
X155231200Y-121368368D01*
X154728633Y-121870059D01*
X154456311Y-122525884D01*
X154455691Y-123236001D01*
X139322830Y-123236001D01*
X139325689Y-123229116D01*
X139326309Y-122518999D01*
X139055132Y-121862700D01*
X138553441Y-121360133D01*
X137897616Y-121087811D01*
X137187499Y-121087191D01*
X136531200Y-121358368D01*
X136028633Y-121860059D01*
X135756311Y-122515884D01*
X135755691Y-123226001D01*
X124535000Y-123226001D01*
X124535000Y-120676001D01*
X129755691Y-120676001D01*
X130026868Y-121332300D01*
X130528559Y-121834867D01*
X131184384Y-122107189D01*
X131894501Y-122107809D01*
X132550800Y-121836632D01*
X133053367Y-121334941D01*
X133325689Y-120679116D01*
X133325691Y-120676001D01*
X141755691Y-120676001D01*
X142026868Y-121332300D01*
X142528559Y-121834867D01*
X143184384Y-122107189D01*
X143894501Y-122107809D01*
X144550800Y-121836632D01*
X145053367Y-121334941D01*
X145322830Y-120686001D01*
X148455691Y-120686001D01*
X148726868Y-121342300D01*
X149228559Y-121844867D01*
X149884384Y-122117189D01*
X150594501Y-122117809D01*
X151250800Y-121846632D01*
X151753367Y-121344941D01*
X152025689Y-120689116D01*
X152025691Y-120686001D01*
X160455691Y-120686001D01*
X160726868Y-121342300D01*
X161228559Y-121844867D01*
X161884384Y-122117189D01*
X162594501Y-122117809D01*
X163250800Y-121846632D01*
X163753367Y-121344941D01*
X164023660Y-120694001D01*
X167251691Y-120694001D01*
X167522868Y-121350300D01*
X168024559Y-121852867D01*
X168680384Y-122125189D01*
X169390501Y-122125809D01*
X170046800Y-121854632D01*
X170549367Y-121352941D01*
X170821689Y-120697116D01*
X170821691Y-120694001D01*
X179251691Y-120694001D01*
X179522868Y-121350300D01*
X180024559Y-121852867D01*
X180680384Y-122125189D01*
X181390501Y-122125809D01*
X182046800Y-121854632D01*
X182549367Y-121352941D01*
X182821689Y-120697116D01*
X182822309Y-119986999D01*
X182551132Y-119330700D01*
X182049441Y-118828133D01*
X181393616Y-118555811D01*
X180683499Y-118555191D01*
X180027200Y-118826368D01*
X179524633Y-119328059D01*
X179252311Y-119983884D01*
X179251691Y-120694001D01*
X170821691Y-120694001D01*
X170822309Y-119986999D01*
X170551132Y-119330700D01*
X170049441Y-118828133D01*
X169393616Y-118555811D01*
X168683499Y-118555191D01*
X168027200Y-118826368D01*
X167524633Y-119328059D01*
X167252311Y-119983884D01*
X167251691Y-120694001D01*
X164023660Y-120694001D01*
X164025689Y-120689116D01*
X164026309Y-119978999D01*
X163755132Y-119322700D01*
X163253441Y-118820133D01*
X162597616Y-118547811D01*
X161887499Y-118547191D01*
X161231200Y-118818368D01*
X160728633Y-119320059D01*
X160456311Y-119975884D01*
X160455691Y-120686001D01*
X152025691Y-120686001D01*
X152026309Y-119978999D01*
X151755132Y-119322700D01*
X151253441Y-118820133D01*
X150597616Y-118547811D01*
X149887499Y-118547191D01*
X149231200Y-118818368D01*
X148728633Y-119320059D01*
X148456311Y-119975884D01*
X148455691Y-120686001D01*
X145322830Y-120686001D01*
X145325689Y-120679116D01*
X145326309Y-119968999D01*
X145055132Y-119312700D01*
X144553441Y-118810133D01*
X143897616Y-118537811D01*
X143187499Y-118537191D01*
X142531200Y-118808368D01*
X142028633Y-119310059D01*
X141756311Y-119965884D01*
X141755691Y-120676001D01*
X133325691Y-120676001D01*
X133326309Y-119968999D01*
X133055132Y-119312700D01*
X132553441Y-118810133D01*
X131897616Y-118537811D01*
X131187499Y-118537191D01*
X130531200Y-118808368D01*
X130028633Y-119310059D01*
X129756311Y-119965884D01*
X129755691Y-120676001D01*
X124535000Y-120676001D01*
X124535000Y-109383525D01*
X130459581Y-109383525D01*
X130576601Y-109665946D01*
X131240663Y-109917518D01*
X131950448Y-109895814D01*
X132505399Y-109665946D01*
X132622419Y-109383525D01*
X131541000Y-108302105D01*
X130459581Y-109383525D01*
X124535000Y-109383525D01*
X124535000Y-107822163D01*
X129745982Y-107822163D01*
X129767686Y-108531948D01*
X129997554Y-109086899D01*
X130279975Y-109203919D01*
X131361395Y-108122500D01*
X131720605Y-108122500D01*
X132802025Y-109203919D01*
X133084446Y-109086899D01*
X133336018Y-108422837D01*
X133314314Y-107713052D01*
X133084446Y-107158101D01*
X132802025Y-107041081D01*
X131720605Y-108122500D01*
X131361395Y-108122500D01*
X130279975Y-107041081D01*
X129997554Y-107158101D01*
X129745982Y-107822163D01*
X124535000Y-107822163D01*
X124535000Y-106861475D01*
X130459581Y-106861475D01*
X131541000Y-107942895D01*
X132622419Y-106861475D01*
X132505399Y-106579054D01*
X131841337Y-106327482D01*
X131131552Y-106349186D01*
X130576601Y-106579054D01*
X130459581Y-106861475D01*
X124535000Y-106861475D01*
X124535000Y-97885250D01*
X124562500Y-97885250D01*
X124562500Y-98575810D01*
X124659173Y-98809199D01*
X124837802Y-98987827D01*
X125071191Y-99084500D01*
X125761750Y-99084500D01*
X125920500Y-98925750D01*
X125920500Y-97726500D01*
X124721250Y-97726500D01*
X124562500Y-97885250D01*
X124535000Y-97885250D01*
X124535000Y-95067509D01*
X124646446Y-95627785D01*
X124968353Y-96109554D01*
X125012277Y-96138903D01*
X124837802Y-96211173D01*
X124659173Y-96389801D01*
X124562500Y-96623190D01*
X124562500Y-97313750D01*
X124721250Y-97472500D01*
X125920500Y-97472500D01*
X125920500Y-97452500D01*
X126174500Y-97452500D01*
X126174500Y-97472500D01*
X126194500Y-97472500D01*
X126194500Y-97726500D01*
X126174500Y-97726500D01*
X126174500Y-98925750D01*
X126333250Y-99084500D01*
X127023809Y-99084500D01*
X127257198Y-98987827D01*
X127383000Y-98862026D01*
X127383000Y-98996500D01*
X127440852Y-99287339D01*
X127605599Y-99533901D01*
X127852161Y-99698648D01*
X128143000Y-99756500D01*
X128433839Y-99698648D01*
X128680401Y-99533901D01*
X128845148Y-99287339D01*
X128903000Y-98996500D01*
X128903000Y-89662000D01*
X128845148Y-89371161D01*
X128680401Y-89124599D01*
X128433839Y-88959852D01*
X128143000Y-88902000D01*
X127852161Y-88959852D01*
X127605599Y-89124599D01*
X127440852Y-89371161D01*
X127436479Y-89393144D01*
X127126647Y-88929446D01*
X126797474Y-88709500D01*
X126812440Y-88699500D01*
X134759000Y-88699500D01*
X134759000Y-100725500D01*
X134864427Y-101255517D01*
X135164657Y-101704843D01*
X141755848Y-108296034D01*
X141755691Y-108476001D01*
X142026868Y-109132300D01*
X142528559Y-109634867D01*
X143184384Y-109907189D01*
X143367163Y-109907349D01*
X145945157Y-112485343D01*
X146394484Y-112785574D01*
X146924500Y-112891000D01*
X177673000Y-112891000D01*
X178203017Y-112785573D01*
X178652343Y-112485343D01*
X180866344Y-110271342D01*
X180869364Y-110266822D01*
X181210534Y-109925652D01*
X181390501Y-109925809D01*
X182046800Y-109654632D01*
X182549367Y-109152941D01*
X182821689Y-108497116D01*
X182822309Y-107786999D01*
X182551132Y-107130700D01*
X182049441Y-106628133D01*
X181393616Y-106355811D01*
X180683499Y-106355191D01*
X180027200Y-106626368D01*
X179524633Y-107128059D01*
X179252311Y-107783884D01*
X179252151Y-107966663D01*
X178907658Y-108311156D01*
X178904638Y-108315676D01*
X177099314Y-110121000D01*
X163626000Y-110121000D01*
X163626000Y-109401525D01*
X167955581Y-109401525D01*
X168072601Y-109683946D01*
X168736663Y-109935518D01*
X169446448Y-109913814D01*
X170001399Y-109683946D01*
X170118419Y-109401525D01*
X169037000Y-108320105D01*
X167955581Y-109401525D01*
X163626000Y-109401525D01*
X163626000Y-109272086D01*
X163753367Y-109144941D01*
X164025689Y-108489116D01*
X164026255Y-107840163D01*
X167241982Y-107840163D01*
X167263686Y-108549948D01*
X167493554Y-109104899D01*
X167775975Y-109221919D01*
X168857395Y-108140500D01*
X169216605Y-108140500D01*
X170298025Y-109221919D01*
X170580446Y-109104899D01*
X170832018Y-108440837D01*
X170810314Y-107731052D01*
X170580446Y-107176101D01*
X170298025Y-107059081D01*
X169216605Y-108140500D01*
X168857395Y-108140500D01*
X167775975Y-107059081D01*
X167493554Y-107176101D01*
X167241982Y-107840163D01*
X164026255Y-107840163D01*
X164026309Y-107778999D01*
X163755132Y-107122700D01*
X163512331Y-106879475D01*
X167955581Y-106879475D01*
X169037000Y-107960895D01*
X170118419Y-106879475D01*
X170001399Y-106597054D01*
X169337337Y-106345482D01*
X168627552Y-106367186D01*
X168072601Y-106597054D01*
X167955581Y-106879475D01*
X163512331Y-106879475D01*
X163253441Y-106620133D01*
X162597616Y-106347811D01*
X161887499Y-106347191D01*
X161231200Y-106618368D01*
X160728633Y-107120059D01*
X160456311Y-107775884D01*
X160455691Y-108486001D01*
X160726868Y-109142300D01*
X160856000Y-109271657D01*
X160856000Y-110121000D01*
X147498186Y-110121000D01*
X146770711Y-109393525D01*
X149159581Y-109393525D01*
X149276601Y-109675946D01*
X149940663Y-109927518D01*
X150650448Y-109905814D01*
X151205399Y-109675946D01*
X151322419Y-109393525D01*
X150241000Y-108312105D01*
X149159581Y-109393525D01*
X146770711Y-109393525D01*
X145326152Y-107948966D01*
X145326253Y-107832163D01*
X148445982Y-107832163D01*
X148467686Y-108541948D01*
X148697554Y-109096899D01*
X148979975Y-109213919D01*
X150061395Y-108132500D01*
X150420605Y-108132500D01*
X151502025Y-109213919D01*
X151784446Y-109096899D01*
X152036018Y-108432837D01*
X152014314Y-107723052D01*
X151784446Y-107168101D01*
X151502025Y-107051081D01*
X150420605Y-108132500D01*
X150061395Y-108132500D01*
X148979975Y-107051081D01*
X148697554Y-107168101D01*
X148445982Y-107832163D01*
X145326253Y-107832163D01*
X145326309Y-107768999D01*
X145055132Y-107112700D01*
X144814328Y-106871475D01*
X149159581Y-106871475D01*
X150241000Y-107952895D01*
X151322419Y-106871475D01*
X151205399Y-106589054D01*
X150541337Y-106337482D01*
X149831552Y-106359186D01*
X149276601Y-106589054D01*
X149159581Y-106871475D01*
X144814328Y-106871475D01*
X144553441Y-106610133D01*
X143897616Y-106337811D01*
X143714837Y-106337651D01*
X137529000Y-100151814D01*
X137529000Y-83217767D01*
X145597438Y-83217767D01*
X145739483Y-83561543D01*
X145772600Y-83594718D01*
X145772600Y-89683737D01*
X145740408Y-89715873D01*
X145597762Y-90059401D01*
X145597438Y-90431367D01*
X145739483Y-90775143D01*
X146002273Y-91038392D01*
X146345801Y-91181038D01*
X146717767Y-91181362D01*
X147061543Y-91039317D01*
X147324792Y-90776527D01*
X147467438Y-90432999D01*
X147467762Y-90061033D01*
X147325717Y-89717257D01*
X147292600Y-89684082D01*
X147292600Y-83595063D01*
X147324792Y-83562927D01*
X147467438Y-83219399D01*
X147467762Y-82847433D01*
X147325717Y-82503657D01*
X147062927Y-82240408D01*
X146719399Y-82097762D01*
X146347433Y-82097438D01*
X146003657Y-82239483D01*
X145740408Y-82502273D01*
X145597762Y-82845801D01*
X145597438Y-83217767D01*
X137529000Y-83217767D01*
X137529000Y-75332636D01*
X137613986Y-75417622D01*
X137728861Y-75302747D01*
X137802995Y-75548864D01*
X138340223Y-75741965D01*
X138910454Y-75714778D01*
X139311005Y-75548864D01*
X139385139Y-75302745D01*
X138557000Y-74474605D01*
X138542858Y-74488748D01*
X138363252Y-74309142D01*
X138377395Y-74295000D01*
X138736605Y-74295000D01*
X139564745Y-75123139D01*
X139810864Y-75049005D01*
X140003965Y-74511777D01*
X139976778Y-73941546D01*
X139810864Y-73540995D01*
X139564745Y-73466861D01*
X138736605Y-74295000D01*
X138377395Y-74295000D01*
X138363252Y-74280858D01*
X138542858Y-74101252D01*
X138557000Y-74115395D01*
X139385139Y-73287255D01*
X139370855Y-73239833D01*
X139592317Y-73198162D01*
X139808441Y-73059090D01*
X139953431Y-72846890D01*
X140004440Y-72595000D01*
X140004440Y-70995000D01*
X139960162Y-70759683D01*
X139821090Y-70543559D01*
X139608890Y-70398569D01*
X139357000Y-70347560D01*
X137757000Y-70347560D01*
X137529000Y-70390461D01*
X137529000Y-70339967D01*
X150575838Y-70339967D01*
X150717883Y-70683743D01*
X150980673Y-70946992D01*
X151324201Y-71089638D01*
X151696167Y-71089962D01*
X152039943Y-70947917D01*
X152303192Y-70685127D01*
X152445838Y-70341599D01*
X152445879Y-70294723D01*
X152791002Y-69949600D01*
X157755737Y-69949600D01*
X157787873Y-69981792D01*
X158131401Y-70124438D01*
X158503367Y-70124762D01*
X158847143Y-69982717D01*
X158905762Y-69924200D01*
X165604337Y-69924200D01*
X165636473Y-69956392D01*
X165980001Y-70099038D01*
X166351967Y-70099362D01*
X166695743Y-69957317D01*
X166728918Y-69924200D01*
X168023000Y-69924200D01*
X168023000Y-78800546D01*
X167732946Y-78994353D01*
X167519699Y-79313500D01*
X166052500Y-79313500D01*
X165761661Y-79371352D01*
X165515099Y-79536099D01*
X164003799Y-81047399D01*
X163839052Y-81293961D01*
X163781200Y-81584800D01*
X163781200Y-89861537D01*
X163749008Y-89893673D01*
X163606362Y-90237201D01*
X163606038Y-90609167D01*
X163748083Y-90952943D01*
X164010873Y-91216192D01*
X164354401Y-91358838D01*
X164726367Y-91359162D01*
X165011436Y-91241374D01*
X185972381Y-91241374D01*
X186174132Y-91652263D01*
X186514822Y-91939502D01*
X186939500Y-92074500D01*
X187214500Y-92074500D01*
X187214500Y-91066500D01*
X186098546Y-91066500D01*
X185972381Y-91241374D01*
X165011436Y-91241374D01*
X165070143Y-91217117D01*
X165333392Y-90954327D01*
X165476038Y-90610799D01*
X165476360Y-90240631D01*
X183540271Y-90240631D01*
X183681932Y-90650549D01*
X183969679Y-90975052D01*
X184343562Y-91158768D01*
X184514500Y-91032234D01*
X184514500Y-90066500D01*
X184768500Y-90066500D01*
X184768500Y-91032234D01*
X184939438Y-91158768D01*
X185313321Y-90975052D01*
X185601068Y-90650549D01*
X185605533Y-90637626D01*
X185972381Y-90637626D01*
X186098546Y-90812500D01*
X187214500Y-90812500D01*
X187214500Y-89804500D01*
X186939500Y-89804500D01*
X186514822Y-89939498D01*
X186174132Y-90226737D01*
X185972381Y-90637626D01*
X185605533Y-90637626D01*
X185742729Y-90240631D01*
X185594063Y-90066500D01*
X184768500Y-90066500D01*
X184514500Y-90066500D01*
X183688937Y-90066500D01*
X183540271Y-90240631D01*
X165476360Y-90240631D01*
X165476362Y-90238833D01*
X165334317Y-89895057D01*
X165301200Y-89861882D01*
X165301200Y-86735667D01*
X177309338Y-86735667D01*
X177451383Y-87079443D01*
X177484500Y-87112618D01*
X177484500Y-88591537D01*
X177452308Y-88623673D01*
X177309662Y-88967201D01*
X177309338Y-89339167D01*
X177451383Y-89682943D01*
X177714173Y-89946192D01*
X178057701Y-90088838D01*
X178429667Y-90089162D01*
X178773443Y-89947117D01*
X179036692Y-89684327D01*
X179055775Y-89638369D01*
X183540271Y-89638369D01*
X183688937Y-89812500D01*
X184514500Y-89812500D01*
X184514500Y-88846766D01*
X184768500Y-88846766D01*
X184768500Y-89812500D01*
X185594063Y-89812500D01*
X185742729Y-89638369D01*
X185601068Y-89228451D01*
X185313321Y-88903948D01*
X184939438Y-88720232D01*
X184768500Y-88846766D01*
X184514500Y-88846766D01*
X184343562Y-88720232D01*
X183969679Y-88903948D01*
X183681932Y-89228451D01*
X183540271Y-89638369D01*
X179055775Y-89638369D01*
X179179338Y-89340799D01*
X179179662Y-88968833D01*
X179037617Y-88625057D01*
X179004500Y-88591882D01*
X179004500Y-87112963D01*
X179036692Y-87080827D01*
X179179338Y-86737299D01*
X179179662Y-86365333D01*
X179037617Y-86021557D01*
X178774827Y-85758308D01*
X178431299Y-85615662D01*
X178059333Y-85615338D01*
X177715557Y-85757383D01*
X177452308Y-86020173D01*
X177309662Y-86363701D01*
X177309338Y-86735667D01*
X165301200Y-86735667D01*
X165301200Y-85240631D01*
X183540271Y-85240631D01*
X183681932Y-85650549D01*
X183969679Y-85975052D01*
X184343562Y-86158768D01*
X184514500Y-86032234D01*
X184514500Y-85066500D01*
X184768500Y-85066500D01*
X184768500Y-86032234D01*
X184939438Y-86158768D01*
X185313321Y-85975052D01*
X185601068Y-85650549D01*
X185742729Y-85240631D01*
X185594063Y-85066500D01*
X184768500Y-85066500D01*
X184514500Y-85066500D01*
X183688937Y-85066500D01*
X183540271Y-85240631D01*
X165301200Y-85240631D01*
X165301200Y-84638369D01*
X183540271Y-84638369D01*
X183688937Y-84812500D01*
X184514500Y-84812500D01*
X184514500Y-83846766D01*
X184768500Y-83846766D01*
X184768500Y-84812500D01*
X185594063Y-84812500D01*
X185742729Y-84638369D01*
X185605534Y-84241374D01*
X185972381Y-84241374D01*
X186174132Y-84652263D01*
X186514822Y-84939502D01*
X186939500Y-85074500D01*
X187214500Y-85074500D01*
X187214500Y-84066500D01*
X186098546Y-84066500D01*
X185972381Y-84241374D01*
X185605534Y-84241374D01*
X185601068Y-84228451D01*
X185313321Y-83903948D01*
X184939438Y-83720232D01*
X184768500Y-83846766D01*
X184514500Y-83846766D01*
X184343562Y-83720232D01*
X183969679Y-83903948D01*
X183681932Y-84228451D01*
X183540271Y-84638369D01*
X165301200Y-84638369D01*
X165301200Y-81899602D01*
X166367302Y-80833500D01*
X167519699Y-80833500D01*
X167732946Y-81152647D01*
X167734179Y-81153471D01*
X167697683Y-81160338D01*
X167481559Y-81299410D01*
X167336569Y-81511610D01*
X167285560Y-81763500D01*
X167285560Y-83463500D01*
X167329838Y-83698817D01*
X167468910Y-83914941D01*
X167681110Y-84059931D01*
X167933000Y-84110940D01*
X169633000Y-84110940D01*
X169868317Y-84066662D01*
X170084441Y-83927590D01*
X170229431Y-83715390D01*
X170243086Y-83647959D01*
X170272946Y-83692647D01*
X170754715Y-84014554D01*
X171323000Y-84127593D01*
X171891285Y-84014554D01*
X172373054Y-83692647D01*
X172593000Y-83363474D01*
X172812946Y-83692647D01*
X173294715Y-84014554D01*
X173863000Y-84127593D01*
X174431285Y-84014554D01*
X174913054Y-83692647D01*
X174949817Y-83637626D01*
X185972381Y-83637626D01*
X186098546Y-83812500D01*
X187214500Y-83812500D01*
X187214500Y-82804500D01*
X186939500Y-82804500D01*
X186514822Y-82939498D01*
X186174132Y-83226737D01*
X185972381Y-83637626D01*
X174949817Y-83637626D01*
X175234961Y-83210878D01*
X175348000Y-82642593D01*
X175348000Y-82584407D01*
X175234961Y-82016122D01*
X174913054Y-81534353D01*
X174629899Y-81345155D01*
X174629924Y-81345145D01*
X175058183Y-80954858D01*
X175290207Y-80460795D01*
X177760716Y-80460795D01*
X178009106Y-81061943D01*
X178468637Y-81522278D01*
X179069352Y-81771716D01*
X179719795Y-81772284D01*
X180320943Y-81523894D01*
X180555715Y-81289532D01*
X182923073Y-81289532D01*
X183021736Y-81556387D01*
X183631461Y-81782908D01*
X184281460Y-81758856D01*
X184770264Y-81556387D01*
X184868927Y-81289532D01*
X183896000Y-80316605D01*
X182923073Y-81289532D01*
X180555715Y-81289532D01*
X180781278Y-81064363D01*
X181030716Y-80463648D01*
X181031232Y-79872461D01*
X182250092Y-79872461D01*
X182274144Y-80522460D01*
X182476613Y-81011264D01*
X182743468Y-81109927D01*
X183716395Y-80137000D01*
X184075605Y-80137000D01*
X185048532Y-81109927D01*
X185315387Y-81011264D01*
X185541908Y-80401539D01*
X185517856Y-79751540D01*
X185315387Y-79262736D01*
X185048532Y-79164073D01*
X184075605Y-80137000D01*
X183716395Y-80137000D01*
X182743468Y-79164073D01*
X182476613Y-79262736D01*
X182250092Y-79872461D01*
X181031232Y-79872461D01*
X181031284Y-79813205D01*
X180782894Y-79212057D01*
X180555703Y-78984468D01*
X182923073Y-78984468D01*
X183896000Y-79957395D01*
X184868927Y-78984468D01*
X184770264Y-78717613D01*
X184160539Y-78491092D01*
X183510540Y-78515144D01*
X183021736Y-78717613D01*
X182923073Y-78984468D01*
X180555703Y-78984468D01*
X180323363Y-78751722D01*
X179722648Y-78502284D01*
X179072205Y-78501716D01*
X178471057Y-78750106D01*
X178010722Y-79209637D01*
X177761284Y-79810352D01*
X177760716Y-80460795D01*
X175290207Y-80460795D01*
X175304486Y-80430392D01*
X175183819Y-80200500D01*
X173990000Y-80200500D01*
X173990000Y-80220500D01*
X173736000Y-80220500D01*
X173736000Y-80200500D01*
X173716000Y-80200500D01*
X173716000Y-79946500D01*
X173736000Y-79946500D01*
X173736000Y-78753345D01*
X173990000Y-78753345D01*
X173990000Y-79946500D01*
X175183819Y-79946500D01*
X175304486Y-79716608D01*
X175058183Y-79192142D01*
X174629924Y-78801855D01*
X174219890Y-78632024D01*
X173990000Y-78753345D01*
X173736000Y-78753345D01*
X173506110Y-78632024D01*
X173096076Y-78801855D01*
X172667817Y-79192142D01*
X172600702Y-79335053D01*
X172373054Y-78994353D01*
X171891285Y-78672446D01*
X171323000Y-78559407D01*
X170754715Y-78672446D01*
X170272946Y-78994353D01*
X170053000Y-79323526D01*
X169833054Y-78994353D01*
X169543000Y-78800546D01*
X169543000Y-73960795D01*
X177760716Y-73960795D01*
X178009106Y-74561943D01*
X178468637Y-75022278D01*
X179069352Y-75271716D01*
X179719795Y-75272284D01*
X180320943Y-75023894D01*
X180555715Y-74789532D01*
X182923073Y-74789532D01*
X183021736Y-75056387D01*
X183631461Y-75282908D01*
X184281460Y-75258856D01*
X184770264Y-75056387D01*
X184868927Y-74789532D01*
X183896000Y-73816605D01*
X182923073Y-74789532D01*
X180555715Y-74789532D01*
X180781278Y-74564363D01*
X181030716Y-73963648D01*
X181031232Y-73372461D01*
X182250092Y-73372461D01*
X182274144Y-74022460D01*
X182476613Y-74511264D01*
X182743468Y-74609927D01*
X183716395Y-73637000D01*
X184075605Y-73637000D01*
X185048532Y-74609927D01*
X185315387Y-74511264D01*
X185541908Y-73901539D01*
X185517856Y-73251540D01*
X185315387Y-72762736D01*
X185048532Y-72664073D01*
X184075605Y-73637000D01*
X183716395Y-73637000D01*
X182743468Y-72664073D01*
X182476613Y-72762736D01*
X182250092Y-73372461D01*
X181031232Y-73372461D01*
X181031284Y-73313205D01*
X180782894Y-72712057D01*
X180555703Y-72484468D01*
X182923073Y-72484468D01*
X183896000Y-73457395D01*
X184868927Y-72484468D01*
X184770264Y-72217613D01*
X184160539Y-71991092D01*
X183510540Y-72015144D01*
X183021736Y-72217613D01*
X182923073Y-72484468D01*
X180555703Y-72484468D01*
X180323363Y-72251722D01*
X179722648Y-72002284D01*
X179072205Y-72001716D01*
X178471057Y-72250106D01*
X178010722Y-72709637D01*
X177761284Y-73310352D01*
X177760716Y-73960795D01*
X169543000Y-73960795D01*
X169543000Y-69924200D01*
X173452937Y-69924200D01*
X173485073Y-69956392D01*
X173828601Y-70099038D01*
X174200567Y-70099362D01*
X174544343Y-69957317D01*
X174807592Y-69694527D01*
X174950238Y-69350999D01*
X174950562Y-68979033D01*
X174808517Y-68635257D01*
X174545727Y-68372008D01*
X174202199Y-68229362D01*
X173830233Y-68229038D01*
X173486457Y-68371083D01*
X173453282Y-68404200D01*
X166729263Y-68404200D01*
X166697127Y-68372008D01*
X166353599Y-68229362D01*
X165981633Y-68229038D01*
X165637857Y-68371083D01*
X165604682Y-68404200D01*
X158855307Y-68404200D01*
X158848527Y-68397408D01*
X158504999Y-68254762D01*
X158133033Y-68254438D01*
X157789257Y-68396483D01*
X157756082Y-68429600D01*
X152476200Y-68429600D01*
X152185361Y-68487452D01*
X151938799Y-68652199D01*
X151371320Y-69219678D01*
X151325833Y-69219638D01*
X150982057Y-69361683D01*
X150718808Y-69624473D01*
X150576162Y-69968001D01*
X150575838Y-70339967D01*
X137529000Y-70339967D01*
X137529000Y-70055940D01*
X137894000Y-70055940D01*
X138129317Y-70011662D01*
X138345441Y-69872590D01*
X138490431Y-69660390D01*
X138541440Y-69408500D01*
X138541440Y-66960695D01*
X150637716Y-66960695D01*
X150886106Y-67561843D01*
X151345637Y-68022178D01*
X151946352Y-68271616D01*
X152596795Y-68272184D01*
X153197943Y-68023794D01*
X153432715Y-67789432D01*
X155800073Y-67789432D01*
X155898736Y-68056287D01*
X156508461Y-68282808D01*
X157158460Y-68258756D01*
X157647264Y-68056287D01*
X157745927Y-67789432D01*
X156773000Y-66816505D01*
X155800073Y-67789432D01*
X153432715Y-67789432D01*
X153658278Y-67564263D01*
X153907716Y-66963548D01*
X153908232Y-66372361D01*
X155127092Y-66372361D01*
X155151144Y-67022360D01*
X155353613Y-67511164D01*
X155620468Y-67609827D01*
X156593395Y-66636900D01*
X156952605Y-66636900D01*
X157925532Y-67609827D01*
X158192387Y-67511164D01*
X158396893Y-66960695D01*
X158511716Y-66960695D01*
X158760106Y-67561843D01*
X159219637Y-68022178D01*
X159820352Y-68271616D01*
X160470795Y-68272184D01*
X161071943Y-68023794D01*
X161306715Y-67789432D01*
X163674073Y-67789432D01*
X163772736Y-68056287D01*
X164382461Y-68282808D01*
X165032460Y-68258756D01*
X165521264Y-68056287D01*
X165619927Y-67789432D01*
X164647000Y-66816505D01*
X163674073Y-67789432D01*
X161306715Y-67789432D01*
X161532278Y-67564263D01*
X161781716Y-66963548D01*
X161782232Y-66372361D01*
X163001092Y-66372361D01*
X163025144Y-67022360D01*
X163227613Y-67511164D01*
X163494468Y-67609827D01*
X164467395Y-66636900D01*
X164826605Y-66636900D01*
X165799532Y-67609827D01*
X166066387Y-67511164D01*
X166270893Y-66960695D01*
X166385716Y-66960695D01*
X166634106Y-67561843D01*
X167093637Y-68022178D01*
X167694352Y-68271616D01*
X168344795Y-68272184D01*
X168945943Y-68023794D01*
X169180715Y-67789432D01*
X171548073Y-67789432D01*
X171646736Y-68056287D01*
X172256461Y-68282808D01*
X172906460Y-68258756D01*
X173395264Y-68056287D01*
X173493927Y-67789432D01*
X172521000Y-66816505D01*
X171548073Y-67789432D01*
X169180715Y-67789432D01*
X169406278Y-67564263D01*
X169655716Y-66963548D01*
X169656232Y-66372361D01*
X170875092Y-66372361D01*
X170899144Y-67022360D01*
X171101613Y-67511164D01*
X171368468Y-67609827D01*
X172341395Y-66636900D01*
X172700605Y-66636900D01*
X173673532Y-67609827D01*
X173940387Y-67511164D01*
X174144893Y-66960695D01*
X174386716Y-66960695D01*
X174635106Y-67561843D01*
X175094637Y-68022178D01*
X175695352Y-68271616D01*
X176345795Y-68272184D01*
X176946943Y-68023794D01*
X177181715Y-67789432D01*
X179549073Y-67789432D01*
X179647736Y-68056287D01*
X180257461Y-68282808D01*
X180907460Y-68258756D01*
X181396264Y-68056287D01*
X181494927Y-67789432D01*
X180522000Y-66816505D01*
X179549073Y-67789432D01*
X177181715Y-67789432D01*
X177407278Y-67564263D01*
X177656716Y-66963548D01*
X177657232Y-66372361D01*
X178876092Y-66372361D01*
X178900144Y-67022360D01*
X179102613Y-67511164D01*
X179369468Y-67609827D01*
X180342395Y-66636900D01*
X180701605Y-66636900D01*
X181674532Y-67609827D01*
X181941387Y-67511164D01*
X182167908Y-66901439D01*
X182143856Y-66251440D01*
X181941387Y-65762636D01*
X181674532Y-65663973D01*
X180701605Y-66636900D01*
X180342395Y-66636900D01*
X179369468Y-65663973D01*
X179102613Y-65762636D01*
X178876092Y-66372361D01*
X177657232Y-66372361D01*
X177657284Y-66313105D01*
X177408894Y-65711957D01*
X177181703Y-65484368D01*
X179549073Y-65484368D01*
X180522000Y-66457295D01*
X181494927Y-65484368D01*
X181396264Y-65217513D01*
X180786539Y-64990992D01*
X180136540Y-65015044D01*
X179647736Y-65217513D01*
X179549073Y-65484368D01*
X177181703Y-65484368D01*
X176949363Y-65251622D01*
X176348648Y-65002184D01*
X175698205Y-65001616D01*
X175097057Y-65250006D01*
X174636722Y-65709537D01*
X174387284Y-66310252D01*
X174386716Y-66960695D01*
X174144893Y-66960695D01*
X174166908Y-66901439D01*
X174142856Y-66251440D01*
X173940387Y-65762636D01*
X173673532Y-65663973D01*
X172700605Y-66636900D01*
X172341395Y-66636900D01*
X171368468Y-65663973D01*
X171101613Y-65762636D01*
X170875092Y-66372361D01*
X169656232Y-66372361D01*
X169656284Y-66313105D01*
X169407894Y-65711957D01*
X169180703Y-65484368D01*
X171548073Y-65484368D01*
X172521000Y-66457295D01*
X173493927Y-65484368D01*
X173395264Y-65217513D01*
X172785539Y-64990992D01*
X172135540Y-65015044D01*
X171646736Y-65217513D01*
X171548073Y-65484368D01*
X169180703Y-65484368D01*
X168948363Y-65251622D01*
X168347648Y-65002184D01*
X167697205Y-65001616D01*
X167096057Y-65250006D01*
X166635722Y-65709537D01*
X166386284Y-66310252D01*
X166385716Y-66960695D01*
X166270893Y-66960695D01*
X166292908Y-66901439D01*
X166268856Y-66251440D01*
X166066387Y-65762636D01*
X165799532Y-65663973D01*
X164826605Y-66636900D01*
X164467395Y-66636900D01*
X163494468Y-65663973D01*
X163227613Y-65762636D01*
X163001092Y-66372361D01*
X161782232Y-66372361D01*
X161782284Y-66313105D01*
X161533894Y-65711957D01*
X161306703Y-65484368D01*
X163674073Y-65484368D01*
X164647000Y-66457295D01*
X165619927Y-65484368D01*
X165521264Y-65217513D01*
X164911539Y-64990992D01*
X164261540Y-65015044D01*
X163772736Y-65217513D01*
X163674073Y-65484368D01*
X161306703Y-65484368D01*
X161074363Y-65251622D01*
X160473648Y-65002184D01*
X159823205Y-65001616D01*
X159222057Y-65250006D01*
X158761722Y-65709537D01*
X158512284Y-66310252D01*
X158511716Y-66960695D01*
X158396893Y-66960695D01*
X158418908Y-66901439D01*
X158394856Y-66251440D01*
X158192387Y-65762636D01*
X157925532Y-65663973D01*
X156952605Y-66636900D01*
X156593395Y-66636900D01*
X155620468Y-65663973D01*
X155353613Y-65762636D01*
X155127092Y-66372361D01*
X153908232Y-66372361D01*
X153908284Y-66313105D01*
X153659894Y-65711957D01*
X153432703Y-65484368D01*
X155800073Y-65484368D01*
X156773000Y-66457295D01*
X157745927Y-65484368D01*
X157647264Y-65217513D01*
X157037539Y-64990992D01*
X156387540Y-65015044D01*
X155898736Y-65217513D01*
X155800073Y-65484368D01*
X153432703Y-65484368D01*
X153200363Y-65251622D01*
X152599648Y-65002184D01*
X151949205Y-65001616D01*
X151348057Y-65250006D01*
X150887722Y-65709537D01*
X150638284Y-66310252D01*
X150637716Y-66960695D01*
X138541440Y-66960695D01*
X138541440Y-65908500D01*
X138497162Y-65673183D01*
X138358090Y-65457059D01*
X138145890Y-65312069D01*
X137894000Y-65261060D01*
X134394000Y-65261060D01*
X134158683Y-65305338D01*
X133942559Y-65444410D01*
X133829000Y-65610609D01*
X133829000Y-64944250D01*
X133670250Y-64785500D01*
X131571000Y-64785500D01*
X131571000Y-66884750D01*
X131729750Y-67043500D01*
X133320310Y-67043500D01*
X133553699Y-66946827D01*
X133732327Y-66768198D01*
X133746560Y-66733837D01*
X133746560Y-69408500D01*
X133790838Y-69643817D01*
X133929910Y-69859941D01*
X134142110Y-70004931D01*
X134394000Y-70055940D01*
X134759000Y-70055940D01*
X134759000Y-86179500D01*
X126812440Y-86179500D01*
X126644878Y-86067539D01*
X126076593Y-85954500D01*
X126018407Y-85954500D01*
X125450122Y-86067539D01*
X124968353Y-86389446D01*
X124646446Y-86871215D01*
X124535000Y-87431491D01*
X124535000Y-84042250D01*
X124562500Y-84042250D01*
X124562500Y-84732810D01*
X124659173Y-84966199D01*
X124837802Y-85144827D01*
X125071191Y-85241500D01*
X125761750Y-85241500D01*
X125920500Y-85082750D01*
X125920500Y-83883500D01*
X126174500Y-83883500D01*
X126174500Y-85082750D01*
X126333250Y-85241500D01*
X127023809Y-85241500D01*
X127257198Y-85144827D01*
X127435827Y-84966199D01*
X127532500Y-84732810D01*
X127532500Y-84042250D01*
X127373750Y-83883500D01*
X126174500Y-83883500D01*
X125920500Y-83883500D01*
X124721250Y-83883500D01*
X124562500Y-84042250D01*
X124535000Y-84042250D01*
X124535000Y-81224509D01*
X124646446Y-81784785D01*
X124968353Y-82266554D01*
X125012277Y-82295903D01*
X124837802Y-82368173D01*
X124659173Y-82546801D01*
X124562500Y-82780190D01*
X124562500Y-83470750D01*
X124721250Y-83629500D01*
X125920500Y-83629500D01*
X125920500Y-83609500D01*
X126174500Y-83609500D01*
X126174500Y-83629500D01*
X127373750Y-83629500D01*
X127532500Y-83470750D01*
X127532500Y-82780190D01*
X127435827Y-82546801D01*
X127257198Y-82368173D01*
X127082723Y-82295903D01*
X127126647Y-82266554D01*
X127448554Y-81784785D01*
X127561593Y-81216500D01*
X127448554Y-80648215D01*
X127126647Y-80166446D01*
X126797474Y-79946500D01*
X127126647Y-79726554D01*
X127448554Y-79244785D01*
X127561593Y-78676500D01*
X127448554Y-78108215D01*
X127126647Y-77626446D01*
X126797474Y-77406500D01*
X127126647Y-77186554D01*
X127448554Y-76704785D01*
X127561593Y-76136500D01*
X127448554Y-75568215D01*
X127126647Y-75086446D01*
X126797474Y-74866500D01*
X127126647Y-74646554D01*
X127448554Y-74164785D01*
X127561593Y-73596500D01*
X127448554Y-73028215D01*
X127126647Y-72546446D01*
X126797474Y-72326500D01*
X127126647Y-72106554D01*
X127448554Y-71624785D01*
X127561593Y-71056500D01*
X127448554Y-70488215D01*
X127126647Y-70006446D01*
X126797474Y-69786500D01*
X127126647Y-69566554D01*
X127448554Y-69084785D01*
X127561593Y-68516500D01*
X127448554Y-67948215D01*
X127126647Y-67466446D01*
X126644878Y-67144539D01*
X126076593Y-67031500D01*
X126018407Y-67031500D01*
X125450122Y-67144539D01*
X124968353Y-67466446D01*
X124646446Y-67948215D01*
X124535000Y-68508491D01*
X124535000Y-64944250D01*
X129059000Y-64944250D01*
X129059000Y-66534809D01*
X129155673Y-66768198D01*
X129334301Y-66946827D01*
X129567690Y-67043500D01*
X131158250Y-67043500D01*
X131317000Y-66884750D01*
X131317000Y-64785500D01*
X129217750Y-64785500D01*
X129059000Y-64944250D01*
X124535000Y-64944250D01*
X124535000Y-61473619D01*
X125033613Y-61473619D01*
X125373155Y-62295372D01*
X126001321Y-62924636D01*
X126822481Y-63265611D01*
X127711619Y-63266387D01*
X128533372Y-62926845D01*
X128678278Y-62782191D01*
X129059000Y-62782191D01*
X129059000Y-64372750D01*
X129217750Y-64531500D01*
X131317000Y-64531500D01*
X131317000Y-62432250D01*
X131571000Y-62432250D01*
X131571000Y-64531500D01*
X133670250Y-64531500D01*
X133829000Y-64372750D01*
X133829000Y-62782191D01*
X133732327Y-62548802D01*
X133553699Y-62370173D01*
X133320310Y-62273500D01*
X131729750Y-62273500D01*
X131571000Y-62432250D01*
X131317000Y-62432250D01*
X131158250Y-62273500D01*
X129567690Y-62273500D01*
X129334301Y-62370173D01*
X129155673Y-62548802D01*
X129059000Y-62782191D01*
X128678278Y-62782191D01*
X129162636Y-62298679D01*
X129503611Y-61477519D01*
X129504387Y-60588381D01*
X129451629Y-60460695D01*
X150637716Y-60460695D01*
X150886106Y-61061843D01*
X151345637Y-61522178D01*
X151946352Y-61771616D01*
X152596795Y-61772184D01*
X153197943Y-61523794D01*
X153432715Y-61289432D01*
X155800073Y-61289432D01*
X155898736Y-61556287D01*
X156508461Y-61782808D01*
X157158460Y-61758756D01*
X157647264Y-61556287D01*
X157745927Y-61289432D01*
X156773000Y-60316505D01*
X155800073Y-61289432D01*
X153432715Y-61289432D01*
X153658278Y-61064263D01*
X153907716Y-60463548D01*
X153908232Y-59872361D01*
X155127092Y-59872361D01*
X155151144Y-60522360D01*
X155353613Y-61011164D01*
X155620468Y-61109827D01*
X156593395Y-60136900D01*
X156952605Y-60136900D01*
X157925532Y-61109827D01*
X158192387Y-61011164D01*
X158396893Y-60460695D01*
X158511716Y-60460695D01*
X158760106Y-61061843D01*
X159219637Y-61522178D01*
X159820352Y-61771616D01*
X160470795Y-61772184D01*
X161071943Y-61523794D01*
X161306715Y-61289432D01*
X163674073Y-61289432D01*
X163772736Y-61556287D01*
X164382461Y-61782808D01*
X165032460Y-61758756D01*
X165521264Y-61556287D01*
X165619927Y-61289432D01*
X164647000Y-60316505D01*
X163674073Y-61289432D01*
X161306715Y-61289432D01*
X161532278Y-61064263D01*
X161781716Y-60463548D01*
X161782232Y-59872361D01*
X163001092Y-59872361D01*
X163025144Y-60522360D01*
X163227613Y-61011164D01*
X163494468Y-61109827D01*
X164467395Y-60136900D01*
X164826605Y-60136900D01*
X165799532Y-61109827D01*
X166066387Y-61011164D01*
X166270893Y-60460695D01*
X166385716Y-60460695D01*
X166634106Y-61061843D01*
X167093637Y-61522178D01*
X167694352Y-61771616D01*
X168344795Y-61772184D01*
X168945943Y-61523794D01*
X169180715Y-61289432D01*
X171548073Y-61289432D01*
X171646736Y-61556287D01*
X172256461Y-61782808D01*
X172906460Y-61758756D01*
X173395264Y-61556287D01*
X173493927Y-61289432D01*
X172521000Y-60316505D01*
X171548073Y-61289432D01*
X169180715Y-61289432D01*
X169406278Y-61064263D01*
X169655716Y-60463548D01*
X169656232Y-59872361D01*
X170875092Y-59872361D01*
X170899144Y-60522360D01*
X171101613Y-61011164D01*
X171368468Y-61109827D01*
X172341395Y-60136900D01*
X172700605Y-60136900D01*
X173673532Y-61109827D01*
X173940387Y-61011164D01*
X174144893Y-60460695D01*
X174386716Y-60460695D01*
X174635106Y-61061843D01*
X175094637Y-61522178D01*
X175695352Y-61771616D01*
X176345795Y-61772184D01*
X176946943Y-61523794D01*
X177181715Y-61289432D01*
X179549073Y-61289432D01*
X179647736Y-61556287D01*
X180257461Y-61782808D01*
X180907460Y-61758756D01*
X181396264Y-61556287D01*
X181426828Y-61473619D01*
X183089613Y-61473619D01*
X183429155Y-62295372D01*
X184057321Y-62924636D01*
X184878481Y-63265611D01*
X185767619Y-63266387D01*
X186589372Y-62926845D01*
X187218636Y-62298679D01*
X187559611Y-61477519D01*
X187560387Y-60588381D01*
X187220845Y-59766628D01*
X186592679Y-59137364D01*
X185771519Y-58796389D01*
X184882381Y-58795613D01*
X184060628Y-59135155D01*
X183431364Y-59763321D01*
X183090389Y-60584481D01*
X183089613Y-61473619D01*
X181426828Y-61473619D01*
X181494927Y-61289432D01*
X180522000Y-60316505D01*
X179549073Y-61289432D01*
X177181715Y-61289432D01*
X177407278Y-61064263D01*
X177656716Y-60463548D01*
X177657232Y-59872361D01*
X178876092Y-59872361D01*
X178900144Y-60522360D01*
X179102613Y-61011164D01*
X179369468Y-61109827D01*
X180342395Y-60136900D01*
X180701605Y-60136900D01*
X181674532Y-61109827D01*
X181941387Y-61011164D01*
X182167908Y-60401439D01*
X182143856Y-59751440D01*
X181941387Y-59262636D01*
X181674532Y-59163973D01*
X180701605Y-60136900D01*
X180342395Y-60136900D01*
X179369468Y-59163973D01*
X179102613Y-59262636D01*
X178876092Y-59872361D01*
X177657232Y-59872361D01*
X177657284Y-59813105D01*
X177408894Y-59211957D01*
X177181703Y-58984368D01*
X179549073Y-58984368D01*
X180522000Y-59957295D01*
X181494927Y-58984368D01*
X181396264Y-58717513D01*
X180786539Y-58490992D01*
X180136540Y-58515044D01*
X179647736Y-58717513D01*
X179549073Y-58984368D01*
X177181703Y-58984368D01*
X176949363Y-58751622D01*
X176348648Y-58502184D01*
X175698205Y-58501616D01*
X175097057Y-58750006D01*
X174636722Y-59209537D01*
X174387284Y-59810252D01*
X174386716Y-60460695D01*
X174144893Y-60460695D01*
X174166908Y-60401439D01*
X174142856Y-59751440D01*
X173940387Y-59262636D01*
X173673532Y-59163973D01*
X172700605Y-60136900D01*
X172341395Y-60136900D01*
X171368468Y-59163973D01*
X171101613Y-59262636D01*
X170875092Y-59872361D01*
X169656232Y-59872361D01*
X169656284Y-59813105D01*
X169407894Y-59211957D01*
X169180703Y-58984368D01*
X171548073Y-58984368D01*
X172521000Y-59957295D01*
X173493927Y-58984368D01*
X173395264Y-58717513D01*
X172785539Y-58490992D01*
X172135540Y-58515044D01*
X171646736Y-58717513D01*
X171548073Y-58984368D01*
X169180703Y-58984368D01*
X168948363Y-58751622D01*
X168347648Y-58502184D01*
X167697205Y-58501616D01*
X167096057Y-58750006D01*
X166635722Y-59209537D01*
X166386284Y-59810252D01*
X166385716Y-60460695D01*
X166270893Y-60460695D01*
X166292908Y-60401439D01*
X166268856Y-59751440D01*
X166066387Y-59262636D01*
X165799532Y-59163973D01*
X164826605Y-60136900D01*
X164467395Y-60136900D01*
X163494468Y-59163973D01*
X163227613Y-59262636D01*
X163001092Y-59872361D01*
X161782232Y-59872361D01*
X161782284Y-59813105D01*
X161533894Y-59211957D01*
X161306703Y-58984368D01*
X163674073Y-58984368D01*
X164647000Y-59957295D01*
X165619927Y-58984368D01*
X165521264Y-58717513D01*
X164911539Y-58490992D01*
X164261540Y-58515044D01*
X163772736Y-58717513D01*
X163674073Y-58984368D01*
X161306703Y-58984368D01*
X161074363Y-58751622D01*
X160473648Y-58502184D01*
X159823205Y-58501616D01*
X159222057Y-58750006D01*
X158761722Y-59209537D01*
X158512284Y-59810252D01*
X158511716Y-60460695D01*
X158396893Y-60460695D01*
X158418908Y-60401439D01*
X158394856Y-59751440D01*
X158192387Y-59262636D01*
X157925532Y-59163973D01*
X156952605Y-60136900D01*
X156593395Y-60136900D01*
X155620468Y-59163973D01*
X155353613Y-59262636D01*
X155127092Y-59872361D01*
X153908232Y-59872361D01*
X153908284Y-59813105D01*
X153659894Y-59211957D01*
X153432703Y-58984368D01*
X155800073Y-58984368D01*
X156773000Y-59957295D01*
X157745927Y-58984368D01*
X157647264Y-58717513D01*
X157037539Y-58490992D01*
X156387540Y-58515044D01*
X155898736Y-58717513D01*
X155800073Y-58984368D01*
X153432703Y-58984368D01*
X153200363Y-58751622D01*
X152599648Y-58502184D01*
X151949205Y-58501616D01*
X151348057Y-58750006D01*
X150887722Y-59209537D01*
X150638284Y-59810252D01*
X150637716Y-60460695D01*
X129451629Y-60460695D01*
X129164845Y-59766628D01*
X128536679Y-59137364D01*
X127715519Y-58796389D01*
X126826381Y-58795613D01*
X126004628Y-59135155D01*
X125375364Y-59763321D01*
X125034389Y-60584481D01*
X125033613Y-61473619D01*
X124535000Y-61473619D01*
X124535000Y-58241000D01*
X188115000Y-58241000D01*
X188115000Y-82922594D01*
X188115000Y-82922594D01*
G37*
X188115000Y-82922594D02*
X187743500Y-82804500D01*
X187468500Y-82804500D01*
X187468500Y-83812500D01*
X187488500Y-83812500D01*
X187488500Y-84066500D01*
X187468500Y-84066500D01*
X187468500Y-85074500D01*
X187743500Y-85074500D01*
X188115000Y-84956406D01*
X188115000Y-89922594D01*
X187743500Y-89804500D01*
X187468500Y-89804500D01*
X187468500Y-90812500D01*
X187488500Y-90812500D01*
X187488500Y-91066500D01*
X187468500Y-91066500D01*
X187468500Y-92074500D01*
X187743500Y-92074500D01*
X188115000Y-91956406D01*
X188115000Y-131821000D01*
X124535000Y-131821000D01*
X124535000Y-129473619D01*
X125089613Y-129473619D01*
X125429155Y-130295372D01*
X126057321Y-130924636D01*
X126878481Y-131265611D01*
X127767619Y-131266387D01*
X128589372Y-130926845D01*
X129218636Y-130298679D01*
X129559611Y-129477519D01*
X129560387Y-128588381D01*
X129415778Y-128238400D01*
X143369560Y-128238400D01*
X143369560Y-130638400D01*
X143413838Y-130873717D01*
X143552910Y-131089841D01*
X143765110Y-131234831D01*
X144017000Y-131285840D01*
X146417000Y-131285840D01*
X146652317Y-131241562D01*
X146868441Y-131102490D01*
X147013431Y-130890290D01*
X147064440Y-130638400D01*
X147064440Y-130244112D01*
X147160455Y-130476486D01*
X147676199Y-130993130D01*
X148350395Y-131273081D01*
X149080403Y-131273718D01*
X149755086Y-130994945D01*
X150271730Y-130479201D01*
X150551681Y-129805005D01*
X150551683Y-129801803D01*
X165520082Y-129801803D01*
X165798855Y-130476486D01*
X166314599Y-130993130D01*
X166988795Y-131273081D01*
X167718803Y-131273718D01*
X168393486Y-130994945D01*
X168910130Y-130479201D01*
X169190081Y-129805005D01*
X169190370Y-129473619D01*
X183089613Y-129473619D01*
X183429155Y-130295372D01*
X184057321Y-130924636D01*
X184878481Y-131265611D01*
X185767619Y-131266387D01*
X186589372Y-130926845D01*
X187218636Y-130298679D01*
X187559611Y-129477519D01*
X187560387Y-128588381D01*
X187220845Y-127766628D01*
X186592679Y-127137364D01*
X185771519Y-126796389D01*
X184882381Y-126795613D01*
X184060628Y-127135155D01*
X183431364Y-127763321D01*
X183090389Y-128584481D01*
X183089613Y-129473619D01*
X169190370Y-129473619D01*
X169190718Y-129074997D01*
X168911945Y-128400314D01*
X168396201Y-127883670D01*
X167722005Y-127603719D01*
X166991997Y-127603082D01*
X166317314Y-127881855D01*
X165800670Y-128397599D01*
X165520719Y-129071795D01*
X165520082Y-129801803D01*
X150551683Y-129801803D01*
X150552318Y-129074997D01*
X150273545Y-128400314D01*
X149757801Y-127883670D01*
X149083605Y-127603719D01*
X148353597Y-127603082D01*
X147678914Y-127881855D01*
X147162270Y-128397599D01*
X147064440Y-128633199D01*
X147064440Y-128238400D01*
X147020162Y-128003083D01*
X146881090Y-127786959D01*
X146668890Y-127641969D01*
X146417000Y-127590960D01*
X144017000Y-127590960D01*
X143781683Y-127635238D01*
X143565559Y-127774310D01*
X143420569Y-127986510D01*
X143369560Y-128238400D01*
X129415778Y-128238400D01*
X129220845Y-127766628D01*
X128592679Y-127137364D01*
X127771519Y-126796389D01*
X126882381Y-126795613D01*
X126060628Y-127135155D01*
X125431364Y-127763321D01*
X125090389Y-128584481D01*
X125089613Y-129473619D01*
X124535000Y-129473619D01*
X124535000Y-123226001D01*
X135755691Y-123226001D01*
X136026868Y-123882300D01*
X136528559Y-124384867D01*
X137184384Y-124657189D01*
X137894501Y-124657809D01*
X138550800Y-124386632D01*
X139053367Y-123884941D01*
X139322830Y-123236001D01*
X154455691Y-123236001D01*
X154726868Y-123892300D01*
X155228559Y-124394867D01*
X155884384Y-124667189D01*
X156594501Y-124667809D01*
X157250800Y-124396632D01*
X157753367Y-123894941D01*
X158023660Y-123244001D01*
X173251691Y-123244001D01*
X173522868Y-123900300D01*
X174024559Y-124402867D01*
X174680384Y-124675189D01*
X175390501Y-124675809D01*
X176046800Y-124404632D01*
X176549367Y-123902941D01*
X176821689Y-123247116D01*
X176822309Y-122536999D01*
X176551132Y-121880700D01*
X176049441Y-121378133D01*
X175393616Y-121105811D01*
X174683499Y-121105191D01*
X174027200Y-121376368D01*
X173524633Y-121878059D01*
X173252311Y-122533884D01*
X173251691Y-123244001D01*
X158023660Y-123244001D01*
X158025689Y-123239116D01*
X158026309Y-122528999D01*
X157755132Y-121872700D01*
X157253441Y-121370133D01*
X156597616Y-121097811D01*
X155887499Y-121097191D01*
X155231200Y-121368368D01*
X154728633Y-121870059D01*
X154456311Y-122525884D01*
X154455691Y-123236001D01*
X139322830Y-123236001D01*
X139325689Y-123229116D01*
X139326309Y-122518999D01*
X139055132Y-121862700D01*
X138553441Y-121360133D01*
X137897616Y-121087811D01*
X137187499Y-121087191D01*
X136531200Y-121358368D01*
X136028633Y-121860059D01*
X135756311Y-122515884D01*
X135755691Y-123226001D01*
X124535000Y-123226001D01*
X124535000Y-120676001D01*
X129755691Y-120676001D01*
X130026868Y-121332300D01*
X130528559Y-121834867D01*
X131184384Y-122107189D01*
X131894501Y-122107809D01*
X132550800Y-121836632D01*
X133053367Y-121334941D01*
X133325689Y-120679116D01*
X133325691Y-120676001D01*
X141755691Y-120676001D01*
X142026868Y-121332300D01*
X142528559Y-121834867D01*
X143184384Y-122107189D01*
X143894501Y-122107809D01*
X144550800Y-121836632D01*
X145053367Y-121334941D01*
X145322830Y-120686001D01*
X148455691Y-120686001D01*
X148726868Y-121342300D01*
X149228559Y-121844867D01*
X149884384Y-122117189D01*
X150594501Y-122117809D01*
X151250800Y-121846632D01*
X151753367Y-121344941D01*
X152025689Y-120689116D01*
X152025691Y-120686001D01*
X160455691Y-120686001D01*
X160726868Y-121342300D01*
X161228559Y-121844867D01*
X161884384Y-122117189D01*
X162594501Y-122117809D01*
X163250800Y-121846632D01*
X163753367Y-121344941D01*
X164023660Y-120694001D01*
X167251691Y-120694001D01*
X167522868Y-121350300D01*
X168024559Y-121852867D01*
X168680384Y-122125189D01*
X169390501Y-122125809D01*
X170046800Y-121854632D01*
X170549367Y-121352941D01*
X170821689Y-120697116D01*
X170821691Y-120694001D01*
X179251691Y-120694001D01*
X179522868Y-121350300D01*
X180024559Y-121852867D01*
X180680384Y-122125189D01*
X181390501Y-122125809D01*
X182046800Y-121854632D01*
X182549367Y-121352941D01*
X182821689Y-120697116D01*
X182822309Y-119986999D01*
X182551132Y-119330700D01*
X182049441Y-118828133D01*
X181393616Y-118555811D01*
X180683499Y-118555191D01*
X180027200Y-118826368D01*
X179524633Y-119328059D01*
X179252311Y-119983884D01*
X179251691Y-120694001D01*
X170821691Y-120694001D01*
X170822309Y-119986999D01*
X170551132Y-119330700D01*
X170049441Y-118828133D01*
X169393616Y-118555811D01*
X168683499Y-118555191D01*
X168027200Y-118826368D01*
X167524633Y-119328059D01*
X167252311Y-119983884D01*
X167251691Y-120694001D01*
X164023660Y-120694001D01*
X164025689Y-120689116D01*
X164026309Y-119978999D01*
X163755132Y-119322700D01*
X163253441Y-118820133D01*
X162597616Y-118547811D01*
X161887499Y-118547191D01*
X161231200Y-118818368D01*
X160728633Y-119320059D01*
X160456311Y-119975884D01*
X160455691Y-120686001D01*
X152025691Y-120686001D01*
X152026309Y-119978999D01*
X151755132Y-119322700D01*
X151253441Y-118820133D01*
X150597616Y-118547811D01*
X149887499Y-118547191D01*
X149231200Y-118818368D01*
X148728633Y-119320059D01*
X148456311Y-119975884D01*
X148455691Y-120686001D01*
X145322830Y-120686001D01*
X145325689Y-120679116D01*
X145326309Y-119968999D01*
X145055132Y-119312700D01*
X144553441Y-118810133D01*
X143897616Y-118537811D01*
X143187499Y-118537191D01*
X142531200Y-118808368D01*
X142028633Y-119310059D01*
X141756311Y-119965884D01*
X141755691Y-120676001D01*
X133325691Y-120676001D01*
X133326309Y-119968999D01*
X133055132Y-119312700D01*
X132553441Y-118810133D01*
X131897616Y-118537811D01*
X131187499Y-118537191D01*
X130531200Y-118808368D01*
X130028633Y-119310059D01*
X129756311Y-119965884D01*
X129755691Y-120676001D01*
X124535000Y-120676001D01*
X124535000Y-109383525D01*
X130459581Y-109383525D01*
X130576601Y-109665946D01*
X131240663Y-109917518D01*
X131950448Y-109895814D01*
X132505399Y-109665946D01*
X132622419Y-109383525D01*
X131541000Y-108302105D01*
X130459581Y-109383525D01*
X124535000Y-109383525D01*
X124535000Y-107822163D01*
X129745982Y-107822163D01*
X129767686Y-108531948D01*
X129997554Y-109086899D01*
X130279975Y-109203919D01*
X131361395Y-108122500D01*
X131720605Y-108122500D01*
X132802025Y-109203919D01*
X133084446Y-109086899D01*
X133336018Y-108422837D01*
X133314314Y-107713052D01*
X133084446Y-107158101D01*
X132802025Y-107041081D01*
X131720605Y-108122500D01*
X131361395Y-108122500D01*
X130279975Y-107041081D01*
X129997554Y-107158101D01*
X129745982Y-107822163D01*
X124535000Y-107822163D01*
X124535000Y-106861475D01*
X130459581Y-106861475D01*
X131541000Y-107942895D01*
X132622419Y-106861475D01*
X132505399Y-106579054D01*
X131841337Y-106327482D01*
X131131552Y-106349186D01*
X130576601Y-106579054D01*
X130459581Y-106861475D01*
X124535000Y-106861475D01*
X124535000Y-97885250D01*
X124562500Y-97885250D01*
X124562500Y-98575810D01*
X124659173Y-98809199D01*
X124837802Y-98987827D01*
X125071191Y-99084500D01*
X125761750Y-99084500D01*
X125920500Y-98925750D01*
X125920500Y-97726500D01*
X124721250Y-97726500D01*
X124562500Y-97885250D01*
X124535000Y-97885250D01*
X124535000Y-95067509D01*
X124646446Y-95627785D01*
X124968353Y-96109554D01*
X125012277Y-96138903D01*
X124837802Y-96211173D01*
X124659173Y-96389801D01*
X124562500Y-96623190D01*
X124562500Y-97313750D01*
X124721250Y-97472500D01*
X125920500Y-97472500D01*
X125920500Y-97452500D01*
X126174500Y-97452500D01*
X126174500Y-97472500D01*
X126194500Y-97472500D01*
X126194500Y-97726500D01*
X126174500Y-97726500D01*
X126174500Y-98925750D01*
X126333250Y-99084500D01*
X127023809Y-99084500D01*
X127257198Y-98987827D01*
X127383000Y-98862026D01*
X127383000Y-98996500D01*
X127440852Y-99287339D01*
X127605599Y-99533901D01*
X127852161Y-99698648D01*
X128143000Y-99756500D01*
X128433839Y-99698648D01*
X128680401Y-99533901D01*
X128845148Y-99287339D01*
X128903000Y-98996500D01*
X128903000Y-89662000D01*
X128845148Y-89371161D01*
X128680401Y-89124599D01*
X128433839Y-88959852D01*
X128143000Y-88902000D01*
X127852161Y-88959852D01*
X127605599Y-89124599D01*
X127440852Y-89371161D01*
X127436479Y-89393144D01*
X127126647Y-88929446D01*
X126797474Y-88709500D01*
X126812440Y-88699500D01*
X134759000Y-88699500D01*
X134759000Y-100725500D01*
X134864427Y-101255517D01*
X135164657Y-101704843D01*
X141755848Y-108296034D01*
X141755691Y-108476001D01*
X142026868Y-109132300D01*
X142528559Y-109634867D01*
X143184384Y-109907189D01*
X143367163Y-109907349D01*
X145945157Y-112485343D01*
X146394484Y-112785574D01*
X146924500Y-112891000D01*
X177673000Y-112891000D01*
X178203017Y-112785573D01*
X178652343Y-112485343D01*
X180866344Y-110271342D01*
X180869364Y-110266822D01*
X181210534Y-109925652D01*
X181390501Y-109925809D01*
X182046800Y-109654632D01*
X182549367Y-109152941D01*
X182821689Y-108497116D01*
X182822309Y-107786999D01*
X182551132Y-107130700D01*
X182049441Y-106628133D01*
X181393616Y-106355811D01*
X180683499Y-106355191D01*
X180027200Y-106626368D01*
X179524633Y-107128059D01*
X179252311Y-107783884D01*
X179252151Y-107966663D01*
X178907658Y-108311156D01*
X178904638Y-108315676D01*
X177099314Y-110121000D01*
X163626000Y-110121000D01*
X163626000Y-109401525D01*
X167955581Y-109401525D01*
X168072601Y-109683946D01*
X168736663Y-109935518D01*
X169446448Y-109913814D01*
X170001399Y-109683946D01*
X170118419Y-109401525D01*
X169037000Y-108320105D01*
X167955581Y-109401525D01*
X163626000Y-109401525D01*
X163626000Y-109272086D01*
X163753367Y-109144941D01*
X164025689Y-108489116D01*
X164026255Y-107840163D01*
X167241982Y-107840163D01*
X167263686Y-108549948D01*
X167493554Y-109104899D01*
X167775975Y-109221919D01*
X168857395Y-108140500D01*
X169216605Y-108140500D01*
X170298025Y-109221919D01*
X170580446Y-109104899D01*
X170832018Y-108440837D01*
X170810314Y-107731052D01*
X170580446Y-107176101D01*
X170298025Y-107059081D01*
X169216605Y-108140500D01*
X168857395Y-108140500D01*
X167775975Y-107059081D01*
X167493554Y-107176101D01*
X167241982Y-107840163D01*
X164026255Y-107840163D01*
X164026309Y-107778999D01*
X163755132Y-107122700D01*
X163512331Y-106879475D01*
X167955581Y-106879475D01*
X169037000Y-107960895D01*
X170118419Y-106879475D01*
X170001399Y-106597054D01*
X169337337Y-106345482D01*
X168627552Y-106367186D01*
X168072601Y-106597054D01*
X167955581Y-106879475D01*
X163512331Y-106879475D01*
X163253441Y-106620133D01*
X162597616Y-106347811D01*
X161887499Y-106347191D01*
X161231200Y-106618368D01*
X160728633Y-107120059D01*
X160456311Y-107775884D01*
X160455691Y-108486001D01*
X160726868Y-109142300D01*
X160856000Y-109271657D01*
X160856000Y-110121000D01*
X147498186Y-110121000D01*
X146770711Y-109393525D01*
X149159581Y-109393525D01*
X149276601Y-109675946D01*
X149940663Y-109927518D01*
X150650448Y-109905814D01*
X151205399Y-109675946D01*
X151322419Y-109393525D01*
X150241000Y-108312105D01*
X149159581Y-109393525D01*
X146770711Y-109393525D01*
X145326152Y-107948966D01*
X145326253Y-107832163D01*
X148445982Y-107832163D01*
X148467686Y-108541948D01*
X148697554Y-109096899D01*
X148979975Y-109213919D01*
X150061395Y-108132500D01*
X150420605Y-108132500D01*
X151502025Y-109213919D01*
X151784446Y-109096899D01*
X152036018Y-108432837D01*
X152014314Y-107723052D01*
X151784446Y-107168101D01*
X151502025Y-107051081D01*
X150420605Y-108132500D01*
X150061395Y-108132500D01*
X148979975Y-107051081D01*
X148697554Y-107168101D01*
X148445982Y-107832163D01*
X145326253Y-107832163D01*
X145326309Y-107768999D01*
X145055132Y-107112700D01*
X144814328Y-106871475D01*
X149159581Y-106871475D01*
X150241000Y-107952895D01*
X151322419Y-106871475D01*
X151205399Y-106589054D01*
X150541337Y-106337482D01*
X149831552Y-106359186D01*
X149276601Y-106589054D01*
X149159581Y-106871475D01*
X144814328Y-106871475D01*
X144553441Y-106610133D01*
X143897616Y-106337811D01*
X143714837Y-106337651D01*
X137529000Y-100151814D01*
X137529000Y-83217767D01*
X145597438Y-83217767D01*
X145739483Y-83561543D01*
X145772600Y-83594718D01*
X145772600Y-89683737D01*
X145740408Y-89715873D01*
X145597762Y-90059401D01*
X145597438Y-90431367D01*
X145739483Y-90775143D01*
X146002273Y-91038392D01*
X146345801Y-91181038D01*
X146717767Y-91181362D01*
X147061543Y-91039317D01*
X147324792Y-90776527D01*
X147467438Y-90432999D01*
X147467762Y-90061033D01*
X147325717Y-89717257D01*
X147292600Y-89684082D01*
X147292600Y-83595063D01*
X147324792Y-83562927D01*
X147467438Y-83219399D01*
X147467762Y-82847433D01*
X147325717Y-82503657D01*
X147062927Y-82240408D01*
X146719399Y-82097762D01*
X146347433Y-82097438D01*
X146003657Y-82239483D01*
X145740408Y-82502273D01*
X145597762Y-82845801D01*
X145597438Y-83217767D01*
X137529000Y-83217767D01*
X137529000Y-75332636D01*
X137613986Y-75417622D01*
X137728861Y-75302747D01*
X137802995Y-75548864D01*
X138340223Y-75741965D01*
X138910454Y-75714778D01*
X139311005Y-75548864D01*
X139385139Y-75302745D01*
X138557000Y-74474605D01*
X138542858Y-74488748D01*
X138363252Y-74309142D01*
X138377395Y-74295000D01*
X138736605Y-74295000D01*
X139564745Y-75123139D01*
X139810864Y-75049005D01*
X140003965Y-74511777D01*
X139976778Y-73941546D01*
X139810864Y-73540995D01*
X139564745Y-73466861D01*
X138736605Y-74295000D01*
X138377395Y-74295000D01*
X138363252Y-74280858D01*
X138542858Y-74101252D01*
X138557000Y-74115395D01*
X139385139Y-73287255D01*
X139370855Y-73239833D01*
X139592317Y-73198162D01*
X139808441Y-73059090D01*
X139953431Y-72846890D01*
X140004440Y-72595000D01*
X140004440Y-70995000D01*
X139960162Y-70759683D01*
X139821090Y-70543559D01*
X139608890Y-70398569D01*
X139357000Y-70347560D01*
X137757000Y-70347560D01*
X137529000Y-70390461D01*
X137529000Y-70339967D01*
X150575838Y-70339967D01*
X150717883Y-70683743D01*
X150980673Y-70946992D01*
X151324201Y-71089638D01*
X151696167Y-71089962D01*
X152039943Y-70947917D01*
X152303192Y-70685127D01*
X152445838Y-70341599D01*
X152445879Y-70294723D01*
X152791002Y-69949600D01*
X157755737Y-69949600D01*
X157787873Y-69981792D01*
X158131401Y-70124438D01*
X158503367Y-70124762D01*
X158847143Y-69982717D01*
X158905762Y-69924200D01*
X165604337Y-69924200D01*
X165636473Y-69956392D01*
X165980001Y-70099038D01*
X166351967Y-70099362D01*
X166695743Y-69957317D01*
X166728918Y-69924200D01*
X168023000Y-69924200D01*
X168023000Y-78800546D01*
X167732946Y-78994353D01*
X167519699Y-79313500D01*
X166052500Y-79313500D01*
X165761661Y-79371352D01*
X165515099Y-79536099D01*
X164003799Y-81047399D01*
X163839052Y-81293961D01*
X163781200Y-81584800D01*
X163781200Y-89861537D01*
X163749008Y-89893673D01*
X163606362Y-90237201D01*
X163606038Y-90609167D01*
X163748083Y-90952943D01*
X164010873Y-91216192D01*
X164354401Y-91358838D01*
X164726367Y-91359162D01*
X165011436Y-91241374D01*
X185972381Y-91241374D01*
X186174132Y-91652263D01*
X186514822Y-91939502D01*
X186939500Y-92074500D01*
X187214500Y-92074500D01*
X187214500Y-91066500D01*
X186098546Y-91066500D01*
X185972381Y-91241374D01*
X165011436Y-91241374D01*
X165070143Y-91217117D01*
X165333392Y-90954327D01*
X165476038Y-90610799D01*
X165476360Y-90240631D01*
X183540271Y-90240631D01*
X183681932Y-90650549D01*
X183969679Y-90975052D01*
X184343562Y-91158768D01*
X184514500Y-91032234D01*
X184514500Y-90066500D01*
X184768500Y-90066500D01*
X184768500Y-91032234D01*
X184939438Y-91158768D01*
X185313321Y-90975052D01*
X185601068Y-90650549D01*
X185605533Y-90637626D01*
X185972381Y-90637626D01*
X186098546Y-90812500D01*
X187214500Y-90812500D01*
X187214500Y-89804500D01*
X186939500Y-89804500D01*
X186514822Y-89939498D01*
X186174132Y-90226737D01*
X185972381Y-90637626D01*
X185605533Y-90637626D01*
X185742729Y-90240631D01*
X185594063Y-90066500D01*
X184768500Y-90066500D01*
X184514500Y-90066500D01*
X183688937Y-90066500D01*
X183540271Y-90240631D01*
X165476360Y-90240631D01*
X165476362Y-90238833D01*
X165334317Y-89895057D01*
X165301200Y-89861882D01*
X165301200Y-86735667D01*
X177309338Y-86735667D01*
X177451383Y-87079443D01*
X177484500Y-87112618D01*
X177484500Y-88591537D01*
X177452308Y-88623673D01*
X177309662Y-88967201D01*
X177309338Y-89339167D01*
X177451383Y-89682943D01*
X177714173Y-89946192D01*
X178057701Y-90088838D01*
X178429667Y-90089162D01*
X178773443Y-89947117D01*
X179036692Y-89684327D01*
X179055775Y-89638369D01*
X183540271Y-89638369D01*
X183688937Y-89812500D01*
X184514500Y-89812500D01*
X184514500Y-88846766D01*
X184768500Y-88846766D01*
X184768500Y-89812500D01*
X185594063Y-89812500D01*
X185742729Y-89638369D01*
X185601068Y-89228451D01*
X185313321Y-88903948D01*
X184939438Y-88720232D01*
X184768500Y-88846766D01*
X184514500Y-88846766D01*
X184343562Y-88720232D01*
X183969679Y-88903948D01*
X183681932Y-89228451D01*
X183540271Y-89638369D01*
X179055775Y-89638369D01*
X179179338Y-89340799D01*
X179179662Y-88968833D01*
X179037617Y-88625057D01*
X179004500Y-88591882D01*
X179004500Y-87112963D01*
X179036692Y-87080827D01*
X179179338Y-86737299D01*
X179179662Y-86365333D01*
X179037617Y-86021557D01*
X178774827Y-85758308D01*
X178431299Y-85615662D01*
X178059333Y-85615338D01*
X177715557Y-85757383D01*
X177452308Y-86020173D01*
X177309662Y-86363701D01*
X177309338Y-86735667D01*
X165301200Y-86735667D01*
X165301200Y-85240631D01*
X183540271Y-85240631D01*
X183681932Y-85650549D01*
X183969679Y-85975052D01*
X184343562Y-86158768D01*
X184514500Y-86032234D01*
X184514500Y-85066500D01*
X184768500Y-85066500D01*
X184768500Y-86032234D01*
X184939438Y-86158768D01*
X185313321Y-85975052D01*
X185601068Y-85650549D01*
X185742729Y-85240631D01*
X185594063Y-85066500D01*
X184768500Y-85066500D01*
X184514500Y-85066500D01*
X183688937Y-85066500D01*
X183540271Y-85240631D01*
X165301200Y-85240631D01*
X165301200Y-84638369D01*
X183540271Y-84638369D01*
X183688937Y-84812500D01*
X184514500Y-84812500D01*
X184514500Y-83846766D01*
X184768500Y-83846766D01*
X184768500Y-84812500D01*
X185594063Y-84812500D01*
X185742729Y-84638369D01*
X185605534Y-84241374D01*
X185972381Y-84241374D01*
X186174132Y-84652263D01*
X186514822Y-84939502D01*
X186939500Y-85074500D01*
X187214500Y-85074500D01*
X187214500Y-84066500D01*
X186098546Y-84066500D01*
X185972381Y-84241374D01*
X185605534Y-84241374D01*
X185601068Y-84228451D01*
X185313321Y-83903948D01*
X184939438Y-83720232D01*
X184768500Y-83846766D01*
X184514500Y-83846766D01*
X184343562Y-83720232D01*
X183969679Y-83903948D01*
X183681932Y-84228451D01*
X183540271Y-84638369D01*
X165301200Y-84638369D01*
X165301200Y-81899602D01*
X166367302Y-80833500D01*
X167519699Y-80833500D01*
X167732946Y-81152647D01*
X167734179Y-81153471D01*
X167697683Y-81160338D01*
X167481559Y-81299410D01*
X167336569Y-81511610D01*
X167285560Y-81763500D01*
X167285560Y-83463500D01*
X167329838Y-83698817D01*
X167468910Y-83914941D01*
X167681110Y-84059931D01*
X167933000Y-84110940D01*
X169633000Y-84110940D01*
X169868317Y-84066662D01*
X170084441Y-83927590D01*
X170229431Y-83715390D01*
X170243086Y-83647959D01*
X170272946Y-83692647D01*
X170754715Y-84014554D01*
X171323000Y-84127593D01*
X171891285Y-84014554D01*
X172373054Y-83692647D01*
X172593000Y-83363474D01*
X172812946Y-83692647D01*
X173294715Y-84014554D01*
X173863000Y-84127593D01*
X174431285Y-84014554D01*
X174913054Y-83692647D01*
X174949817Y-83637626D01*
X185972381Y-83637626D01*
X186098546Y-83812500D01*
X187214500Y-83812500D01*
X187214500Y-82804500D01*
X186939500Y-82804500D01*
X186514822Y-82939498D01*
X186174132Y-83226737D01*
X185972381Y-83637626D01*
X174949817Y-83637626D01*
X175234961Y-83210878D01*
X175348000Y-82642593D01*
X175348000Y-82584407D01*
X175234961Y-82016122D01*
X174913054Y-81534353D01*
X174629899Y-81345155D01*
X174629924Y-81345145D01*
X175058183Y-80954858D01*
X175290207Y-80460795D01*
X177760716Y-80460795D01*
X178009106Y-81061943D01*
X178468637Y-81522278D01*
X179069352Y-81771716D01*
X179719795Y-81772284D01*
X180320943Y-81523894D01*
X180555715Y-81289532D01*
X182923073Y-81289532D01*
X183021736Y-81556387D01*
X183631461Y-81782908D01*
X184281460Y-81758856D01*
X184770264Y-81556387D01*
X184868927Y-81289532D01*
X183896000Y-80316605D01*
X182923073Y-81289532D01*
X180555715Y-81289532D01*
X180781278Y-81064363D01*
X181030716Y-80463648D01*
X181031232Y-79872461D01*
X182250092Y-79872461D01*
X182274144Y-80522460D01*
X182476613Y-81011264D01*
X182743468Y-81109927D01*
X183716395Y-80137000D01*
X184075605Y-80137000D01*
X185048532Y-81109927D01*
X185315387Y-81011264D01*
X185541908Y-80401539D01*
X185517856Y-79751540D01*
X185315387Y-79262736D01*
X185048532Y-79164073D01*
X184075605Y-80137000D01*
X183716395Y-80137000D01*
X182743468Y-79164073D01*
X182476613Y-79262736D01*
X182250092Y-79872461D01*
X181031232Y-79872461D01*
X181031284Y-79813205D01*
X180782894Y-79212057D01*
X180555703Y-78984468D01*
X182923073Y-78984468D01*
X183896000Y-79957395D01*
X184868927Y-78984468D01*
X184770264Y-78717613D01*
X184160539Y-78491092D01*
X183510540Y-78515144D01*
X183021736Y-78717613D01*
X182923073Y-78984468D01*
X180555703Y-78984468D01*
X180323363Y-78751722D01*
X179722648Y-78502284D01*
X179072205Y-78501716D01*
X178471057Y-78750106D01*
X178010722Y-79209637D01*
X177761284Y-79810352D01*
X177760716Y-80460795D01*
X175290207Y-80460795D01*
X175304486Y-80430392D01*
X175183819Y-80200500D01*
X173990000Y-80200500D01*
X173990000Y-80220500D01*
X173736000Y-80220500D01*
X173736000Y-80200500D01*
X173716000Y-80200500D01*
X173716000Y-79946500D01*
X173736000Y-79946500D01*
X173736000Y-78753345D01*
X173990000Y-78753345D01*
X173990000Y-79946500D01*
X175183819Y-79946500D01*
X175304486Y-79716608D01*
X175058183Y-79192142D01*
X174629924Y-78801855D01*
X174219890Y-78632024D01*
X173990000Y-78753345D01*
X173736000Y-78753345D01*
X173506110Y-78632024D01*
X173096076Y-78801855D01*
X172667817Y-79192142D01*
X172600702Y-79335053D01*
X172373054Y-78994353D01*
X171891285Y-78672446D01*
X171323000Y-78559407D01*
X170754715Y-78672446D01*
X170272946Y-78994353D01*
X170053000Y-79323526D01*
X169833054Y-78994353D01*
X169543000Y-78800546D01*
X169543000Y-73960795D01*
X177760716Y-73960795D01*
X178009106Y-74561943D01*
X178468637Y-75022278D01*
X179069352Y-75271716D01*
X179719795Y-75272284D01*
X180320943Y-75023894D01*
X180555715Y-74789532D01*
X182923073Y-74789532D01*
X183021736Y-75056387D01*
X183631461Y-75282908D01*
X184281460Y-75258856D01*
X184770264Y-75056387D01*
X184868927Y-74789532D01*
X183896000Y-73816605D01*
X182923073Y-74789532D01*
X180555715Y-74789532D01*
X180781278Y-74564363D01*
X181030716Y-73963648D01*
X181031232Y-73372461D01*
X182250092Y-73372461D01*
X182274144Y-74022460D01*
X182476613Y-74511264D01*
X182743468Y-74609927D01*
X183716395Y-73637000D01*
X184075605Y-73637000D01*
X185048532Y-74609927D01*
X185315387Y-74511264D01*
X185541908Y-73901539D01*
X185517856Y-73251540D01*
X185315387Y-72762736D01*
X185048532Y-72664073D01*
X184075605Y-73637000D01*
X183716395Y-73637000D01*
X182743468Y-72664073D01*
X182476613Y-72762736D01*
X182250092Y-73372461D01*
X181031232Y-73372461D01*
X181031284Y-73313205D01*
X180782894Y-72712057D01*
X180555703Y-72484468D01*
X182923073Y-72484468D01*
X183896000Y-73457395D01*
X184868927Y-72484468D01*
X184770264Y-72217613D01*
X184160539Y-71991092D01*
X183510540Y-72015144D01*
X183021736Y-72217613D01*
X182923073Y-72484468D01*
X180555703Y-72484468D01*
X180323363Y-72251722D01*
X179722648Y-72002284D01*
X179072205Y-72001716D01*
X178471057Y-72250106D01*
X178010722Y-72709637D01*
X177761284Y-73310352D01*
X177760716Y-73960795D01*
X169543000Y-73960795D01*
X169543000Y-69924200D01*
X173452937Y-69924200D01*
X173485073Y-69956392D01*
X173828601Y-70099038D01*
X174200567Y-70099362D01*
X174544343Y-69957317D01*
X174807592Y-69694527D01*
X174950238Y-69350999D01*
X174950562Y-68979033D01*
X174808517Y-68635257D01*
X174545727Y-68372008D01*
X174202199Y-68229362D01*
X173830233Y-68229038D01*
X173486457Y-68371083D01*
X173453282Y-68404200D01*
X166729263Y-68404200D01*
X166697127Y-68372008D01*
X166353599Y-68229362D01*
X165981633Y-68229038D01*
X165637857Y-68371083D01*
X165604682Y-68404200D01*
X158855307Y-68404200D01*
X158848527Y-68397408D01*
X158504999Y-68254762D01*
X158133033Y-68254438D01*
X157789257Y-68396483D01*
X157756082Y-68429600D01*
X152476200Y-68429600D01*
X152185361Y-68487452D01*
X151938799Y-68652199D01*
X151371320Y-69219678D01*
X151325833Y-69219638D01*
X150982057Y-69361683D01*
X150718808Y-69624473D01*
X150576162Y-69968001D01*
X150575838Y-70339967D01*
X137529000Y-70339967D01*
X137529000Y-70055940D01*
X137894000Y-70055940D01*
X138129317Y-70011662D01*
X138345441Y-69872590D01*
X138490431Y-69660390D01*
X138541440Y-69408500D01*
X138541440Y-66960695D01*
X150637716Y-66960695D01*
X150886106Y-67561843D01*
X151345637Y-68022178D01*
X151946352Y-68271616D01*
X152596795Y-68272184D01*
X153197943Y-68023794D01*
X153432715Y-67789432D01*
X155800073Y-67789432D01*
X155898736Y-68056287D01*
X156508461Y-68282808D01*
X157158460Y-68258756D01*
X157647264Y-68056287D01*
X157745927Y-67789432D01*
X156773000Y-66816505D01*
X155800073Y-67789432D01*
X153432715Y-67789432D01*
X153658278Y-67564263D01*
X153907716Y-66963548D01*
X153908232Y-66372361D01*
X155127092Y-66372361D01*
X155151144Y-67022360D01*
X155353613Y-67511164D01*
X155620468Y-67609827D01*
X156593395Y-66636900D01*
X156952605Y-66636900D01*
X157925532Y-67609827D01*
X158192387Y-67511164D01*
X158396893Y-66960695D01*
X158511716Y-66960695D01*
X158760106Y-67561843D01*
X159219637Y-68022178D01*
X159820352Y-68271616D01*
X160470795Y-68272184D01*
X161071943Y-68023794D01*
X161306715Y-67789432D01*
X163674073Y-67789432D01*
X163772736Y-68056287D01*
X164382461Y-68282808D01*
X165032460Y-68258756D01*
X165521264Y-68056287D01*
X165619927Y-67789432D01*
X164647000Y-66816505D01*
X163674073Y-67789432D01*
X161306715Y-67789432D01*
X161532278Y-67564263D01*
X161781716Y-66963548D01*
X161782232Y-66372361D01*
X163001092Y-66372361D01*
X163025144Y-67022360D01*
X163227613Y-67511164D01*
X163494468Y-67609827D01*
X164467395Y-66636900D01*
X164826605Y-66636900D01*
X165799532Y-67609827D01*
X166066387Y-67511164D01*
X166270893Y-66960695D01*
X166385716Y-66960695D01*
X166634106Y-67561843D01*
X167093637Y-68022178D01*
X167694352Y-68271616D01*
X168344795Y-68272184D01*
X168945943Y-68023794D01*
X169180715Y-67789432D01*
X171548073Y-67789432D01*
X171646736Y-68056287D01*
X172256461Y-68282808D01*
X172906460Y-68258756D01*
X173395264Y-68056287D01*
X173493927Y-67789432D01*
X172521000Y-66816505D01*
X171548073Y-67789432D01*
X169180715Y-67789432D01*
X169406278Y-67564263D01*
X169655716Y-66963548D01*
X169656232Y-66372361D01*
X170875092Y-66372361D01*
X170899144Y-67022360D01*
X171101613Y-67511164D01*
X171368468Y-67609827D01*
X172341395Y-66636900D01*
X172700605Y-66636900D01*
X173673532Y-67609827D01*
X173940387Y-67511164D01*
X174144893Y-66960695D01*
X174386716Y-66960695D01*
X174635106Y-67561843D01*
X175094637Y-68022178D01*
X175695352Y-68271616D01*
X176345795Y-68272184D01*
X176946943Y-68023794D01*
X177181715Y-67789432D01*
X179549073Y-67789432D01*
X179647736Y-68056287D01*
X180257461Y-68282808D01*
X180907460Y-68258756D01*
X181396264Y-68056287D01*
X181494927Y-67789432D01*
X180522000Y-66816505D01*
X179549073Y-67789432D01*
X177181715Y-67789432D01*
X177407278Y-67564263D01*
X177656716Y-66963548D01*
X177657232Y-66372361D01*
X178876092Y-66372361D01*
X178900144Y-67022360D01*
X179102613Y-67511164D01*
X179369468Y-67609827D01*
X180342395Y-66636900D01*
X180701605Y-66636900D01*
X181674532Y-67609827D01*
X181941387Y-67511164D01*
X182167908Y-66901439D01*
X182143856Y-66251440D01*
X181941387Y-65762636D01*
X181674532Y-65663973D01*
X180701605Y-66636900D01*
X180342395Y-66636900D01*
X179369468Y-65663973D01*
X179102613Y-65762636D01*
X178876092Y-66372361D01*
X177657232Y-66372361D01*
X177657284Y-66313105D01*
X177408894Y-65711957D01*
X177181703Y-65484368D01*
X179549073Y-65484368D01*
X180522000Y-66457295D01*
X181494927Y-65484368D01*
X181396264Y-65217513D01*
X180786539Y-64990992D01*
X180136540Y-65015044D01*
X179647736Y-65217513D01*
X179549073Y-65484368D01*
X177181703Y-65484368D01*
X176949363Y-65251622D01*
X176348648Y-65002184D01*
X175698205Y-65001616D01*
X175097057Y-65250006D01*
X174636722Y-65709537D01*
X174387284Y-66310252D01*
X174386716Y-66960695D01*
X174144893Y-66960695D01*
X174166908Y-66901439D01*
X174142856Y-66251440D01*
X173940387Y-65762636D01*
X173673532Y-65663973D01*
X172700605Y-66636900D01*
X172341395Y-66636900D01*
X171368468Y-65663973D01*
X171101613Y-65762636D01*
X170875092Y-66372361D01*
X169656232Y-66372361D01*
X169656284Y-66313105D01*
X169407894Y-65711957D01*
X169180703Y-65484368D01*
X171548073Y-65484368D01*
X172521000Y-66457295D01*
X173493927Y-65484368D01*
X173395264Y-65217513D01*
X172785539Y-64990992D01*
X172135540Y-65015044D01*
X171646736Y-65217513D01*
X171548073Y-65484368D01*
X169180703Y-65484368D01*
X168948363Y-65251622D01*
X168347648Y-65002184D01*
X167697205Y-65001616D01*
X167096057Y-65250006D01*
X166635722Y-65709537D01*
X166386284Y-66310252D01*
X166385716Y-66960695D01*
X166270893Y-66960695D01*
X166292908Y-66901439D01*
X166268856Y-66251440D01*
X166066387Y-65762636D01*
X165799532Y-65663973D01*
X164826605Y-66636900D01*
X164467395Y-66636900D01*
X163494468Y-65663973D01*
X163227613Y-65762636D01*
X163001092Y-66372361D01*
X161782232Y-66372361D01*
X161782284Y-66313105D01*
X161533894Y-65711957D01*
X161306703Y-65484368D01*
X163674073Y-65484368D01*
X164647000Y-66457295D01*
X165619927Y-65484368D01*
X165521264Y-65217513D01*
X164911539Y-64990992D01*
X164261540Y-65015044D01*
X163772736Y-65217513D01*
X163674073Y-65484368D01*
X161306703Y-65484368D01*
X161074363Y-65251622D01*
X160473648Y-65002184D01*
X159823205Y-65001616D01*
X159222057Y-65250006D01*
X158761722Y-65709537D01*
X158512284Y-66310252D01*
X158511716Y-66960695D01*
X158396893Y-66960695D01*
X158418908Y-66901439D01*
X158394856Y-66251440D01*
X158192387Y-65762636D01*
X157925532Y-65663973D01*
X156952605Y-66636900D01*
X156593395Y-66636900D01*
X155620468Y-65663973D01*
X155353613Y-65762636D01*
X155127092Y-66372361D01*
X153908232Y-66372361D01*
X153908284Y-66313105D01*
X153659894Y-65711957D01*
X153432703Y-65484368D01*
X155800073Y-65484368D01*
X156773000Y-66457295D01*
X157745927Y-65484368D01*
X157647264Y-65217513D01*
X157037539Y-64990992D01*
X156387540Y-65015044D01*
X155898736Y-65217513D01*
X155800073Y-65484368D01*
X153432703Y-65484368D01*
X153200363Y-65251622D01*
X152599648Y-65002184D01*
X151949205Y-65001616D01*
X151348057Y-65250006D01*
X150887722Y-65709537D01*
X150638284Y-66310252D01*
X150637716Y-66960695D01*
X138541440Y-66960695D01*
X138541440Y-65908500D01*
X138497162Y-65673183D01*
X138358090Y-65457059D01*
X138145890Y-65312069D01*
X137894000Y-65261060D01*
X134394000Y-65261060D01*
X134158683Y-65305338D01*
X133942559Y-65444410D01*
X133829000Y-65610609D01*
X133829000Y-64944250D01*
X133670250Y-64785500D01*
X131571000Y-64785500D01*
X131571000Y-66884750D01*
X131729750Y-67043500D01*
X133320310Y-67043500D01*
X133553699Y-66946827D01*
X133732327Y-66768198D01*
X133746560Y-66733837D01*
X133746560Y-69408500D01*
X133790838Y-69643817D01*
X133929910Y-69859941D01*
X134142110Y-70004931D01*
X134394000Y-70055940D01*
X134759000Y-70055940D01*
X134759000Y-86179500D01*
X126812440Y-86179500D01*
X126644878Y-86067539D01*
X126076593Y-85954500D01*
X126018407Y-85954500D01*
X125450122Y-86067539D01*
X124968353Y-86389446D01*
X124646446Y-86871215D01*
X124535000Y-87431491D01*
X124535000Y-84042250D01*
X124562500Y-84042250D01*
X124562500Y-84732810D01*
X124659173Y-84966199D01*
X124837802Y-85144827D01*
X125071191Y-85241500D01*
X125761750Y-85241500D01*
X125920500Y-85082750D01*
X125920500Y-83883500D01*
X126174500Y-83883500D01*
X126174500Y-85082750D01*
X126333250Y-85241500D01*
X127023809Y-85241500D01*
X127257198Y-85144827D01*
X127435827Y-84966199D01*
X127532500Y-84732810D01*
X127532500Y-84042250D01*
X127373750Y-83883500D01*
X126174500Y-83883500D01*
X125920500Y-83883500D01*
X124721250Y-83883500D01*
X124562500Y-84042250D01*
X124535000Y-84042250D01*
X124535000Y-81224509D01*
X124646446Y-81784785D01*
X124968353Y-82266554D01*
X125012277Y-82295903D01*
X124837802Y-82368173D01*
X124659173Y-82546801D01*
X124562500Y-82780190D01*
X124562500Y-83470750D01*
X124721250Y-83629500D01*
X125920500Y-83629500D01*
X125920500Y-83609500D01*
X126174500Y-83609500D01*
X126174500Y-83629500D01*
X127373750Y-83629500D01*
X127532500Y-83470750D01*
X127532500Y-82780190D01*
X127435827Y-82546801D01*
X127257198Y-82368173D01*
X127082723Y-82295903D01*
X127126647Y-82266554D01*
X127448554Y-81784785D01*
X127561593Y-81216500D01*
X127448554Y-80648215D01*
X127126647Y-80166446D01*
X126797474Y-79946500D01*
X127126647Y-79726554D01*
X127448554Y-79244785D01*
X127561593Y-78676500D01*
X127448554Y-78108215D01*
X127126647Y-77626446D01*
X126797474Y-77406500D01*
X127126647Y-77186554D01*
X127448554Y-76704785D01*
X127561593Y-76136500D01*
X127448554Y-75568215D01*
X127126647Y-75086446D01*
X126797474Y-74866500D01*
X127126647Y-74646554D01*
X127448554Y-74164785D01*
X127561593Y-73596500D01*
X127448554Y-73028215D01*
X127126647Y-72546446D01*
X126797474Y-72326500D01*
X127126647Y-72106554D01*
X127448554Y-71624785D01*
X127561593Y-71056500D01*
X127448554Y-70488215D01*
X127126647Y-70006446D01*
X126797474Y-69786500D01*
X127126647Y-69566554D01*
X127448554Y-69084785D01*
X127561593Y-68516500D01*
X127448554Y-67948215D01*
X127126647Y-67466446D01*
X126644878Y-67144539D01*
X126076593Y-67031500D01*
X126018407Y-67031500D01*
X125450122Y-67144539D01*
X124968353Y-67466446D01*
X124646446Y-67948215D01*
X124535000Y-68508491D01*
X124535000Y-64944250D01*
X129059000Y-64944250D01*
X129059000Y-66534809D01*
X129155673Y-66768198D01*
X129334301Y-66946827D01*
X129567690Y-67043500D01*
X131158250Y-67043500D01*
X131317000Y-66884750D01*
X131317000Y-64785500D01*
X129217750Y-64785500D01*
X129059000Y-64944250D01*
X124535000Y-64944250D01*
X124535000Y-61473619D01*
X125033613Y-61473619D01*
X125373155Y-62295372D01*
X126001321Y-62924636D01*
X126822481Y-63265611D01*
X127711619Y-63266387D01*
X128533372Y-62926845D01*
X128678278Y-62782191D01*
X129059000Y-62782191D01*
X129059000Y-64372750D01*
X129217750Y-64531500D01*
X131317000Y-64531500D01*
X131317000Y-62432250D01*
X131571000Y-62432250D01*
X131571000Y-64531500D01*
X133670250Y-64531500D01*
X133829000Y-64372750D01*
X133829000Y-62782191D01*
X133732327Y-62548802D01*
X133553699Y-62370173D01*
X133320310Y-62273500D01*
X131729750Y-62273500D01*
X131571000Y-62432250D01*
X131317000Y-62432250D01*
X131158250Y-62273500D01*
X129567690Y-62273500D01*
X129334301Y-62370173D01*
X129155673Y-62548802D01*
X129059000Y-62782191D01*
X128678278Y-62782191D01*
X129162636Y-62298679D01*
X129503611Y-61477519D01*
X129504387Y-60588381D01*
X129451629Y-60460695D01*
X150637716Y-60460695D01*
X150886106Y-61061843D01*
X151345637Y-61522178D01*
X151946352Y-61771616D01*
X152596795Y-61772184D01*
X153197943Y-61523794D01*
X153432715Y-61289432D01*
X155800073Y-61289432D01*
X155898736Y-61556287D01*
X156508461Y-61782808D01*
X157158460Y-61758756D01*
X157647264Y-61556287D01*
X157745927Y-61289432D01*
X156773000Y-60316505D01*
X155800073Y-61289432D01*
X153432715Y-61289432D01*
X153658278Y-61064263D01*
X153907716Y-60463548D01*
X153908232Y-59872361D01*
X155127092Y-59872361D01*
X155151144Y-60522360D01*
X155353613Y-61011164D01*
X155620468Y-61109827D01*
X156593395Y-60136900D01*
X156952605Y-60136900D01*
X157925532Y-61109827D01*
X158192387Y-61011164D01*
X158396893Y-60460695D01*
X158511716Y-60460695D01*
X158760106Y-61061843D01*
X159219637Y-61522178D01*
X159820352Y-61771616D01*
X160470795Y-61772184D01*
X161071943Y-61523794D01*
X161306715Y-61289432D01*
X163674073Y-61289432D01*
X163772736Y-61556287D01*
X164382461Y-61782808D01*
X165032460Y-61758756D01*
X165521264Y-61556287D01*
X165619927Y-61289432D01*
X164647000Y-60316505D01*
X163674073Y-61289432D01*
X161306715Y-61289432D01*
X161532278Y-61064263D01*
X161781716Y-60463548D01*
X161782232Y-59872361D01*
X163001092Y-59872361D01*
X163025144Y-60522360D01*
X163227613Y-61011164D01*
X163494468Y-61109827D01*
X164467395Y-60136900D01*
X164826605Y-60136900D01*
X165799532Y-61109827D01*
X166066387Y-61011164D01*
X166270893Y-60460695D01*
X166385716Y-60460695D01*
X166634106Y-61061843D01*
X167093637Y-61522178D01*
X167694352Y-61771616D01*
X168344795Y-61772184D01*
X168945943Y-61523794D01*
X169180715Y-61289432D01*
X171548073Y-61289432D01*
X171646736Y-61556287D01*
X172256461Y-61782808D01*
X172906460Y-61758756D01*
X173395264Y-61556287D01*
X173493927Y-61289432D01*
X172521000Y-60316505D01*
X171548073Y-61289432D01*
X169180715Y-61289432D01*
X169406278Y-61064263D01*
X169655716Y-60463548D01*
X169656232Y-59872361D01*
X170875092Y-59872361D01*
X170899144Y-60522360D01*
X171101613Y-61011164D01*
X171368468Y-61109827D01*
X172341395Y-60136900D01*
X172700605Y-60136900D01*
X173673532Y-61109827D01*
X173940387Y-61011164D01*
X174144893Y-60460695D01*
X174386716Y-60460695D01*
X174635106Y-61061843D01*
X175094637Y-61522178D01*
X175695352Y-61771616D01*
X176345795Y-61772184D01*
X176946943Y-61523794D01*
X177181715Y-61289432D01*
X179549073Y-61289432D01*
X179647736Y-61556287D01*
X180257461Y-61782808D01*
X180907460Y-61758756D01*
X181396264Y-61556287D01*
X181426828Y-61473619D01*
X183089613Y-61473619D01*
X183429155Y-62295372D01*
X184057321Y-62924636D01*
X184878481Y-63265611D01*
X185767619Y-63266387D01*
X186589372Y-62926845D01*
X187218636Y-62298679D01*
X187559611Y-61477519D01*
X187560387Y-60588381D01*
X187220845Y-59766628D01*
X186592679Y-59137364D01*
X185771519Y-58796389D01*
X184882381Y-58795613D01*
X184060628Y-59135155D01*
X183431364Y-59763321D01*
X183090389Y-60584481D01*
X183089613Y-61473619D01*
X181426828Y-61473619D01*
X181494927Y-61289432D01*
X180522000Y-60316505D01*
X179549073Y-61289432D01*
X177181715Y-61289432D01*
X177407278Y-61064263D01*
X177656716Y-60463548D01*
X177657232Y-59872361D01*
X178876092Y-59872361D01*
X178900144Y-60522360D01*
X179102613Y-61011164D01*
X179369468Y-61109827D01*
X180342395Y-60136900D01*
X180701605Y-60136900D01*
X181674532Y-61109827D01*
X181941387Y-61011164D01*
X182167908Y-60401439D01*
X182143856Y-59751440D01*
X181941387Y-59262636D01*
X181674532Y-59163973D01*
X180701605Y-60136900D01*
X180342395Y-60136900D01*
X179369468Y-59163973D01*
X179102613Y-59262636D01*
X178876092Y-59872361D01*
X177657232Y-59872361D01*
X177657284Y-59813105D01*
X177408894Y-59211957D01*
X177181703Y-58984368D01*
X179549073Y-58984368D01*
X180522000Y-59957295D01*
X181494927Y-58984368D01*
X181396264Y-58717513D01*
X180786539Y-58490992D01*
X180136540Y-58515044D01*
X179647736Y-58717513D01*
X179549073Y-58984368D01*
X177181703Y-58984368D01*
X176949363Y-58751622D01*
X176348648Y-58502184D01*
X175698205Y-58501616D01*
X175097057Y-58750006D01*
X174636722Y-59209537D01*
X174387284Y-59810252D01*
X174386716Y-60460695D01*
X174144893Y-60460695D01*
X174166908Y-60401439D01*
X174142856Y-59751440D01*
X173940387Y-59262636D01*
X173673532Y-59163973D01*
X172700605Y-60136900D01*
X172341395Y-60136900D01*
X171368468Y-59163973D01*
X171101613Y-59262636D01*
X170875092Y-59872361D01*
X169656232Y-59872361D01*
X169656284Y-59813105D01*
X169407894Y-59211957D01*
X169180703Y-58984368D01*
X171548073Y-58984368D01*
X172521000Y-59957295D01*
X173493927Y-58984368D01*
X173395264Y-58717513D01*
X172785539Y-58490992D01*
X172135540Y-58515044D01*
X171646736Y-58717513D01*
X171548073Y-58984368D01*
X169180703Y-58984368D01*
X168948363Y-58751622D01*
X168347648Y-58502184D01*
X167697205Y-58501616D01*
X167096057Y-58750006D01*
X166635722Y-59209537D01*
X166386284Y-59810252D01*
X166385716Y-60460695D01*
X166270893Y-60460695D01*
X166292908Y-60401439D01*
X166268856Y-59751440D01*
X166066387Y-59262636D01*
X165799532Y-59163973D01*
X164826605Y-60136900D01*
X164467395Y-60136900D01*
X163494468Y-59163973D01*
X163227613Y-59262636D01*
X163001092Y-59872361D01*
X161782232Y-59872361D01*
X161782284Y-59813105D01*
X161533894Y-59211957D01*
X161306703Y-58984368D01*
X163674073Y-58984368D01*
X164647000Y-59957295D01*
X165619927Y-58984368D01*
X165521264Y-58717513D01*
X164911539Y-58490992D01*
X164261540Y-58515044D01*
X163772736Y-58717513D01*
X163674073Y-58984368D01*
X161306703Y-58984368D01*
X161074363Y-58751622D01*
X160473648Y-58502184D01*
X159823205Y-58501616D01*
X159222057Y-58750006D01*
X158761722Y-59209537D01*
X158512284Y-59810252D01*
X158511716Y-60460695D01*
X158396893Y-60460695D01*
X158418908Y-60401439D01*
X158394856Y-59751440D01*
X158192387Y-59262636D01*
X157925532Y-59163973D01*
X156952605Y-60136900D01*
X156593395Y-60136900D01*
X155620468Y-59163973D01*
X155353613Y-59262636D01*
X155127092Y-59872361D01*
X153908232Y-59872361D01*
X153908284Y-59813105D01*
X153659894Y-59211957D01*
X153432703Y-58984368D01*
X155800073Y-58984368D01*
X156773000Y-59957295D01*
X157745927Y-58984368D01*
X157647264Y-58717513D01*
X157037539Y-58490992D01*
X156387540Y-58515044D01*
X155898736Y-58717513D01*
X155800073Y-58984368D01*
X153432703Y-58984368D01*
X153200363Y-58751622D01*
X152599648Y-58502184D01*
X151949205Y-58501616D01*
X151348057Y-58750006D01*
X150887722Y-59209537D01*
X150638284Y-59810252D01*
X150637716Y-60460695D01*
X129451629Y-60460695D01*
X129164845Y-59766628D01*
X128536679Y-59137364D01*
X127715519Y-58796389D01*
X126826381Y-58795613D01*
X126004628Y-59135155D01*
X125375364Y-59763321D01*
X125034389Y-60584481D01*
X125033613Y-61473619D01*
X124535000Y-61473619D01*
X124535000Y-58241000D01*
X188115000Y-58241000D01*
X188115000Y-82922594D01*
G36*
X124646446Y-69084785D02*
X124968353Y-69566554D01*
X125297526Y-69786500D01*
X124968353Y-70006446D01*
X124646446Y-70488215D01*
X124535000Y-71048491D01*
X124535000Y-68524509D01*
X124646446Y-69084785D01*
X124646446Y-69084785D01*
G37*
X124646446Y-69084785D02*
X124968353Y-69566554D01*
X125297526Y-69786500D01*
X124968353Y-70006446D01*
X124646446Y-70488215D01*
X124535000Y-71048491D01*
X124535000Y-68524509D01*
X124646446Y-69084785D01*
M02*
