M48
;DRILL file {KiCad 4.0.6} date 04/22/17 16:30:38
;FORMAT={-:-/ absolute / inch / decimal}
FMAT,2
INCH,TZ
T1C0.031
T2C0.039
T3C0.047
T4C0.053
T5C0.126
%
G90
G05
M72
T1
X6.7491Y-2.935
X6.8475Y-2.935
T2
X7.19Y-2.9375
X7.19Y-3.0375
X7.19Y-3.1375
X7.19Y-3.2375
X7.19Y-3.3375
T3
X5.67Y-4.68
X5.8078Y-4.68
X6.395Y-4.68
X6.5328Y-4.68
T4
X5.145Y-3.7225
X5.145Y-4.2028
X5.3812Y-4.3032
X5.6174Y-3.7225
X5.6174Y-4.2028
X5.87Y-3.7225
X5.87Y-4.2028
X6.1062Y-4.3032
X6.3424Y-3.7225
X6.3424Y-4.2028
X6.595Y-3.7225
X6.595Y-4.2028
X6.8312Y-4.3032
X7.0674Y-3.7225
X7.0674Y-4.2028
T5
X5.0778Y-2.6178
X5.0778Y-4.7044
X7.1644Y-2.6178
X7.1644Y-4.7044
T0
M30
