G04 #@! TF.FileFunction,Copper,L1,Top,Signal*
%FSLAX46Y46*%
G04 Gerber Fmt 4.6, Leading zero omitted, Abs format (unit mm)*
G04 Created by KiCad (PCBNEW 4.0.6) date 04/22/17 16:30:30*
%MOMM*%
%LPD*%
G01*
G04 APERTURE LIST*
%ADD10C,0.100000*%
%ADD11C,2.300000*%
%ADD12R,1.600000X1.600000*%
%ADD13C,1.600000*%
%ADD14R,0.800000X0.800000*%
%ADD15R,2.500000X1.800000*%
%ADD16R,1.700000X1.700000*%
%ADD17O,1.700000X1.700000*%
%ADD18C,2.400000*%
%ADD19R,2.400000X2.400000*%
%ADD20R,0.900000X0.800000*%
%ADD21R,0.500000X0.900000*%
%ADD22C,1.500000*%
%ADD23C,0.250000*%
%ADD24C,0.254000*%
G04 APERTURE END LIST*
D10*
D11*
X167513000Y-94551500D03*
X173513000Y-109301500D03*
X167513000Y-106751500D03*
X179513000Y-106751500D03*
X179513000Y-94551500D03*
D12*
X173926500Y-74549000D03*
D13*
X171426500Y-74549000D03*
D14*
X171043500Y-68580000D03*
X169443500Y-68580000D03*
D15*
X138398000Y-86931500D03*
X134398000Y-86931500D03*
X156940000Y-86804500D03*
X152940000Y-86804500D03*
X175323000Y-86423500D03*
X171323000Y-86423500D03*
D16*
X182626000Y-74612500D03*
D17*
X182626000Y-77152500D03*
X182626000Y-79692500D03*
X182626000Y-82232500D03*
X182626000Y-84772500D03*
D18*
X147518000Y-118872000D03*
D19*
X144018000Y-118872000D03*
D18*
X165933000Y-118872000D03*
D19*
X162433000Y-118872000D03*
D20*
X129064000Y-85854500D03*
X129064000Y-87754500D03*
X131064000Y-86804500D03*
X147526500Y-85854500D03*
X147526500Y-87754500D03*
X149526500Y-86804500D03*
X165941500Y-85854500D03*
X165941500Y-87754500D03*
X167941500Y-86804500D03*
D21*
X173978000Y-68580000D03*
X172478000Y-68580000D03*
X129032000Y-84201000D03*
X130532000Y-84201000D03*
X147522500Y-84201000D03*
X149022500Y-84201000D03*
X165937500Y-84201000D03*
X167437500Y-84201000D03*
D11*
X130683000Y-94551500D03*
X136683000Y-109301500D03*
X130683000Y-106751500D03*
X142683000Y-106751500D03*
X142683000Y-94551500D03*
X149098000Y-94551500D03*
X155098000Y-109301500D03*
X149098000Y-106751500D03*
X161098000Y-106751500D03*
X161098000Y-94551500D03*
D22*
X180530500Y-74612500D02*
X182626000Y-74612500D01*
X180530500Y-74612500D02*
X173990000Y-74612500D01*
D23*
X173990000Y-74612500D02*
X173926500Y-74549000D01*
X173926500Y-74549000D02*
X173926500Y-68631500D01*
X173926500Y-68631500D02*
X173978000Y-68580000D01*
D22*
X138398000Y-86931500D02*
X138398000Y-102466500D01*
X138398000Y-102466500D02*
X142683000Y-106751500D01*
X175323000Y-86423500D02*
X175323000Y-102561500D01*
X175323000Y-102561500D02*
X179513000Y-106751500D01*
X156940000Y-86804500D02*
X156940000Y-102593500D01*
X156940000Y-102593500D02*
X161098000Y-106751500D01*
X142683000Y-94551500D02*
X142683000Y-96177845D01*
X142683000Y-96177845D02*
X142683000Y-106751500D01*
X161098000Y-94551500D02*
X161098000Y-106751500D01*
X179513000Y-94551500D02*
X179513000Y-96177845D01*
X179513000Y-96177845D02*
X179513000Y-106751500D01*
D23*
X171043500Y-68580000D02*
X172478000Y-68580000D01*
X129064000Y-87754500D02*
X129064000Y-105132500D01*
X129064000Y-105132500D02*
X130683000Y-106751500D01*
D22*
X130683000Y-106751500D02*
X134398000Y-103036500D01*
X134398000Y-103036500D02*
X134398000Y-86931500D01*
D23*
X147526500Y-87754500D02*
X147526500Y-105180000D01*
X147526500Y-105180000D02*
X149098000Y-106751500D01*
D22*
X152940000Y-86804500D02*
X152940000Y-102909500D01*
X152940000Y-102909500D02*
X149098000Y-106751500D01*
D23*
X165941500Y-87754500D02*
X165941500Y-105180000D01*
X165941500Y-105180000D02*
X167513000Y-106751500D01*
D22*
X171323000Y-86423500D02*
X171323000Y-102941500D01*
X171323000Y-102941500D02*
X167513000Y-106751500D01*
D23*
X182626000Y-77152500D02*
X134239000Y-77152500D01*
X134239000Y-77152500D02*
X129032000Y-82359500D01*
X129032000Y-82359500D02*
X129032000Y-84201000D01*
X129064000Y-85854500D02*
X129064000Y-84233000D01*
X129064000Y-84233000D02*
X129032000Y-84201000D01*
X182626000Y-79692500D02*
X151130000Y-79692500D01*
X151130000Y-79692500D02*
X147522500Y-83300000D01*
X147522500Y-83300000D02*
X147522500Y-84201000D01*
X147522500Y-84201000D02*
X147522500Y-85850500D01*
X147522500Y-85850500D02*
X147526500Y-85854500D01*
X180530500Y-82232500D02*
X182626000Y-82232500D01*
X165937500Y-84201000D02*
X165937500Y-85850500D01*
X165937500Y-85850500D02*
X165941500Y-85854500D01*
X180530500Y-82232500D02*
X167132000Y-82232500D01*
X167132000Y-82232500D02*
X165937500Y-83427000D01*
X165937500Y-83427000D02*
X165937500Y-84201000D01*
D22*
X136683000Y-109301500D02*
X136683000Y-114521500D01*
X136683000Y-114521500D02*
X141033500Y-118872000D01*
X141033500Y-118872000D02*
X144018000Y-118872000D01*
X147518000Y-118872000D02*
X151257000Y-118872000D01*
X151257000Y-118872000D02*
X155098000Y-115031000D01*
X155098000Y-115031000D02*
X155098000Y-109301500D01*
D23*
X170624500Y-118427500D02*
X170688000Y-118364000D01*
D22*
X170688000Y-118364000D02*
X173513000Y-115539000D01*
X165933000Y-118872000D02*
X170180000Y-118872000D01*
D23*
X170180000Y-118872000D02*
X170688000Y-118364000D01*
D22*
X173513000Y-115539000D02*
X173513000Y-109301500D01*
D24*
G36*
X185020000Y-122536000D02*
X125932000Y-122536000D01*
X125932000Y-119884316D01*
X126994657Y-119884316D01*
X127295611Y-120612680D01*
X127852389Y-121170431D01*
X128580226Y-121472655D01*
X129368316Y-121473343D01*
X130096680Y-121172389D01*
X130654431Y-120615611D01*
X130956655Y-119887774D01*
X130957343Y-119099684D01*
X130656389Y-118371320D01*
X130099611Y-117813569D01*
X129371774Y-117511345D01*
X128583684Y-117510657D01*
X127855320Y-117811611D01*
X127297569Y-118368389D01*
X126995345Y-119096226D01*
X126994657Y-119884316D01*
X125932000Y-119884316D01*
X125932000Y-109604699D01*
X135151735Y-109604699D01*
X135384325Y-110167609D01*
X135552000Y-110335577D01*
X135552000Y-114521500D01*
X135638092Y-114954315D01*
X135883262Y-115321238D01*
X140233762Y-119671738D01*
X140600685Y-119916908D01*
X141033500Y-120003000D01*
X142429536Y-120003000D01*
X142429536Y-120072000D01*
X142456103Y-120213190D01*
X142539546Y-120342865D01*
X142666866Y-120429859D01*
X142818000Y-120460464D01*
X145218000Y-120460464D01*
X145359190Y-120433897D01*
X145488865Y-120350454D01*
X145575859Y-120223134D01*
X145606464Y-120072000D01*
X145606464Y-119185101D01*
X145936726Y-119185101D01*
X146176912Y-119766395D01*
X146621266Y-120211525D01*
X147202140Y-120452725D01*
X147831101Y-120453274D01*
X148412395Y-120213088D01*
X148622850Y-120003000D01*
X151257000Y-120003000D01*
X151689815Y-119916908D01*
X152056738Y-119671738D01*
X152570726Y-119157750D01*
X160598000Y-119157750D01*
X160598000Y-120198310D01*
X160694673Y-120431699D01*
X160873302Y-120610327D01*
X161106691Y-120707000D01*
X162147250Y-120707000D01*
X162306000Y-120548250D01*
X162306000Y-118999000D01*
X162560000Y-118999000D01*
X162560000Y-120548250D01*
X162718750Y-120707000D01*
X163759309Y-120707000D01*
X163992698Y-120610327D01*
X164171327Y-120431699D01*
X164268000Y-120198310D01*
X164268000Y-119185101D01*
X164351726Y-119185101D01*
X164591912Y-119766395D01*
X165036266Y-120211525D01*
X165617140Y-120452725D01*
X166246101Y-120453274D01*
X166827395Y-120213088D01*
X167037850Y-120003000D01*
X170180000Y-120003000D01*
X170612815Y-119916908D01*
X170661592Y-119884316D01*
X179994657Y-119884316D01*
X180295611Y-120612680D01*
X180852389Y-121170431D01*
X181580226Y-121472655D01*
X182368316Y-121473343D01*
X183096680Y-121172389D01*
X183654431Y-120615611D01*
X183956655Y-119887774D01*
X183957343Y-119099684D01*
X183656389Y-118371320D01*
X183099611Y-117813569D01*
X182371774Y-117511345D01*
X181583684Y-117510657D01*
X180855320Y-117811611D01*
X180297569Y-118368389D01*
X179995345Y-119096226D01*
X179994657Y-119884316D01*
X170661592Y-119884316D01*
X170979738Y-119671738D01*
X171183214Y-119367214D01*
X171487738Y-119163738D01*
X174312738Y-116338738D01*
X174557908Y-115971815D01*
X174644000Y-115539000D01*
X174644000Y-110335746D01*
X174810162Y-110169874D01*
X175043734Y-109607371D01*
X175044265Y-108998301D01*
X174811675Y-108435391D01*
X174381374Y-108004338D01*
X173818871Y-107770766D01*
X173209801Y-107770235D01*
X172646891Y-108002825D01*
X172215838Y-108433126D01*
X171982266Y-108995629D01*
X171981735Y-109604699D01*
X172214325Y-110167609D01*
X172382000Y-110335577D01*
X172382000Y-115070524D01*
X169888262Y-117564262D01*
X169770169Y-117741000D01*
X167037895Y-117741000D01*
X166829734Y-117532475D01*
X166248860Y-117291275D01*
X165619899Y-117290726D01*
X165038605Y-117530912D01*
X164593475Y-117975266D01*
X164352275Y-118556140D01*
X164351726Y-119185101D01*
X164268000Y-119185101D01*
X164268000Y-119157750D01*
X164109250Y-118999000D01*
X162560000Y-118999000D01*
X162306000Y-118999000D01*
X160756750Y-118999000D01*
X160598000Y-119157750D01*
X152570726Y-119157750D01*
X154182786Y-117545690D01*
X160598000Y-117545690D01*
X160598000Y-118586250D01*
X160756750Y-118745000D01*
X162306000Y-118745000D01*
X162306000Y-117195750D01*
X162560000Y-117195750D01*
X162560000Y-118745000D01*
X164109250Y-118745000D01*
X164268000Y-118586250D01*
X164268000Y-117545690D01*
X164171327Y-117312301D01*
X163992698Y-117133673D01*
X163759309Y-117037000D01*
X162718750Y-117037000D01*
X162560000Y-117195750D01*
X162306000Y-117195750D01*
X162147250Y-117037000D01*
X161106691Y-117037000D01*
X160873302Y-117133673D01*
X160694673Y-117312301D01*
X160598000Y-117545690D01*
X154182786Y-117545690D01*
X155897738Y-115830738D01*
X156142908Y-115463815D01*
X156229000Y-115031000D01*
X156229000Y-110335746D01*
X156395162Y-110169874D01*
X156628734Y-109607371D01*
X156629265Y-108998301D01*
X156396675Y-108435391D01*
X155966374Y-108004338D01*
X155403871Y-107770766D01*
X154794801Y-107770235D01*
X154231891Y-108002825D01*
X153800838Y-108433126D01*
X153567266Y-108995629D01*
X153566735Y-109604699D01*
X153799325Y-110167609D01*
X153967000Y-110335577D01*
X153967000Y-114562524D01*
X150788524Y-117741000D01*
X148622895Y-117741000D01*
X148414734Y-117532475D01*
X147833860Y-117291275D01*
X147204899Y-117290726D01*
X146623605Y-117530912D01*
X146178475Y-117975266D01*
X145937275Y-118556140D01*
X145936726Y-119185101D01*
X145606464Y-119185101D01*
X145606464Y-117672000D01*
X145579897Y-117530810D01*
X145496454Y-117401135D01*
X145369134Y-117314141D01*
X145218000Y-117283536D01*
X142818000Y-117283536D01*
X142676810Y-117310103D01*
X142547135Y-117393546D01*
X142460141Y-117520866D01*
X142429536Y-117672000D01*
X142429536Y-117741000D01*
X141501976Y-117741000D01*
X137814000Y-114053024D01*
X137814000Y-110335746D01*
X137980162Y-110169874D01*
X138213734Y-109607371D01*
X138214265Y-108998301D01*
X137981675Y-108435391D01*
X137551374Y-108004338D01*
X136988871Y-107770766D01*
X136379801Y-107770235D01*
X135816891Y-108002825D01*
X135385838Y-108433126D01*
X135152266Y-108995629D01*
X135151735Y-109604699D01*
X125932000Y-109604699D01*
X125932000Y-87354500D01*
X128225536Y-87354500D01*
X128225536Y-88154500D01*
X128252103Y-88295690D01*
X128335546Y-88425365D01*
X128462866Y-88512359D01*
X128558000Y-88531624D01*
X128558000Y-105132500D01*
X128596517Y-105326138D01*
X128706204Y-105490296D01*
X129301688Y-106085780D01*
X129152266Y-106445629D01*
X129151735Y-107054699D01*
X129384325Y-107617609D01*
X129814626Y-108048662D01*
X130377129Y-108282234D01*
X130986199Y-108282765D01*
X131549109Y-108050175D01*
X131980162Y-107619874D01*
X132213734Y-107057371D01*
X132213941Y-106820035D01*
X135197735Y-103836240D01*
X135197738Y-103836238D01*
X135442908Y-103469315D01*
X135529000Y-103036500D01*
X135529000Y-88219964D01*
X135648000Y-88219964D01*
X135789190Y-88193397D01*
X135918865Y-88109954D01*
X136005859Y-87982634D01*
X136036464Y-87831500D01*
X136036464Y-86031500D01*
X136759536Y-86031500D01*
X136759536Y-87831500D01*
X136786103Y-87972690D01*
X136869546Y-88102365D01*
X136996866Y-88189359D01*
X137148000Y-88219964D01*
X137267000Y-88219964D01*
X137267000Y-102466500D01*
X137353092Y-102899315D01*
X137598262Y-103266238D01*
X141151940Y-106819916D01*
X141151735Y-107054699D01*
X141384325Y-107617609D01*
X141814626Y-108048662D01*
X142377129Y-108282234D01*
X142986199Y-108282765D01*
X143549109Y-108050175D01*
X143980162Y-107619874D01*
X144213734Y-107057371D01*
X144214265Y-106448301D01*
X143981675Y-105885391D01*
X143814000Y-105717423D01*
X143814000Y-95585746D01*
X143980162Y-95419874D01*
X144213734Y-94857371D01*
X144214265Y-94248301D01*
X143981675Y-93685391D01*
X143551374Y-93254338D01*
X142988871Y-93020766D01*
X142379801Y-93020235D01*
X141816891Y-93252825D01*
X141385838Y-93683126D01*
X141152266Y-94245629D01*
X141151735Y-94854699D01*
X141384325Y-95417609D01*
X141552000Y-95585577D01*
X141552000Y-104021024D01*
X139529000Y-101998024D01*
X139529000Y-88219964D01*
X139648000Y-88219964D01*
X139789190Y-88193397D01*
X139918865Y-88109954D01*
X140005859Y-87982634D01*
X140036464Y-87831500D01*
X140036464Y-87354500D01*
X146688036Y-87354500D01*
X146688036Y-88154500D01*
X146714603Y-88295690D01*
X146798046Y-88425365D01*
X146925366Y-88512359D01*
X147020500Y-88531624D01*
X147020500Y-105180000D01*
X147059017Y-105373638D01*
X147168704Y-105537796D01*
X147716688Y-106085780D01*
X147567266Y-106445629D01*
X147566735Y-107054699D01*
X147799325Y-107617609D01*
X148229626Y-108048662D01*
X148792129Y-108282234D01*
X149401199Y-108282765D01*
X149964109Y-108050175D01*
X150395162Y-107619874D01*
X150628734Y-107057371D01*
X150628941Y-106820035D01*
X153739735Y-103709240D01*
X153739738Y-103709238D01*
X153984908Y-103342315D01*
X154000041Y-103266238D01*
X154071001Y-102909500D01*
X154071000Y-102909495D01*
X154071000Y-88092964D01*
X154190000Y-88092964D01*
X154331190Y-88066397D01*
X154460865Y-87982954D01*
X154547859Y-87855634D01*
X154578464Y-87704500D01*
X154578464Y-85904500D01*
X155301536Y-85904500D01*
X155301536Y-87704500D01*
X155328103Y-87845690D01*
X155411546Y-87975365D01*
X155538866Y-88062359D01*
X155690000Y-88092964D01*
X155809000Y-88092964D01*
X155809000Y-102593500D01*
X155895092Y-103026315D01*
X156140262Y-103393238D01*
X159566940Y-106819916D01*
X159566735Y-107054699D01*
X159799325Y-107617609D01*
X160229626Y-108048662D01*
X160792129Y-108282234D01*
X161401199Y-108282765D01*
X161964109Y-108050175D01*
X162395162Y-107619874D01*
X162628734Y-107057371D01*
X162629265Y-106448301D01*
X162396675Y-105885391D01*
X162229000Y-105717423D01*
X162229000Y-95585746D01*
X162395162Y-95419874D01*
X162628734Y-94857371D01*
X162629265Y-94248301D01*
X162396675Y-93685391D01*
X161966374Y-93254338D01*
X161403871Y-93020766D01*
X160794801Y-93020235D01*
X160231891Y-93252825D01*
X159800838Y-93683126D01*
X159567266Y-94245629D01*
X159566735Y-94854699D01*
X159799325Y-95417609D01*
X159967000Y-95585577D01*
X159967000Y-104021024D01*
X158071000Y-102125024D01*
X158071000Y-88092964D01*
X158190000Y-88092964D01*
X158331190Y-88066397D01*
X158460865Y-87982954D01*
X158547859Y-87855634D01*
X158578464Y-87704500D01*
X158578464Y-87354500D01*
X165103036Y-87354500D01*
X165103036Y-88154500D01*
X165129603Y-88295690D01*
X165213046Y-88425365D01*
X165340366Y-88512359D01*
X165435500Y-88531624D01*
X165435500Y-105180000D01*
X165474017Y-105373638D01*
X165583704Y-105537796D01*
X166131688Y-106085780D01*
X165982266Y-106445629D01*
X165981735Y-107054699D01*
X166214325Y-107617609D01*
X166644626Y-108048662D01*
X167207129Y-108282234D01*
X167816199Y-108282765D01*
X168379109Y-108050175D01*
X168810162Y-107619874D01*
X169043734Y-107057371D01*
X169043941Y-106820035D01*
X172122738Y-103741238D01*
X172367908Y-103374315D01*
X172454001Y-102941500D01*
X172454000Y-102941495D01*
X172454000Y-87711964D01*
X172573000Y-87711964D01*
X172714190Y-87685397D01*
X172843865Y-87601954D01*
X172930859Y-87474634D01*
X172961464Y-87323500D01*
X172961464Y-85523500D01*
X173684536Y-85523500D01*
X173684536Y-87323500D01*
X173711103Y-87464690D01*
X173794546Y-87594365D01*
X173921866Y-87681359D01*
X174073000Y-87711964D01*
X174192000Y-87711964D01*
X174192000Y-102561500D01*
X174278092Y-102994315D01*
X174523262Y-103361238D01*
X177981940Y-106819916D01*
X177981735Y-107054699D01*
X178214325Y-107617609D01*
X178644626Y-108048662D01*
X179207129Y-108282234D01*
X179816199Y-108282765D01*
X180379109Y-108050175D01*
X180810162Y-107619874D01*
X181043734Y-107057371D01*
X181044265Y-106448301D01*
X180811675Y-105885391D01*
X180644000Y-105717423D01*
X180644000Y-95585746D01*
X180810162Y-95419874D01*
X181043734Y-94857371D01*
X181044265Y-94248301D01*
X180811675Y-93685391D01*
X180381374Y-93254338D01*
X179818871Y-93020766D01*
X179209801Y-93020235D01*
X178646891Y-93252825D01*
X178215838Y-93683126D01*
X177982266Y-94245629D01*
X177981735Y-94854699D01*
X178214325Y-95417609D01*
X178382000Y-95585577D01*
X178382000Y-104021024D01*
X176454000Y-102093024D01*
X176454000Y-87711964D01*
X176573000Y-87711964D01*
X176714190Y-87685397D01*
X176843865Y-87601954D01*
X176930859Y-87474634D01*
X176961464Y-87323500D01*
X176961464Y-85523500D01*
X176934897Y-85382310D01*
X176851454Y-85252635D01*
X176724134Y-85165641D01*
X176573000Y-85135036D01*
X174073000Y-85135036D01*
X173931810Y-85161603D01*
X173802135Y-85245046D01*
X173715141Y-85372366D01*
X173684536Y-85523500D01*
X172961464Y-85523500D01*
X172934897Y-85382310D01*
X172851454Y-85252635D01*
X172724134Y-85165641D01*
X172573000Y-85135036D01*
X170073000Y-85135036D01*
X169931810Y-85161603D01*
X169802135Y-85245046D01*
X169715141Y-85372366D01*
X169684536Y-85523500D01*
X169684536Y-87323500D01*
X169711103Y-87464690D01*
X169794546Y-87594365D01*
X169921866Y-87681359D01*
X170073000Y-87711964D01*
X170192000Y-87711964D01*
X170192000Y-102473024D01*
X167444584Y-105220440D01*
X167209801Y-105220235D01*
X166847165Y-105370073D01*
X166447500Y-104970408D01*
X166447500Y-88532427D01*
X166532690Y-88516397D01*
X166662365Y-88432954D01*
X166749359Y-88305634D01*
X166779964Y-88154500D01*
X166779964Y-87354500D01*
X166753397Y-87213310D01*
X166674211Y-87090250D01*
X166856500Y-87090250D01*
X166856500Y-87330810D01*
X166953173Y-87564199D01*
X167131802Y-87742827D01*
X167365191Y-87839500D01*
X167655750Y-87839500D01*
X167814500Y-87680750D01*
X167814500Y-86931500D01*
X168068500Y-86931500D01*
X168068500Y-87680750D01*
X168227250Y-87839500D01*
X168517809Y-87839500D01*
X168751198Y-87742827D01*
X168929827Y-87564199D01*
X169026500Y-87330810D01*
X169026500Y-87090250D01*
X168867750Y-86931500D01*
X168068500Y-86931500D01*
X167814500Y-86931500D01*
X167015250Y-86931500D01*
X166856500Y-87090250D01*
X166674211Y-87090250D01*
X166669954Y-87083635D01*
X166542634Y-86996641D01*
X166391500Y-86966036D01*
X165491500Y-86966036D01*
X165350310Y-86992603D01*
X165220635Y-87076046D01*
X165133641Y-87203366D01*
X165103036Y-87354500D01*
X158578464Y-87354500D01*
X158578464Y-85904500D01*
X158551897Y-85763310D01*
X158468454Y-85633635D01*
X158341134Y-85546641D01*
X158190000Y-85516036D01*
X155690000Y-85516036D01*
X155548810Y-85542603D01*
X155419135Y-85626046D01*
X155332141Y-85753366D01*
X155301536Y-85904500D01*
X154578464Y-85904500D01*
X154551897Y-85763310D01*
X154468454Y-85633635D01*
X154341134Y-85546641D01*
X154190000Y-85516036D01*
X151690000Y-85516036D01*
X151548810Y-85542603D01*
X151419135Y-85626046D01*
X151332141Y-85753366D01*
X151301536Y-85904500D01*
X151301536Y-87704500D01*
X151328103Y-87845690D01*
X151411546Y-87975365D01*
X151538866Y-88062359D01*
X151690000Y-88092964D01*
X151809000Y-88092964D01*
X151809000Y-102441025D01*
X149029585Y-105220440D01*
X148794801Y-105220235D01*
X148432165Y-105370073D01*
X148032500Y-104970408D01*
X148032500Y-88532427D01*
X148117690Y-88516397D01*
X148247365Y-88432954D01*
X148334359Y-88305634D01*
X148364964Y-88154500D01*
X148364964Y-87354500D01*
X148338397Y-87213310D01*
X148259211Y-87090250D01*
X148441500Y-87090250D01*
X148441500Y-87330810D01*
X148538173Y-87564199D01*
X148716802Y-87742827D01*
X148950191Y-87839500D01*
X149240750Y-87839500D01*
X149399500Y-87680750D01*
X149399500Y-86931500D01*
X149653500Y-86931500D01*
X149653500Y-87680750D01*
X149812250Y-87839500D01*
X150102809Y-87839500D01*
X150336198Y-87742827D01*
X150514827Y-87564199D01*
X150611500Y-87330810D01*
X150611500Y-87090250D01*
X150452750Y-86931500D01*
X149653500Y-86931500D01*
X149399500Y-86931500D01*
X148600250Y-86931500D01*
X148441500Y-87090250D01*
X148259211Y-87090250D01*
X148254954Y-87083635D01*
X148127634Y-86996641D01*
X147976500Y-86966036D01*
X147076500Y-86966036D01*
X146935310Y-86992603D01*
X146805635Y-87076046D01*
X146718641Y-87203366D01*
X146688036Y-87354500D01*
X140036464Y-87354500D01*
X140036464Y-86031500D01*
X140009897Y-85890310D01*
X139926454Y-85760635D01*
X139799134Y-85673641D01*
X139648000Y-85643036D01*
X137148000Y-85643036D01*
X137006810Y-85669603D01*
X136877135Y-85753046D01*
X136790141Y-85880366D01*
X136759536Y-86031500D01*
X136036464Y-86031500D01*
X136009897Y-85890310D01*
X135926454Y-85760635D01*
X135799134Y-85673641D01*
X135648000Y-85643036D01*
X133148000Y-85643036D01*
X133006810Y-85669603D01*
X132877135Y-85753046D01*
X132790141Y-85880366D01*
X132759536Y-86031500D01*
X132759536Y-87831500D01*
X132786103Y-87972690D01*
X132869546Y-88102365D01*
X132996866Y-88189359D01*
X133148000Y-88219964D01*
X133267000Y-88219964D01*
X133267000Y-102568025D01*
X130614585Y-105220440D01*
X130379801Y-105220235D01*
X130017165Y-105370073D01*
X129570000Y-104922908D01*
X129570000Y-88532427D01*
X129655190Y-88516397D01*
X129784865Y-88432954D01*
X129871859Y-88305634D01*
X129902464Y-88154500D01*
X129902464Y-87354500D01*
X129875897Y-87213310D01*
X129796711Y-87090250D01*
X129979000Y-87090250D01*
X129979000Y-87330810D01*
X130075673Y-87564199D01*
X130254302Y-87742827D01*
X130487691Y-87839500D01*
X130778250Y-87839500D01*
X130937000Y-87680750D01*
X130937000Y-86931500D01*
X131191000Y-86931500D01*
X131191000Y-87680750D01*
X131349750Y-87839500D01*
X131640309Y-87839500D01*
X131873698Y-87742827D01*
X132052327Y-87564199D01*
X132149000Y-87330810D01*
X132149000Y-87090250D01*
X131990250Y-86931500D01*
X131191000Y-86931500D01*
X130937000Y-86931500D01*
X130137750Y-86931500D01*
X129979000Y-87090250D01*
X129796711Y-87090250D01*
X129792454Y-87083635D01*
X129665134Y-86996641D01*
X129514000Y-86966036D01*
X128614000Y-86966036D01*
X128472810Y-86992603D01*
X128343135Y-87076046D01*
X128256141Y-87203366D01*
X128225536Y-87354500D01*
X125932000Y-87354500D01*
X125932000Y-85454500D01*
X128225536Y-85454500D01*
X128225536Y-86254500D01*
X128252103Y-86395690D01*
X128335546Y-86525365D01*
X128462866Y-86612359D01*
X128614000Y-86642964D01*
X129514000Y-86642964D01*
X129655190Y-86616397D01*
X129784865Y-86532954D01*
X129871859Y-86405634D01*
X129897666Y-86278190D01*
X129979000Y-86278190D01*
X129979000Y-86518750D01*
X130137750Y-86677500D01*
X130937000Y-86677500D01*
X130937000Y-85928250D01*
X131191000Y-85928250D01*
X131191000Y-86677500D01*
X131990250Y-86677500D01*
X132149000Y-86518750D01*
X132149000Y-86278190D01*
X132052327Y-86044801D01*
X131873698Y-85866173D01*
X131640309Y-85769500D01*
X131349750Y-85769500D01*
X131191000Y-85928250D01*
X130937000Y-85928250D01*
X130778250Y-85769500D01*
X130487691Y-85769500D01*
X130254302Y-85866173D01*
X130075673Y-86044801D01*
X129979000Y-86278190D01*
X129897666Y-86278190D01*
X129902464Y-86254500D01*
X129902464Y-85454500D01*
X146688036Y-85454500D01*
X146688036Y-86254500D01*
X146714603Y-86395690D01*
X146798046Y-86525365D01*
X146925366Y-86612359D01*
X147076500Y-86642964D01*
X147976500Y-86642964D01*
X148117690Y-86616397D01*
X148247365Y-86532954D01*
X148334359Y-86405634D01*
X148360166Y-86278190D01*
X148441500Y-86278190D01*
X148441500Y-86518750D01*
X148600250Y-86677500D01*
X149399500Y-86677500D01*
X149399500Y-85928250D01*
X149653500Y-85928250D01*
X149653500Y-86677500D01*
X150452750Y-86677500D01*
X150611500Y-86518750D01*
X150611500Y-86278190D01*
X150514827Y-86044801D01*
X150336198Y-85866173D01*
X150102809Y-85769500D01*
X149812250Y-85769500D01*
X149653500Y-85928250D01*
X149399500Y-85928250D01*
X149240750Y-85769500D01*
X148950191Y-85769500D01*
X148716802Y-85866173D01*
X148538173Y-86044801D01*
X148441500Y-86278190D01*
X148360166Y-86278190D01*
X148364964Y-86254500D01*
X148364964Y-85454500D01*
X165103036Y-85454500D01*
X165103036Y-86254500D01*
X165129603Y-86395690D01*
X165213046Y-86525365D01*
X165340366Y-86612359D01*
X165491500Y-86642964D01*
X166391500Y-86642964D01*
X166532690Y-86616397D01*
X166662365Y-86532954D01*
X166749359Y-86405634D01*
X166775166Y-86278190D01*
X166856500Y-86278190D01*
X166856500Y-86518750D01*
X167015250Y-86677500D01*
X167814500Y-86677500D01*
X167814500Y-85928250D01*
X168068500Y-85928250D01*
X168068500Y-86677500D01*
X168867750Y-86677500D01*
X169026500Y-86518750D01*
X169026500Y-86278190D01*
X168929827Y-86044801D01*
X168751198Y-85866173D01*
X168517809Y-85769500D01*
X168227250Y-85769500D01*
X168068500Y-85928250D01*
X167814500Y-85928250D01*
X167655750Y-85769500D01*
X167365191Y-85769500D01*
X167131802Y-85866173D01*
X166953173Y-86044801D01*
X166856500Y-86278190D01*
X166775166Y-86278190D01*
X166779964Y-86254500D01*
X166779964Y-85454500D01*
X166753397Y-85313310D01*
X166669954Y-85183635D01*
X166542634Y-85096641D01*
X166443500Y-85076566D01*
X166443500Y-84939019D01*
X166458365Y-84929454D01*
X166545359Y-84802134D01*
X166552500Y-84766870D01*
X166552500Y-84777310D01*
X166649173Y-85010699D01*
X166827802Y-85189327D01*
X167061191Y-85286000D01*
X167153750Y-85286000D01*
X167312500Y-85127250D01*
X167312500Y-84328000D01*
X167562500Y-84328000D01*
X167562500Y-85127250D01*
X167721250Y-85286000D01*
X167813809Y-85286000D01*
X168047198Y-85189327D01*
X168107135Y-85129390D01*
X181184524Y-85129390D01*
X181354355Y-85539424D01*
X181744642Y-85967683D01*
X182269108Y-86213986D01*
X182499000Y-86093319D01*
X182499000Y-84899500D01*
X182753000Y-84899500D01*
X182753000Y-86093319D01*
X182982892Y-86213986D01*
X183507358Y-85967683D01*
X183897645Y-85539424D01*
X184067476Y-85129390D01*
X183946155Y-84899500D01*
X182753000Y-84899500D01*
X182499000Y-84899500D01*
X181305845Y-84899500D01*
X181184524Y-85129390D01*
X168107135Y-85129390D01*
X168225827Y-85010699D01*
X168322500Y-84777310D01*
X168322500Y-84486750D01*
X168163750Y-84328000D01*
X167562500Y-84328000D01*
X167312500Y-84328000D01*
X167290500Y-84328000D01*
X167290500Y-84074000D01*
X167312500Y-84074000D01*
X167312500Y-83274750D01*
X167562500Y-83274750D01*
X167562500Y-84074000D01*
X168163750Y-84074000D01*
X168322500Y-83915250D01*
X168322500Y-83624690D01*
X168225827Y-83391301D01*
X168047198Y-83212673D01*
X167813809Y-83116000D01*
X167721250Y-83116000D01*
X167562500Y-83274750D01*
X167312500Y-83274750D01*
X167153750Y-83116000D01*
X167061191Y-83116000D01*
X166895433Y-83184659D01*
X167341592Y-82738500D01*
X181487918Y-82738500D01*
X181731435Y-83102948D01*
X182130800Y-83369796D01*
X182169947Y-83377583D01*
X181744642Y-83577317D01*
X181354355Y-84005576D01*
X181184524Y-84415610D01*
X181305845Y-84645500D01*
X182499000Y-84645500D01*
X182499000Y-84625500D01*
X182753000Y-84625500D01*
X182753000Y-84645500D01*
X183946155Y-84645500D01*
X184067476Y-84415610D01*
X183897645Y-84005576D01*
X183507358Y-83577317D01*
X183082053Y-83377583D01*
X183121200Y-83369796D01*
X183520565Y-83102948D01*
X183787413Y-82703583D01*
X183881117Y-82232500D01*
X183787413Y-81761417D01*
X183520565Y-81362052D01*
X183121200Y-81095204D01*
X182650117Y-81001500D01*
X182601883Y-81001500D01*
X182130800Y-81095204D01*
X181731435Y-81362052D01*
X181487918Y-81726500D01*
X167132000Y-81726500D01*
X166938362Y-81765017D01*
X166774204Y-81874704D01*
X165579704Y-83069204D01*
X165470017Y-83233362D01*
X165431500Y-83427000D01*
X165431500Y-83462981D01*
X165416635Y-83472546D01*
X165329641Y-83599866D01*
X165299036Y-83751000D01*
X165299036Y-84651000D01*
X165325603Y-84792190D01*
X165409046Y-84921865D01*
X165431500Y-84937207D01*
X165431500Y-85077326D01*
X165350310Y-85092603D01*
X165220635Y-85176046D01*
X165133641Y-85303366D01*
X165103036Y-85454500D01*
X148364964Y-85454500D01*
X148338397Y-85313310D01*
X148254954Y-85183635D01*
X148127634Y-85096641D01*
X148028500Y-85076566D01*
X148028500Y-84939019D01*
X148043365Y-84929454D01*
X148130359Y-84802134D01*
X148137500Y-84766870D01*
X148137500Y-84777310D01*
X148234173Y-85010699D01*
X148412802Y-85189327D01*
X148646191Y-85286000D01*
X148738750Y-85286000D01*
X148897500Y-85127250D01*
X148897500Y-84328000D01*
X149147500Y-84328000D01*
X149147500Y-85127250D01*
X149306250Y-85286000D01*
X149398809Y-85286000D01*
X149632198Y-85189327D01*
X149810827Y-85010699D01*
X149907500Y-84777310D01*
X149907500Y-84486750D01*
X149748750Y-84328000D01*
X149147500Y-84328000D01*
X148897500Y-84328000D01*
X148875500Y-84328000D01*
X148875500Y-84074000D01*
X148897500Y-84074000D01*
X148897500Y-83274750D01*
X149147500Y-83274750D01*
X149147500Y-84074000D01*
X149748750Y-84074000D01*
X149907500Y-83915250D01*
X149907500Y-83624690D01*
X149810827Y-83391301D01*
X149632198Y-83212673D01*
X149398809Y-83116000D01*
X149306250Y-83116000D01*
X149147500Y-83274750D01*
X148897500Y-83274750D01*
X148738750Y-83116000D01*
X148646191Y-83116000D01*
X148412802Y-83212673D01*
X148234173Y-83391301D01*
X148137500Y-83624690D01*
X148137500Y-83626301D01*
X148134397Y-83609810D01*
X148053696Y-83484396D01*
X151339592Y-80198500D01*
X181487918Y-80198500D01*
X181731435Y-80562948D01*
X182130800Y-80829796D01*
X182601883Y-80923500D01*
X182650117Y-80923500D01*
X183121200Y-80829796D01*
X183520565Y-80562948D01*
X183787413Y-80163583D01*
X183881117Y-79692500D01*
X183787413Y-79221417D01*
X183520565Y-78822052D01*
X183121200Y-78555204D01*
X182650117Y-78461500D01*
X182601883Y-78461500D01*
X182130800Y-78555204D01*
X181731435Y-78822052D01*
X181487918Y-79186500D01*
X151130000Y-79186500D01*
X150936362Y-79225017D01*
X150772204Y-79334704D01*
X147164704Y-82942204D01*
X147055017Y-83106362D01*
X147016500Y-83300000D01*
X147016500Y-83462981D01*
X147001635Y-83472546D01*
X146914641Y-83599866D01*
X146884036Y-83751000D01*
X146884036Y-84651000D01*
X146910603Y-84792190D01*
X146994046Y-84921865D01*
X147016500Y-84937207D01*
X147016500Y-85077326D01*
X146935310Y-85092603D01*
X146805635Y-85176046D01*
X146718641Y-85303366D01*
X146688036Y-85454500D01*
X129902464Y-85454500D01*
X129875897Y-85313310D01*
X129792454Y-85183635D01*
X129665134Y-85096641D01*
X129570000Y-85077376D01*
X129570000Y-84904376D01*
X129639859Y-84802134D01*
X129647000Y-84766870D01*
X129647000Y-84777310D01*
X129743673Y-85010699D01*
X129922302Y-85189327D01*
X130155691Y-85286000D01*
X130248250Y-85286000D01*
X130407000Y-85127250D01*
X130407000Y-84328000D01*
X130657000Y-84328000D01*
X130657000Y-85127250D01*
X130815750Y-85286000D01*
X130908309Y-85286000D01*
X131141698Y-85189327D01*
X131320327Y-85010699D01*
X131417000Y-84777310D01*
X131417000Y-84486750D01*
X131258250Y-84328000D01*
X130657000Y-84328000D01*
X130407000Y-84328000D01*
X130385000Y-84328000D01*
X130385000Y-84074000D01*
X130407000Y-84074000D01*
X130407000Y-83274750D01*
X130657000Y-83274750D01*
X130657000Y-84074000D01*
X131258250Y-84074000D01*
X131417000Y-83915250D01*
X131417000Y-83624690D01*
X131320327Y-83391301D01*
X131141698Y-83212673D01*
X130908309Y-83116000D01*
X130815750Y-83116000D01*
X130657000Y-83274750D01*
X130407000Y-83274750D01*
X130248250Y-83116000D01*
X130155691Y-83116000D01*
X129922302Y-83212673D01*
X129743673Y-83391301D01*
X129647000Y-83624690D01*
X129647000Y-83626301D01*
X129643897Y-83609810D01*
X129560454Y-83480135D01*
X129538000Y-83464793D01*
X129538000Y-82569092D01*
X134448592Y-77658500D01*
X181487918Y-77658500D01*
X181731435Y-78022948D01*
X182130800Y-78289796D01*
X182601883Y-78383500D01*
X182650117Y-78383500D01*
X183121200Y-78289796D01*
X183520565Y-78022948D01*
X183787413Y-77623583D01*
X183881117Y-77152500D01*
X183787413Y-76681417D01*
X183520565Y-76282052D01*
X183121200Y-76015204D01*
X182650117Y-75921500D01*
X182601883Y-75921500D01*
X182130800Y-76015204D01*
X181731435Y-76282052D01*
X181487918Y-76646500D01*
X134239000Y-76646500D01*
X134045362Y-76685017D01*
X133881204Y-76794704D01*
X128674204Y-82001704D01*
X128564517Y-82165862D01*
X128526000Y-82359500D01*
X128526000Y-83462981D01*
X128511135Y-83472546D01*
X128424141Y-83599866D01*
X128393536Y-83751000D01*
X128393536Y-84651000D01*
X128420103Y-84792190D01*
X128503546Y-84921865D01*
X128558000Y-84959072D01*
X128558000Y-85076573D01*
X128472810Y-85092603D01*
X128343135Y-85176046D01*
X128256141Y-85303366D01*
X128225536Y-85454500D01*
X125932000Y-85454500D01*
X125932000Y-75556745D01*
X170598361Y-75556745D01*
X170672495Y-75802864D01*
X171209723Y-75995965D01*
X171779954Y-75968778D01*
X172180505Y-75802864D01*
X172254639Y-75556745D01*
X171426500Y-74728605D01*
X170598361Y-75556745D01*
X125932000Y-75556745D01*
X125932000Y-74332223D01*
X169979535Y-74332223D01*
X170006722Y-74902454D01*
X170172636Y-75303005D01*
X170418755Y-75377139D01*
X171246895Y-74549000D01*
X171606105Y-74549000D01*
X172434245Y-75377139D01*
X172680364Y-75303005D01*
X172738036Y-75142555D01*
X172738036Y-75349000D01*
X172764603Y-75490190D01*
X172848046Y-75619865D01*
X172975366Y-75706859D01*
X173126500Y-75737464D01*
X173959655Y-75737464D01*
X173990000Y-75743500D01*
X181512379Y-75743500D01*
X181624866Y-75820359D01*
X181776000Y-75850964D01*
X183476000Y-75850964D01*
X183617190Y-75824397D01*
X183746865Y-75740954D01*
X183833859Y-75613634D01*
X183864464Y-75462500D01*
X183864464Y-73762500D01*
X183837897Y-73621310D01*
X183754454Y-73491635D01*
X183627134Y-73404641D01*
X183476000Y-73374036D01*
X181776000Y-73374036D01*
X181634810Y-73400603D01*
X181509092Y-73481500D01*
X175007119Y-73481500D01*
X175004954Y-73478135D01*
X174877634Y-73391141D01*
X174726500Y-73360536D01*
X174432500Y-73360536D01*
X174432500Y-69351158D01*
X174498865Y-69308454D01*
X174585859Y-69181134D01*
X174616464Y-69030000D01*
X174616464Y-68130000D01*
X174589897Y-67988810D01*
X174506454Y-67859135D01*
X174379134Y-67772141D01*
X174228000Y-67741536D01*
X173728000Y-67741536D01*
X173586810Y-67768103D01*
X173457135Y-67851546D01*
X173370141Y-67978866D01*
X173339536Y-68130000D01*
X173339536Y-69030000D01*
X173366103Y-69171190D01*
X173420500Y-69255726D01*
X173420500Y-73360536D01*
X173126500Y-73360536D01*
X172985310Y-73387103D01*
X172855635Y-73470546D01*
X172768641Y-73597866D01*
X172738036Y-73749000D01*
X172738036Y-73934227D01*
X172680364Y-73794995D01*
X172434245Y-73720861D01*
X171606105Y-74549000D01*
X171246895Y-74549000D01*
X170418755Y-73720861D01*
X170172636Y-73794995D01*
X169979535Y-74332223D01*
X125932000Y-74332223D01*
X125932000Y-73541255D01*
X170598361Y-73541255D01*
X171426500Y-74369395D01*
X172254639Y-73541255D01*
X172180505Y-73295136D01*
X171643277Y-73102035D01*
X171073046Y-73129222D01*
X170672495Y-73295136D01*
X170598361Y-73541255D01*
X125932000Y-73541255D01*
X125932000Y-68865750D01*
X168408500Y-68865750D01*
X168408500Y-69106310D01*
X168505173Y-69339699D01*
X168683802Y-69518327D01*
X168917191Y-69615000D01*
X169157750Y-69615000D01*
X169316500Y-69456250D01*
X169316500Y-68707000D01*
X168567250Y-68707000D01*
X168408500Y-68865750D01*
X125932000Y-68865750D01*
X125932000Y-66884316D01*
X126994657Y-66884316D01*
X127295611Y-67612680D01*
X127852389Y-68170431D01*
X128580226Y-68472655D01*
X129368316Y-68473343D01*
X130096680Y-68172389D01*
X130215586Y-68053690D01*
X168408500Y-68053690D01*
X168408500Y-68294250D01*
X168567250Y-68453000D01*
X169316500Y-68453000D01*
X169316500Y-67703750D01*
X169570500Y-67703750D01*
X169570500Y-68453000D01*
X169590500Y-68453000D01*
X169590500Y-68707000D01*
X169570500Y-68707000D01*
X169570500Y-69456250D01*
X169729250Y-69615000D01*
X169969809Y-69615000D01*
X170203198Y-69518327D01*
X170381827Y-69339699D01*
X170406805Y-69279398D01*
X170492366Y-69337859D01*
X170643500Y-69368464D01*
X171443500Y-69368464D01*
X171584690Y-69341897D01*
X171714365Y-69258454D01*
X171801359Y-69131134D01*
X171810499Y-69086000D01*
X171850073Y-69086000D01*
X171866103Y-69171190D01*
X171949546Y-69300865D01*
X172076866Y-69387859D01*
X172228000Y-69418464D01*
X172728000Y-69418464D01*
X172869190Y-69391897D01*
X172998865Y-69308454D01*
X173085859Y-69181134D01*
X173116464Y-69030000D01*
X173116464Y-68130000D01*
X173089897Y-67988810D01*
X173006454Y-67859135D01*
X172879134Y-67772141D01*
X172728000Y-67741536D01*
X172228000Y-67741536D01*
X172086810Y-67768103D01*
X171957135Y-67851546D01*
X171870141Y-67978866D01*
X171850876Y-68074000D01*
X171812019Y-68074000D01*
X171805397Y-68038810D01*
X171721954Y-67909135D01*
X171594634Y-67822141D01*
X171443500Y-67791536D01*
X170643500Y-67791536D01*
X170502310Y-67818103D01*
X170406463Y-67879778D01*
X170381827Y-67820301D01*
X170203198Y-67641673D01*
X169969809Y-67545000D01*
X169729250Y-67545000D01*
X169570500Y-67703750D01*
X169316500Y-67703750D01*
X169157750Y-67545000D01*
X168917191Y-67545000D01*
X168683802Y-67641673D01*
X168505173Y-67820301D01*
X168408500Y-68053690D01*
X130215586Y-68053690D01*
X130654431Y-67615611D01*
X130956655Y-66887774D01*
X130956658Y-66884316D01*
X179994657Y-66884316D01*
X180295611Y-67612680D01*
X180852389Y-68170431D01*
X181580226Y-68472655D01*
X182368316Y-68473343D01*
X183096680Y-68172389D01*
X183654431Y-67615611D01*
X183956655Y-66887774D01*
X183957343Y-66099684D01*
X183656389Y-65371320D01*
X183099611Y-64813569D01*
X182371774Y-64511345D01*
X181583684Y-64510657D01*
X180855320Y-64811611D01*
X180297569Y-65368389D01*
X179995345Y-66096226D01*
X179994657Y-66884316D01*
X130956658Y-66884316D01*
X130957343Y-66099684D01*
X130656389Y-65371320D01*
X130099611Y-64813569D01*
X129371774Y-64511345D01*
X128583684Y-64510657D01*
X127855320Y-64811611D01*
X127297569Y-65368389D01*
X126995345Y-66096226D01*
X126994657Y-66884316D01*
X125932000Y-66884316D01*
X125932000Y-63448000D01*
X185020000Y-63448000D01*
X185020000Y-122536000D01*
X185020000Y-122536000D01*
G37*
X185020000Y-122536000D02*
X125932000Y-122536000D01*
X125932000Y-119884316D01*
X126994657Y-119884316D01*
X127295611Y-120612680D01*
X127852389Y-121170431D01*
X128580226Y-121472655D01*
X129368316Y-121473343D01*
X130096680Y-121172389D01*
X130654431Y-120615611D01*
X130956655Y-119887774D01*
X130957343Y-119099684D01*
X130656389Y-118371320D01*
X130099611Y-117813569D01*
X129371774Y-117511345D01*
X128583684Y-117510657D01*
X127855320Y-117811611D01*
X127297569Y-118368389D01*
X126995345Y-119096226D01*
X126994657Y-119884316D01*
X125932000Y-119884316D01*
X125932000Y-109604699D01*
X135151735Y-109604699D01*
X135384325Y-110167609D01*
X135552000Y-110335577D01*
X135552000Y-114521500D01*
X135638092Y-114954315D01*
X135883262Y-115321238D01*
X140233762Y-119671738D01*
X140600685Y-119916908D01*
X141033500Y-120003000D01*
X142429536Y-120003000D01*
X142429536Y-120072000D01*
X142456103Y-120213190D01*
X142539546Y-120342865D01*
X142666866Y-120429859D01*
X142818000Y-120460464D01*
X145218000Y-120460464D01*
X145359190Y-120433897D01*
X145488865Y-120350454D01*
X145575859Y-120223134D01*
X145606464Y-120072000D01*
X145606464Y-119185101D01*
X145936726Y-119185101D01*
X146176912Y-119766395D01*
X146621266Y-120211525D01*
X147202140Y-120452725D01*
X147831101Y-120453274D01*
X148412395Y-120213088D01*
X148622850Y-120003000D01*
X151257000Y-120003000D01*
X151689815Y-119916908D01*
X152056738Y-119671738D01*
X152570726Y-119157750D01*
X160598000Y-119157750D01*
X160598000Y-120198310D01*
X160694673Y-120431699D01*
X160873302Y-120610327D01*
X161106691Y-120707000D01*
X162147250Y-120707000D01*
X162306000Y-120548250D01*
X162306000Y-118999000D01*
X162560000Y-118999000D01*
X162560000Y-120548250D01*
X162718750Y-120707000D01*
X163759309Y-120707000D01*
X163992698Y-120610327D01*
X164171327Y-120431699D01*
X164268000Y-120198310D01*
X164268000Y-119185101D01*
X164351726Y-119185101D01*
X164591912Y-119766395D01*
X165036266Y-120211525D01*
X165617140Y-120452725D01*
X166246101Y-120453274D01*
X166827395Y-120213088D01*
X167037850Y-120003000D01*
X170180000Y-120003000D01*
X170612815Y-119916908D01*
X170661592Y-119884316D01*
X179994657Y-119884316D01*
X180295611Y-120612680D01*
X180852389Y-121170431D01*
X181580226Y-121472655D01*
X182368316Y-121473343D01*
X183096680Y-121172389D01*
X183654431Y-120615611D01*
X183956655Y-119887774D01*
X183957343Y-119099684D01*
X183656389Y-118371320D01*
X183099611Y-117813569D01*
X182371774Y-117511345D01*
X181583684Y-117510657D01*
X180855320Y-117811611D01*
X180297569Y-118368389D01*
X179995345Y-119096226D01*
X179994657Y-119884316D01*
X170661592Y-119884316D01*
X170979738Y-119671738D01*
X171183214Y-119367214D01*
X171487738Y-119163738D01*
X174312738Y-116338738D01*
X174557908Y-115971815D01*
X174644000Y-115539000D01*
X174644000Y-110335746D01*
X174810162Y-110169874D01*
X175043734Y-109607371D01*
X175044265Y-108998301D01*
X174811675Y-108435391D01*
X174381374Y-108004338D01*
X173818871Y-107770766D01*
X173209801Y-107770235D01*
X172646891Y-108002825D01*
X172215838Y-108433126D01*
X171982266Y-108995629D01*
X171981735Y-109604699D01*
X172214325Y-110167609D01*
X172382000Y-110335577D01*
X172382000Y-115070524D01*
X169888262Y-117564262D01*
X169770169Y-117741000D01*
X167037895Y-117741000D01*
X166829734Y-117532475D01*
X166248860Y-117291275D01*
X165619899Y-117290726D01*
X165038605Y-117530912D01*
X164593475Y-117975266D01*
X164352275Y-118556140D01*
X164351726Y-119185101D01*
X164268000Y-119185101D01*
X164268000Y-119157750D01*
X164109250Y-118999000D01*
X162560000Y-118999000D01*
X162306000Y-118999000D01*
X160756750Y-118999000D01*
X160598000Y-119157750D01*
X152570726Y-119157750D01*
X154182786Y-117545690D01*
X160598000Y-117545690D01*
X160598000Y-118586250D01*
X160756750Y-118745000D01*
X162306000Y-118745000D01*
X162306000Y-117195750D01*
X162560000Y-117195750D01*
X162560000Y-118745000D01*
X164109250Y-118745000D01*
X164268000Y-118586250D01*
X164268000Y-117545690D01*
X164171327Y-117312301D01*
X163992698Y-117133673D01*
X163759309Y-117037000D01*
X162718750Y-117037000D01*
X162560000Y-117195750D01*
X162306000Y-117195750D01*
X162147250Y-117037000D01*
X161106691Y-117037000D01*
X160873302Y-117133673D01*
X160694673Y-117312301D01*
X160598000Y-117545690D01*
X154182786Y-117545690D01*
X155897738Y-115830738D01*
X156142908Y-115463815D01*
X156229000Y-115031000D01*
X156229000Y-110335746D01*
X156395162Y-110169874D01*
X156628734Y-109607371D01*
X156629265Y-108998301D01*
X156396675Y-108435391D01*
X155966374Y-108004338D01*
X155403871Y-107770766D01*
X154794801Y-107770235D01*
X154231891Y-108002825D01*
X153800838Y-108433126D01*
X153567266Y-108995629D01*
X153566735Y-109604699D01*
X153799325Y-110167609D01*
X153967000Y-110335577D01*
X153967000Y-114562524D01*
X150788524Y-117741000D01*
X148622895Y-117741000D01*
X148414734Y-117532475D01*
X147833860Y-117291275D01*
X147204899Y-117290726D01*
X146623605Y-117530912D01*
X146178475Y-117975266D01*
X145937275Y-118556140D01*
X145936726Y-119185101D01*
X145606464Y-119185101D01*
X145606464Y-117672000D01*
X145579897Y-117530810D01*
X145496454Y-117401135D01*
X145369134Y-117314141D01*
X145218000Y-117283536D01*
X142818000Y-117283536D01*
X142676810Y-117310103D01*
X142547135Y-117393546D01*
X142460141Y-117520866D01*
X142429536Y-117672000D01*
X142429536Y-117741000D01*
X141501976Y-117741000D01*
X137814000Y-114053024D01*
X137814000Y-110335746D01*
X137980162Y-110169874D01*
X138213734Y-109607371D01*
X138214265Y-108998301D01*
X137981675Y-108435391D01*
X137551374Y-108004338D01*
X136988871Y-107770766D01*
X136379801Y-107770235D01*
X135816891Y-108002825D01*
X135385838Y-108433126D01*
X135152266Y-108995629D01*
X135151735Y-109604699D01*
X125932000Y-109604699D01*
X125932000Y-87354500D01*
X128225536Y-87354500D01*
X128225536Y-88154500D01*
X128252103Y-88295690D01*
X128335546Y-88425365D01*
X128462866Y-88512359D01*
X128558000Y-88531624D01*
X128558000Y-105132500D01*
X128596517Y-105326138D01*
X128706204Y-105490296D01*
X129301688Y-106085780D01*
X129152266Y-106445629D01*
X129151735Y-107054699D01*
X129384325Y-107617609D01*
X129814626Y-108048662D01*
X130377129Y-108282234D01*
X130986199Y-108282765D01*
X131549109Y-108050175D01*
X131980162Y-107619874D01*
X132213734Y-107057371D01*
X132213941Y-106820035D01*
X135197735Y-103836240D01*
X135197738Y-103836238D01*
X135442908Y-103469315D01*
X135529000Y-103036500D01*
X135529000Y-88219964D01*
X135648000Y-88219964D01*
X135789190Y-88193397D01*
X135918865Y-88109954D01*
X136005859Y-87982634D01*
X136036464Y-87831500D01*
X136036464Y-86031500D01*
X136759536Y-86031500D01*
X136759536Y-87831500D01*
X136786103Y-87972690D01*
X136869546Y-88102365D01*
X136996866Y-88189359D01*
X137148000Y-88219964D01*
X137267000Y-88219964D01*
X137267000Y-102466500D01*
X137353092Y-102899315D01*
X137598262Y-103266238D01*
X141151940Y-106819916D01*
X141151735Y-107054699D01*
X141384325Y-107617609D01*
X141814626Y-108048662D01*
X142377129Y-108282234D01*
X142986199Y-108282765D01*
X143549109Y-108050175D01*
X143980162Y-107619874D01*
X144213734Y-107057371D01*
X144214265Y-106448301D01*
X143981675Y-105885391D01*
X143814000Y-105717423D01*
X143814000Y-95585746D01*
X143980162Y-95419874D01*
X144213734Y-94857371D01*
X144214265Y-94248301D01*
X143981675Y-93685391D01*
X143551374Y-93254338D01*
X142988871Y-93020766D01*
X142379801Y-93020235D01*
X141816891Y-93252825D01*
X141385838Y-93683126D01*
X141152266Y-94245629D01*
X141151735Y-94854699D01*
X141384325Y-95417609D01*
X141552000Y-95585577D01*
X141552000Y-104021024D01*
X139529000Y-101998024D01*
X139529000Y-88219964D01*
X139648000Y-88219964D01*
X139789190Y-88193397D01*
X139918865Y-88109954D01*
X140005859Y-87982634D01*
X140036464Y-87831500D01*
X140036464Y-87354500D01*
X146688036Y-87354500D01*
X146688036Y-88154500D01*
X146714603Y-88295690D01*
X146798046Y-88425365D01*
X146925366Y-88512359D01*
X147020500Y-88531624D01*
X147020500Y-105180000D01*
X147059017Y-105373638D01*
X147168704Y-105537796D01*
X147716688Y-106085780D01*
X147567266Y-106445629D01*
X147566735Y-107054699D01*
X147799325Y-107617609D01*
X148229626Y-108048662D01*
X148792129Y-108282234D01*
X149401199Y-108282765D01*
X149964109Y-108050175D01*
X150395162Y-107619874D01*
X150628734Y-107057371D01*
X150628941Y-106820035D01*
X153739735Y-103709240D01*
X153739738Y-103709238D01*
X153984908Y-103342315D01*
X154000041Y-103266238D01*
X154071001Y-102909500D01*
X154071000Y-102909495D01*
X154071000Y-88092964D01*
X154190000Y-88092964D01*
X154331190Y-88066397D01*
X154460865Y-87982954D01*
X154547859Y-87855634D01*
X154578464Y-87704500D01*
X154578464Y-85904500D01*
X155301536Y-85904500D01*
X155301536Y-87704500D01*
X155328103Y-87845690D01*
X155411546Y-87975365D01*
X155538866Y-88062359D01*
X155690000Y-88092964D01*
X155809000Y-88092964D01*
X155809000Y-102593500D01*
X155895092Y-103026315D01*
X156140262Y-103393238D01*
X159566940Y-106819916D01*
X159566735Y-107054699D01*
X159799325Y-107617609D01*
X160229626Y-108048662D01*
X160792129Y-108282234D01*
X161401199Y-108282765D01*
X161964109Y-108050175D01*
X162395162Y-107619874D01*
X162628734Y-107057371D01*
X162629265Y-106448301D01*
X162396675Y-105885391D01*
X162229000Y-105717423D01*
X162229000Y-95585746D01*
X162395162Y-95419874D01*
X162628734Y-94857371D01*
X162629265Y-94248301D01*
X162396675Y-93685391D01*
X161966374Y-93254338D01*
X161403871Y-93020766D01*
X160794801Y-93020235D01*
X160231891Y-93252825D01*
X159800838Y-93683126D01*
X159567266Y-94245629D01*
X159566735Y-94854699D01*
X159799325Y-95417609D01*
X159967000Y-95585577D01*
X159967000Y-104021024D01*
X158071000Y-102125024D01*
X158071000Y-88092964D01*
X158190000Y-88092964D01*
X158331190Y-88066397D01*
X158460865Y-87982954D01*
X158547859Y-87855634D01*
X158578464Y-87704500D01*
X158578464Y-87354500D01*
X165103036Y-87354500D01*
X165103036Y-88154500D01*
X165129603Y-88295690D01*
X165213046Y-88425365D01*
X165340366Y-88512359D01*
X165435500Y-88531624D01*
X165435500Y-105180000D01*
X165474017Y-105373638D01*
X165583704Y-105537796D01*
X166131688Y-106085780D01*
X165982266Y-106445629D01*
X165981735Y-107054699D01*
X166214325Y-107617609D01*
X166644626Y-108048662D01*
X167207129Y-108282234D01*
X167816199Y-108282765D01*
X168379109Y-108050175D01*
X168810162Y-107619874D01*
X169043734Y-107057371D01*
X169043941Y-106820035D01*
X172122738Y-103741238D01*
X172367908Y-103374315D01*
X172454001Y-102941500D01*
X172454000Y-102941495D01*
X172454000Y-87711964D01*
X172573000Y-87711964D01*
X172714190Y-87685397D01*
X172843865Y-87601954D01*
X172930859Y-87474634D01*
X172961464Y-87323500D01*
X172961464Y-85523500D01*
X173684536Y-85523500D01*
X173684536Y-87323500D01*
X173711103Y-87464690D01*
X173794546Y-87594365D01*
X173921866Y-87681359D01*
X174073000Y-87711964D01*
X174192000Y-87711964D01*
X174192000Y-102561500D01*
X174278092Y-102994315D01*
X174523262Y-103361238D01*
X177981940Y-106819916D01*
X177981735Y-107054699D01*
X178214325Y-107617609D01*
X178644626Y-108048662D01*
X179207129Y-108282234D01*
X179816199Y-108282765D01*
X180379109Y-108050175D01*
X180810162Y-107619874D01*
X181043734Y-107057371D01*
X181044265Y-106448301D01*
X180811675Y-105885391D01*
X180644000Y-105717423D01*
X180644000Y-95585746D01*
X180810162Y-95419874D01*
X181043734Y-94857371D01*
X181044265Y-94248301D01*
X180811675Y-93685391D01*
X180381374Y-93254338D01*
X179818871Y-93020766D01*
X179209801Y-93020235D01*
X178646891Y-93252825D01*
X178215838Y-93683126D01*
X177982266Y-94245629D01*
X177981735Y-94854699D01*
X178214325Y-95417609D01*
X178382000Y-95585577D01*
X178382000Y-104021024D01*
X176454000Y-102093024D01*
X176454000Y-87711964D01*
X176573000Y-87711964D01*
X176714190Y-87685397D01*
X176843865Y-87601954D01*
X176930859Y-87474634D01*
X176961464Y-87323500D01*
X176961464Y-85523500D01*
X176934897Y-85382310D01*
X176851454Y-85252635D01*
X176724134Y-85165641D01*
X176573000Y-85135036D01*
X174073000Y-85135036D01*
X173931810Y-85161603D01*
X173802135Y-85245046D01*
X173715141Y-85372366D01*
X173684536Y-85523500D01*
X172961464Y-85523500D01*
X172934897Y-85382310D01*
X172851454Y-85252635D01*
X172724134Y-85165641D01*
X172573000Y-85135036D01*
X170073000Y-85135036D01*
X169931810Y-85161603D01*
X169802135Y-85245046D01*
X169715141Y-85372366D01*
X169684536Y-85523500D01*
X169684536Y-87323500D01*
X169711103Y-87464690D01*
X169794546Y-87594365D01*
X169921866Y-87681359D01*
X170073000Y-87711964D01*
X170192000Y-87711964D01*
X170192000Y-102473024D01*
X167444584Y-105220440D01*
X167209801Y-105220235D01*
X166847165Y-105370073D01*
X166447500Y-104970408D01*
X166447500Y-88532427D01*
X166532690Y-88516397D01*
X166662365Y-88432954D01*
X166749359Y-88305634D01*
X166779964Y-88154500D01*
X166779964Y-87354500D01*
X166753397Y-87213310D01*
X166674211Y-87090250D01*
X166856500Y-87090250D01*
X166856500Y-87330810D01*
X166953173Y-87564199D01*
X167131802Y-87742827D01*
X167365191Y-87839500D01*
X167655750Y-87839500D01*
X167814500Y-87680750D01*
X167814500Y-86931500D01*
X168068500Y-86931500D01*
X168068500Y-87680750D01*
X168227250Y-87839500D01*
X168517809Y-87839500D01*
X168751198Y-87742827D01*
X168929827Y-87564199D01*
X169026500Y-87330810D01*
X169026500Y-87090250D01*
X168867750Y-86931500D01*
X168068500Y-86931500D01*
X167814500Y-86931500D01*
X167015250Y-86931500D01*
X166856500Y-87090250D01*
X166674211Y-87090250D01*
X166669954Y-87083635D01*
X166542634Y-86996641D01*
X166391500Y-86966036D01*
X165491500Y-86966036D01*
X165350310Y-86992603D01*
X165220635Y-87076046D01*
X165133641Y-87203366D01*
X165103036Y-87354500D01*
X158578464Y-87354500D01*
X158578464Y-85904500D01*
X158551897Y-85763310D01*
X158468454Y-85633635D01*
X158341134Y-85546641D01*
X158190000Y-85516036D01*
X155690000Y-85516036D01*
X155548810Y-85542603D01*
X155419135Y-85626046D01*
X155332141Y-85753366D01*
X155301536Y-85904500D01*
X154578464Y-85904500D01*
X154551897Y-85763310D01*
X154468454Y-85633635D01*
X154341134Y-85546641D01*
X154190000Y-85516036D01*
X151690000Y-85516036D01*
X151548810Y-85542603D01*
X151419135Y-85626046D01*
X151332141Y-85753366D01*
X151301536Y-85904500D01*
X151301536Y-87704500D01*
X151328103Y-87845690D01*
X151411546Y-87975365D01*
X151538866Y-88062359D01*
X151690000Y-88092964D01*
X151809000Y-88092964D01*
X151809000Y-102441025D01*
X149029585Y-105220440D01*
X148794801Y-105220235D01*
X148432165Y-105370073D01*
X148032500Y-104970408D01*
X148032500Y-88532427D01*
X148117690Y-88516397D01*
X148247365Y-88432954D01*
X148334359Y-88305634D01*
X148364964Y-88154500D01*
X148364964Y-87354500D01*
X148338397Y-87213310D01*
X148259211Y-87090250D01*
X148441500Y-87090250D01*
X148441500Y-87330810D01*
X148538173Y-87564199D01*
X148716802Y-87742827D01*
X148950191Y-87839500D01*
X149240750Y-87839500D01*
X149399500Y-87680750D01*
X149399500Y-86931500D01*
X149653500Y-86931500D01*
X149653500Y-87680750D01*
X149812250Y-87839500D01*
X150102809Y-87839500D01*
X150336198Y-87742827D01*
X150514827Y-87564199D01*
X150611500Y-87330810D01*
X150611500Y-87090250D01*
X150452750Y-86931500D01*
X149653500Y-86931500D01*
X149399500Y-86931500D01*
X148600250Y-86931500D01*
X148441500Y-87090250D01*
X148259211Y-87090250D01*
X148254954Y-87083635D01*
X148127634Y-86996641D01*
X147976500Y-86966036D01*
X147076500Y-86966036D01*
X146935310Y-86992603D01*
X146805635Y-87076046D01*
X146718641Y-87203366D01*
X146688036Y-87354500D01*
X140036464Y-87354500D01*
X140036464Y-86031500D01*
X140009897Y-85890310D01*
X139926454Y-85760635D01*
X139799134Y-85673641D01*
X139648000Y-85643036D01*
X137148000Y-85643036D01*
X137006810Y-85669603D01*
X136877135Y-85753046D01*
X136790141Y-85880366D01*
X136759536Y-86031500D01*
X136036464Y-86031500D01*
X136009897Y-85890310D01*
X135926454Y-85760635D01*
X135799134Y-85673641D01*
X135648000Y-85643036D01*
X133148000Y-85643036D01*
X133006810Y-85669603D01*
X132877135Y-85753046D01*
X132790141Y-85880366D01*
X132759536Y-86031500D01*
X132759536Y-87831500D01*
X132786103Y-87972690D01*
X132869546Y-88102365D01*
X132996866Y-88189359D01*
X133148000Y-88219964D01*
X133267000Y-88219964D01*
X133267000Y-102568025D01*
X130614585Y-105220440D01*
X130379801Y-105220235D01*
X130017165Y-105370073D01*
X129570000Y-104922908D01*
X129570000Y-88532427D01*
X129655190Y-88516397D01*
X129784865Y-88432954D01*
X129871859Y-88305634D01*
X129902464Y-88154500D01*
X129902464Y-87354500D01*
X129875897Y-87213310D01*
X129796711Y-87090250D01*
X129979000Y-87090250D01*
X129979000Y-87330810D01*
X130075673Y-87564199D01*
X130254302Y-87742827D01*
X130487691Y-87839500D01*
X130778250Y-87839500D01*
X130937000Y-87680750D01*
X130937000Y-86931500D01*
X131191000Y-86931500D01*
X131191000Y-87680750D01*
X131349750Y-87839500D01*
X131640309Y-87839500D01*
X131873698Y-87742827D01*
X132052327Y-87564199D01*
X132149000Y-87330810D01*
X132149000Y-87090250D01*
X131990250Y-86931500D01*
X131191000Y-86931500D01*
X130937000Y-86931500D01*
X130137750Y-86931500D01*
X129979000Y-87090250D01*
X129796711Y-87090250D01*
X129792454Y-87083635D01*
X129665134Y-86996641D01*
X129514000Y-86966036D01*
X128614000Y-86966036D01*
X128472810Y-86992603D01*
X128343135Y-87076046D01*
X128256141Y-87203366D01*
X128225536Y-87354500D01*
X125932000Y-87354500D01*
X125932000Y-85454500D01*
X128225536Y-85454500D01*
X128225536Y-86254500D01*
X128252103Y-86395690D01*
X128335546Y-86525365D01*
X128462866Y-86612359D01*
X128614000Y-86642964D01*
X129514000Y-86642964D01*
X129655190Y-86616397D01*
X129784865Y-86532954D01*
X129871859Y-86405634D01*
X129897666Y-86278190D01*
X129979000Y-86278190D01*
X129979000Y-86518750D01*
X130137750Y-86677500D01*
X130937000Y-86677500D01*
X130937000Y-85928250D01*
X131191000Y-85928250D01*
X131191000Y-86677500D01*
X131990250Y-86677500D01*
X132149000Y-86518750D01*
X132149000Y-86278190D01*
X132052327Y-86044801D01*
X131873698Y-85866173D01*
X131640309Y-85769500D01*
X131349750Y-85769500D01*
X131191000Y-85928250D01*
X130937000Y-85928250D01*
X130778250Y-85769500D01*
X130487691Y-85769500D01*
X130254302Y-85866173D01*
X130075673Y-86044801D01*
X129979000Y-86278190D01*
X129897666Y-86278190D01*
X129902464Y-86254500D01*
X129902464Y-85454500D01*
X146688036Y-85454500D01*
X146688036Y-86254500D01*
X146714603Y-86395690D01*
X146798046Y-86525365D01*
X146925366Y-86612359D01*
X147076500Y-86642964D01*
X147976500Y-86642964D01*
X148117690Y-86616397D01*
X148247365Y-86532954D01*
X148334359Y-86405634D01*
X148360166Y-86278190D01*
X148441500Y-86278190D01*
X148441500Y-86518750D01*
X148600250Y-86677500D01*
X149399500Y-86677500D01*
X149399500Y-85928250D01*
X149653500Y-85928250D01*
X149653500Y-86677500D01*
X150452750Y-86677500D01*
X150611500Y-86518750D01*
X150611500Y-86278190D01*
X150514827Y-86044801D01*
X150336198Y-85866173D01*
X150102809Y-85769500D01*
X149812250Y-85769500D01*
X149653500Y-85928250D01*
X149399500Y-85928250D01*
X149240750Y-85769500D01*
X148950191Y-85769500D01*
X148716802Y-85866173D01*
X148538173Y-86044801D01*
X148441500Y-86278190D01*
X148360166Y-86278190D01*
X148364964Y-86254500D01*
X148364964Y-85454500D01*
X165103036Y-85454500D01*
X165103036Y-86254500D01*
X165129603Y-86395690D01*
X165213046Y-86525365D01*
X165340366Y-86612359D01*
X165491500Y-86642964D01*
X166391500Y-86642964D01*
X166532690Y-86616397D01*
X166662365Y-86532954D01*
X166749359Y-86405634D01*
X166775166Y-86278190D01*
X166856500Y-86278190D01*
X166856500Y-86518750D01*
X167015250Y-86677500D01*
X167814500Y-86677500D01*
X167814500Y-85928250D01*
X168068500Y-85928250D01*
X168068500Y-86677500D01*
X168867750Y-86677500D01*
X169026500Y-86518750D01*
X169026500Y-86278190D01*
X168929827Y-86044801D01*
X168751198Y-85866173D01*
X168517809Y-85769500D01*
X168227250Y-85769500D01*
X168068500Y-85928250D01*
X167814500Y-85928250D01*
X167655750Y-85769500D01*
X167365191Y-85769500D01*
X167131802Y-85866173D01*
X166953173Y-86044801D01*
X166856500Y-86278190D01*
X166775166Y-86278190D01*
X166779964Y-86254500D01*
X166779964Y-85454500D01*
X166753397Y-85313310D01*
X166669954Y-85183635D01*
X166542634Y-85096641D01*
X166443500Y-85076566D01*
X166443500Y-84939019D01*
X166458365Y-84929454D01*
X166545359Y-84802134D01*
X166552500Y-84766870D01*
X166552500Y-84777310D01*
X166649173Y-85010699D01*
X166827802Y-85189327D01*
X167061191Y-85286000D01*
X167153750Y-85286000D01*
X167312500Y-85127250D01*
X167312500Y-84328000D01*
X167562500Y-84328000D01*
X167562500Y-85127250D01*
X167721250Y-85286000D01*
X167813809Y-85286000D01*
X168047198Y-85189327D01*
X168107135Y-85129390D01*
X181184524Y-85129390D01*
X181354355Y-85539424D01*
X181744642Y-85967683D01*
X182269108Y-86213986D01*
X182499000Y-86093319D01*
X182499000Y-84899500D01*
X182753000Y-84899500D01*
X182753000Y-86093319D01*
X182982892Y-86213986D01*
X183507358Y-85967683D01*
X183897645Y-85539424D01*
X184067476Y-85129390D01*
X183946155Y-84899500D01*
X182753000Y-84899500D01*
X182499000Y-84899500D01*
X181305845Y-84899500D01*
X181184524Y-85129390D01*
X168107135Y-85129390D01*
X168225827Y-85010699D01*
X168322500Y-84777310D01*
X168322500Y-84486750D01*
X168163750Y-84328000D01*
X167562500Y-84328000D01*
X167312500Y-84328000D01*
X167290500Y-84328000D01*
X167290500Y-84074000D01*
X167312500Y-84074000D01*
X167312500Y-83274750D01*
X167562500Y-83274750D01*
X167562500Y-84074000D01*
X168163750Y-84074000D01*
X168322500Y-83915250D01*
X168322500Y-83624690D01*
X168225827Y-83391301D01*
X168047198Y-83212673D01*
X167813809Y-83116000D01*
X167721250Y-83116000D01*
X167562500Y-83274750D01*
X167312500Y-83274750D01*
X167153750Y-83116000D01*
X167061191Y-83116000D01*
X166895433Y-83184659D01*
X167341592Y-82738500D01*
X181487918Y-82738500D01*
X181731435Y-83102948D01*
X182130800Y-83369796D01*
X182169947Y-83377583D01*
X181744642Y-83577317D01*
X181354355Y-84005576D01*
X181184524Y-84415610D01*
X181305845Y-84645500D01*
X182499000Y-84645500D01*
X182499000Y-84625500D01*
X182753000Y-84625500D01*
X182753000Y-84645500D01*
X183946155Y-84645500D01*
X184067476Y-84415610D01*
X183897645Y-84005576D01*
X183507358Y-83577317D01*
X183082053Y-83377583D01*
X183121200Y-83369796D01*
X183520565Y-83102948D01*
X183787413Y-82703583D01*
X183881117Y-82232500D01*
X183787413Y-81761417D01*
X183520565Y-81362052D01*
X183121200Y-81095204D01*
X182650117Y-81001500D01*
X182601883Y-81001500D01*
X182130800Y-81095204D01*
X181731435Y-81362052D01*
X181487918Y-81726500D01*
X167132000Y-81726500D01*
X166938362Y-81765017D01*
X166774204Y-81874704D01*
X165579704Y-83069204D01*
X165470017Y-83233362D01*
X165431500Y-83427000D01*
X165431500Y-83462981D01*
X165416635Y-83472546D01*
X165329641Y-83599866D01*
X165299036Y-83751000D01*
X165299036Y-84651000D01*
X165325603Y-84792190D01*
X165409046Y-84921865D01*
X165431500Y-84937207D01*
X165431500Y-85077326D01*
X165350310Y-85092603D01*
X165220635Y-85176046D01*
X165133641Y-85303366D01*
X165103036Y-85454500D01*
X148364964Y-85454500D01*
X148338397Y-85313310D01*
X148254954Y-85183635D01*
X148127634Y-85096641D01*
X148028500Y-85076566D01*
X148028500Y-84939019D01*
X148043365Y-84929454D01*
X148130359Y-84802134D01*
X148137500Y-84766870D01*
X148137500Y-84777310D01*
X148234173Y-85010699D01*
X148412802Y-85189327D01*
X148646191Y-85286000D01*
X148738750Y-85286000D01*
X148897500Y-85127250D01*
X148897500Y-84328000D01*
X149147500Y-84328000D01*
X149147500Y-85127250D01*
X149306250Y-85286000D01*
X149398809Y-85286000D01*
X149632198Y-85189327D01*
X149810827Y-85010699D01*
X149907500Y-84777310D01*
X149907500Y-84486750D01*
X149748750Y-84328000D01*
X149147500Y-84328000D01*
X148897500Y-84328000D01*
X148875500Y-84328000D01*
X148875500Y-84074000D01*
X148897500Y-84074000D01*
X148897500Y-83274750D01*
X149147500Y-83274750D01*
X149147500Y-84074000D01*
X149748750Y-84074000D01*
X149907500Y-83915250D01*
X149907500Y-83624690D01*
X149810827Y-83391301D01*
X149632198Y-83212673D01*
X149398809Y-83116000D01*
X149306250Y-83116000D01*
X149147500Y-83274750D01*
X148897500Y-83274750D01*
X148738750Y-83116000D01*
X148646191Y-83116000D01*
X148412802Y-83212673D01*
X148234173Y-83391301D01*
X148137500Y-83624690D01*
X148137500Y-83626301D01*
X148134397Y-83609810D01*
X148053696Y-83484396D01*
X151339592Y-80198500D01*
X181487918Y-80198500D01*
X181731435Y-80562948D01*
X182130800Y-80829796D01*
X182601883Y-80923500D01*
X182650117Y-80923500D01*
X183121200Y-80829796D01*
X183520565Y-80562948D01*
X183787413Y-80163583D01*
X183881117Y-79692500D01*
X183787413Y-79221417D01*
X183520565Y-78822052D01*
X183121200Y-78555204D01*
X182650117Y-78461500D01*
X182601883Y-78461500D01*
X182130800Y-78555204D01*
X181731435Y-78822052D01*
X181487918Y-79186500D01*
X151130000Y-79186500D01*
X150936362Y-79225017D01*
X150772204Y-79334704D01*
X147164704Y-82942204D01*
X147055017Y-83106362D01*
X147016500Y-83300000D01*
X147016500Y-83462981D01*
X147001635Y-83472546D01*
X146914641Y-83599866D01*
X146884036Y-83751000D01*
X146884036Y-84651000D01*
X146910603Y-84792190D01*
X146994046Y-84921865D01*
X147016500Y-84937207D01*
X147016500Y-85077326D01*
X146935310Y-85092603D01*
X146805635Y-85176046D01*
X146718641Y-85303366D01*
X146688036Y-85454500D01*
X129902464Y-85454500D01*
X129875897Y-85313310D01*
X129792454Y-85183635D01*
X129665134Y-85096641D01*
X129570000Y-85077376D01*
X129570000Y-84904376D01*
X129639859Y-84802134D01*
X129647000Y-84766870D01*
X129647000Y-84777310D01*
X129743673Y-85010699D01*
X129922302Y-85189327D01*
X130155691Y-85286000D01*
X130248250Y-85286000D01*
X130407000Y-85127250D01*
X130407000Y-84328000D01*
X130657000Y-84328000D01*
X130657000Y-85127250D01*
X130815750Y-85286000D01*
X130908309Y-85286000D01*
X131141698Y-85189327D01*
X131320327Y-85010699D01*
X131417000Y-84777310D01*
X131417000Y-84486750D01*
X131258250Y-84328000D01*
X130657000Y-84328000D01*
X130407000Y-84328000D01*
X130385000Y-84328000D01*
X130385000Y-84074000D01*
X130407000Y-84074000D01*
X130407000Y-83274750D01*
X130657000Y-83274750D01*
X130657000Y-84074000D01*
X131258250Y-84074000D01*
X131417000Y-83915250D01*
X131417000Y-83624690D01*
X131320327Y-83391301D01*
X131141698Y-83212673D01*
X130908309Y-83116000D01*
X130815750Y-83116000D01*
X130657000Y-83274750D01*
X130407000Y-83274750D01*
X130248250Y-83116000D01*
X130155691Y-83116000D01*
X129922302Y-83212673D01*
X129743673Y-83391301D01*
X129647000Y-83624690D01*
X129647000Y-83626301D01*
X129643897Y-83609810D01*
X129560454Y-83480135D01*
X129538000Y-83464793D01*
X129538000Y-82569092D01*
X134448592Y-77658500D01*
X181487918Y-77658500D01*
X181731435Y-78022948D01*
X182130800Y-78289796D01*
X182601883Y-78383500D01*
X182650117Y-78383500D01*
X183121200Y-78289796D01*
X183520565Y-78022948D01*
X183787413Y-77623583D01*
X183881117Y-77152500D01*
X183787413Y-76681417D01*
X183520565Y-76282052D01*
X183121200Y-76015204D01*
X182650117Y-75921500D01*
X182601883Y-75921500D01*
X182130800Y-76015204D01*
X181731435Y-76282052D01*
X181487918Y-76646500D01*
X134239000Y-76646500D01*
X134045362Y-76685017D01*
X133881204Y-76794704D01*
X128674204Y-82001704D01*
X128564517Y-82165862D01*
X128526000Y-82359500D01*
X128526000Y-83462981D01*
X128511135Y-83472546D01*
X128424141Y-83599866D01*
X128393536Y-83751000D01*
X128393536Y-84651000D01*
X128420103Y-84792190D01*
X128503546Y-84921865D01*
X128558000Y-84959072D01*
X128558000Y-85076573D01*
X128472810Y-85092603D01*
X128343135Y-85176046D01*
X128256141Y-85303366D01*
X128225536Y-85454500D01*
X125932000Y-85454500D01*
X125932000Y-75556745D01*
X170598361Y-75556745D01*
X170672495Y-75802864D01*
X171209723Y-75995965D01*
X171779954Y-75968778D01*
X172180505Y-75802864D01*
X172254639Y-75556745D01*
X171426500Y-74728605D01*
X170598361Y-75556745D01*
X125932000Y-75556745D01*
X125932000Y-74332223D01*
X169979535Y-74332223D01*
X170006722Y-74902454D01*
X170172636Y-75303005D01*
X170418755Y-75377139D01*
X171246895Y-74549000D01*
X171606105Y-74549000D01*
X172434245Y-75377139D01*
X172680364Y-75303005D01*
X172738036Y-75142555D01*
X172738036Y-75349000D01*
X172764603Y-75490190D01*
X172848046Y-75619865D01*
X172975366Y-75706859D01*
X173126500Y-75737464D01*
X173959655Y-75737464D01*
X173990000Y-75743500D01*
X181512379Y-75743500D01*
X181624866Y-75820359D01*
X181776000Y-75850964D01*
X183476000Y-75850964D01*
X183617190Y-75824397D01*
X183746865Y-75740954D01*
X183833859Y-75613634D01*
X183864464Y-75462500D01*
X183864464Y-73762500D01*
X183837897Y-73621310D01*
X183754454Y-73491635D01*
X183627134Y-73404641D01*
X183476000Y-73374036D01*
X181776000Y-73374036D01*
X181634810Y-73400603D01*
X181509092Y-73481500D01*
X175007119Y-73481500D01*
X175004954Y-73478135D01*
X174877634Y-73391141D01*
X174726500Y-73360536D01*
X174432500Y-73360536D01*
X174432500Y-69351158D01*
X174498865Y-69308454D01*
X174585859Y-69181134D01*
X174616464Y-69030000D01*
X174616464Y-68130000D01*
X174589897Y-67988810D01*
X174506454Y-67859135D01*
X174379134Y-67772141D01*
X174228000Y-67741536D01*
X173728000Y-67741536D01*
X173586810Y-67768103D01*
X173457135Y-67851546D01*
X173370141Y-67978866D01*
X173339536Y-68130000D01*
X173339536Y-69030000D01*
X173366103Y-69171190D01*
X173420500Y-69255726D01*
X173420500Y-73360536D01*
X173126500Y-73360536D01*
X172985310Y-73387103D01*
X172855635Y-73470546D01*
X172768641Y-73597866D01*
X172738036Y-73749000D01*
X172738036Y-73934227D01*
X172680364Y-73794995D01*
X172434245Y-73720861D01*
X171606105Y-74549000D01*
X171246895Y-74549000D01*
X170418755Y-73720861D01*
X170172636Y-73794995D01*
X169979535Y-74332223D01*
X125932000Y-74332223D01*
X125932000Y-73541255D01*
X170598361Y-73541255D01*
X171426500Y-74369395D01*
X172254639Y-73541255D01*
X172180505Y-73295136D01*
X171643277Y-73102035D01*
X171073046Y-73129222D01*
X170672495Y-73295136D01*
X170598361Y-73541255D01*
X125932000Y-73541255D01*
X125932000Y-68865750D01*
X168408500Y-68865750D01*
X168408500Y-69106310D01*
X168505173Y-69339699D01*
X168683802Y-69518327D01*
X168917191Y-69615000D01*
X169157750Y-69615000D01*
X169316500Y-69456250D01*
X169316500Y-68707000D01*
X168567250Y-68707000D01*
X168408500Y-68865750D01*
X125932000Y-68865750D01*
X125932000Y-66884316D01*
X126994657Y-66884316D01*
X127295611Y-67612680D01*
X127852389Y-68170431D01*
X128580226Y-68472655D01*
X129368316Y-68473343D01*
X130096680Y-68172389D01*
X130215586Y-68053690D01*
X168408500Y-68053690D01*
X168408500Y-68294250D01*
X168567250Y-68453000D01*
X169316500Y-68453000D01*
X169316500Y-67703750D01*
X169570500Y-67703750D01*
X169570500Y-68453000D01*
X169590500Y-68453000D01*
X169590500Y-68707000D01*
X169570500Y-68707000D01*
X169570500Y-69456250D01*
X169729250Y-69615000D01*
X169969809Y-69615000D01*
X170203198Y-69518327D01*
X170381827Y-69339699D01*
X170406805Y-69279398D01*
X170492366Y-69337859D01*
X170643500Y-69368464D01*
X171443500Y-69368464D01*
X171584690Y-69341897D01*
X171714365Y-69258454D01*
X171801359Y-69131134D01*
X171810499Y-69086000D01*
X171850073Y-69086000D01*
X171866103Y-69171190D01*
X171949546Y-69300865D01*
X172076866Y-69387859D01*
X172228000Y-69418464D01*
X172728000Y-69418464D01*
X172869190Y-69391897D01*
X172998865Y-69308454D01*
X173085859Y-69181134D01*
X173116464Y-69030000D01*
X173116464Y-68130000D01*
X173089897Y-67988810D01*
X173006454Y-67859135D01*
X172879134Y-67772141D01*
X172728000Y-67741536D01*
X172228000Y-67741536D01*
X172086810Y-67768103D01*
X171957135Y-67851546D01*
X171870141Y-67978866D01*
X171850876Y-68074000D01*
X171812019Y-68074000D01*
X171805397Y-68038810D01*
X171721954Y-67909135D01*
X171594634Y-67822141D01*
X171443500Y-67791536D01*
X170643500Y-67791536D01*
X170502310Y-67818103D01*
X170406463Y-67879778D01*
X170381827Y-67820301D01*
X170203198Y-67641673D01*
X169969809Y-67545000D01*
X169729250Y-67545000D01*
X169570500Y-67703750D01*
X169316500Y-67703750D01*
X169157750Y-67545000D01*
X168917191Y-67545000D01*
X168683802Y-67641673D01*
X168505173Y-67820301D01*
X168408500Y-68053690D01*
X130215586Y-68053690D01*
X130654431Y-67615611D01*
X130956655Y-66887774D01*
X130956658Y-66884316D01*
X179994657Y-66884316D01*
X180295611Y-67612680D01*
X180852389Y-68170431D01*
X181580226Y-68472655D01*
X182368316Y-68473343D01*
X183096680Y-68172389D01*
X183654431Y-67615611D01*
X183956655Y-66887774D01*
X183957343Y-66099684D01*
X183656389Y-65371320D01*
X183099611Y-64813569D01*
X182371774Y-64511345D01*
X181583684Y-64510657D01*
X180855320Y-64811611D01*
X180297569Y-65368389D01*
X179995345Y-66096226D01*
X179994657Y-66884316D01*
X130956658Y-66884316D01*
X130957343Y-66099684D01*
X130656389Y-65371320D01*
X130099611Y-64813569D01*
X129371774Y-64511345D01*
X128583684Y-64510657D01*
X127855320Y-64811611D01*
X127297569Y-65368389D01*
X126995345Y-66096226D01*
X126994657Y-66884316D01*
X125932000Y-66884316D01*
X125932000Y-63448000D01*
X185020000Y-63448000D01*
X185020000Y-122536000D01*
M02*
