G04 #@! TF.FileFunction,Legend,Top*
%FSLAX46Y46*%
G04 Gerber Fmt 4.6, Leading zero omitted, Abs format (unit mm)*
G04 Created by KiCad (PCBNEW 4.0.6) date 04/22/17 16:30:30*
%MOMM*%
%LPD*%
G01*
G04 APERTURE LIST*
%ADD10C,0.100000*%
%ADD11C,0.250000*%
%ADD12C,0.300000*%
%ADD13C,0.150000*%
%ADD14C,0.120000*%
%ADD15C,0.125000*%
G04 APERTURE END LIST*
D10*
D11*
X148820858Y-65413000D02*
X148725620Y-65365381D01*
X148582763Y-65365381D01*
X148439905Y-65413000D01*
X148344667Y-65508238D01*
X148297048Y-65603476D01*
X148249429Y-65793952D01*
X148249429Y-65936810D01*
X148297048Y-66127286D01*
X148344667Y-66222524D01*
X148439905Y-66317762D01*
X148582763Y-66365381D01*
X148678001Y-66365381D01*
X148820858Y-66317762D01*
X148868477Y-66270143D01*
X148868477Y-65936810D01*
X148678001Y-65936810D01*
X149773239Y-66365381D02*
X149297048Y-66365381D01*
X149297048Y-65365381D01*
X150058953Y-66079667D02*
X150535144Y-66079667D01*
X149963715Y-66365381D02*
X150297048Y-65365381D01*
X150630382Y-66365381D01*
X150868477Y-65365381D02*
X151535144Y-65365381D01*
X150868477Y-66365381D01*
X151535144Y-66365381D01*
X151916096Y-65841571D02*
X152249430Y-65841571D01*
X152392287Y-66365381D02*
X151916096Y-66365381D01*
X151916096Y-65365381D01*
X152392287Y-65365381D01*
X153392287Y-66365381D02*
X153058953Y-65889190D01*
X152820858Y-66365381D02*
X152820858Y-65365381D01*
X153201811Y-65365381D01*
X153297049Y-65413000D01*
X153344668Y-65460619D01*
X153392287Y-65555857D01*
X153392287Y-65698714D01*
X153344668Y-65793952D01*
X153297049Y-65841571D01*
X153201811Y-65889190D01*
X152820858Y-65889190D01*
X153820858Y-66365381D02*
X153820858Y-65365381D01*
X154297048Y-66365381D02*
X154297048Y-65365381D01*
X154868477Y-66365381D01*
X154868477Y-65365381D01*
X155344667Y-66270143D02*
X155392286Y-66317762D01*
X155344667Y-66365381D01*
X155297048Y-66317762D01*
X155344667Y-66270143D01*
X155344667Y-66365381D01*
X155773238Y-66317762D02*
X155916095Y-66365381D01*
X156154191Y-66365381D01*
X156249429Y-66317762D01*
X156297048Y-66270143D01*
X156344667Y-66174905D01*
X156344667Y-66079667D01*
X156297048Y-65984429D01*
X156249429Y-65936810D01*
X156154191Y-65889190D01*
X155963714Y-65841571D01*
X155868476Y-65793952D01*
X155820857Y-65746333D01*
X155773238Y-65651095D01*
X155773238Y-65555857D01*
X155820857Y-65460619D01*
X155868476Y-65413000D01*
X155963714Y-65365381D01*
X156201810Y-65365381D01*
X156344667Y-65413000D01*
X156773238Y-66365381D02*
X156773238Y-65365381D01*
X157154191Y-65365381D01*
X157249429Y-65413000D01*
X157297048Y-65460619D01*
X157344667Y-65555857D01*
X157344667Y-65698714D01*
X157297048Y-65793952D01*
X157249429Y-65841571D01*
X157154191Y-65889190D01*
X156773238Y-65889190D01*
X157725619Y-66079667D02*
X158201810Y-66079667D01*
X157630381Y-66365381D02*
X157963714Y-65365381D01*
X158297048Y-66365381D01*
X159201810Y-66270143D02*
X159154191Y-66317762D01*
X159011334Y-66365381D01*
X158916096Y-66365381D01*
X158773238Y-66317762D01*
X158678000Y-66222524D01*
X158630381Y-66127286D01*
X158582762Y-65936810D01*
X158582762Y-65793952D01*
X158630381Y-65603476D01*
X158678000Y-65508238D01*
X158773238Y-65413000D01*
X158916096Y-65365381D01*
X159011334Y-65365381D01*
X159154191Y-65413000D01*
X159201810Y-65460619D01*
X159630381Y-65841571D02*
X159963715Y-65841571D01*
X160106572Y-66365381D02*
X159630381Y-66365381D01*
X159630381Y-65365381D01*
X160106572Y-65365381D01*
D12*
X139390787Y-66713571D02*
X138890787Y-65999286D01*
X138533644Y-66713571D02*
X138533644Y-65213571D01*
X139105072Y-65213571D01*
X139247930Y-65285000D01*
X139319358Y-65356429D01*
X139390787Y-65499286D01*
X139390787Y-65713571D01*
X139319358Y-65856429D01*
X139247930Y-65927857D01*
X139105072Y-65999286D01*
X138533644Y-65999286D01*
X140033644Y-65927857D02*
X140533644Y-65927857D01*
X140747930Y-66713571D02*
X140033644Y-66713571D01*
X140033644Y-65213571D01*
X140747930Y-65213571D01*
X141176501Y-65213571D02*
X141676501Y-66713571D01*
X142176501Y-65213571D01*
X142319358Y-66856429D02*
X143462215Y-66856429D01*
X144605072Y-66713571D02*
X143747929Y-66713571D01*
X144176501Y-66713571D02*
X144176501Y-65213571D01*
X144033644Y-65427857D01*
X143890786Y-65570714D01*
X143747929Y-65642143D01*
X145176500Y-66285000D02*
X145890786Y-66285000D01*
X145033643Y-66713571D02*
X145533643Y-65213571D01*
X146033643Y-66713571D01*
X140247929Y-68263571D02*
X140247929Y-69263571D01*
X139890786Y-67692143D02*
X139533643Y-68763571D01*
X140462215Y-68763571D01*
X142105071Y-67692143D02*
X140819357Y-69620714D01*
X143390786Y-69263571D02*
X142533643Y-69263571D01*
X142962215Y-69263571D02*
X142962215Y-67763571D01*
X142819358Y-67977857D01*
X142676500Y-68120714D01*
X142533643Y-68192143D01*
X143890786Y-67763571D02*
X144890786Y-67763571D01*
X144247929Y-69263571D01*
D13*
X165263000Y-111301500D02*
X181763000Y-111301500D01*
X181763000Y-111301500D02*
X181763000Y-88801500D01*
X165263000Y-88801500D02*
X181763000Y-88801500D01*
X165263000Y-111301500D02*
X165263000Y-88801500D01*
D14*
X169588060Y-75528357D02*
G75*
G03X175764736Y-75529000I3088440J979357D01*
G01*
X169588060Y-73569643D02*
G75*
G02X175764736Y-73569000I3088440J-979357D01*
G01*
X169588060Y-73569643D02*
G75*
G03X169588264Y-75529000I3088440J-979357D01*
G01*
X172676500Y-77749000D02*
X172676500Y-71349000D01*
X172636500Y-77749000D02*
X172636500Y-71349000D01*
X172596500Y-77749000D02*
X172596500Y-71349000D01*
X172556500Y-77747000D02*
X172556500Y-71351000D01*
X172516500Y-77746000D02*
X172516500Y-71352000D01*
X172476500Y-77743000D02*
X172476500Y-71355000D01*
X172436500Y-77741000D02*
X172436500Y-71357000D01*
X172396500Y-77737000D02*
X172396500Y-75529000D01*
X172396500Y-73569000D02*
X172396500Y-71361000D01*
X172356500Y-77734000D02*
X172356500Y-75529000D01*
X172356500Y-73569000D02*
X172356500Y-71364000D01*
X172316500Y-77729000D02*
X172316500Y-75529000D01*
X172316500Y-73569000D02*
X172316500Y-71369000D01*
X172276500Y-77725000D02*
X172276500Y-75529000D01*
X172276500Y-73569000D02*
X172276500Y-71373000D01*
X172236500Y-77719000D02*
X172236500Y-75529000D01*
X172236500Y-73569000D02*
X172236500Y-71379000D01*
X172196500Y-77714000D02*
X172196500Y-75529000D01*
X172196500Y-73569000D02*
X172196500Y-71384000D01*
X172156500Y-77707000D02*
X172156500Y-75529000D01*
X172156500Y-73569000D02*
X172156500Y-71391000D01*
X172116500Y-77701000D02*
X172116500Y-75529000D01*
X172116500Y-73569000D02*
X172116500Y-71397000D01*
X172076500Y-77693000D02*
X172076500Y-75529000D01*
X172076500Y-73569000D02*
X172076500Y-71405000D01*
X172036500Y-77686000D02*
X172036500Y-75529000D01*
X172036500Y-73569000D02*
X172036500Y-71412000D01*
X171996500Y-77677000D02*
X171996500Y-75529000D01*
X171996500Y-73569000D02*
X171996500Y-71421000D01*
X171955500Y-77668000D02*
X171955500Y-75529000D01*
X171955500Y-73569000D02*
X171955500Y-71430000D01*
X171915500Y-77659000D02*
X171915500Y-75529000D01*
X171915500Y-73569000D02*
X171915500Y-71439000D01*
X171875500Y-77649000D02*
X171875500Y-75529000D01*
X171875500Y-73569000D02*
X171875500Y-71449000D01*
X171835500Y-77639000D02*
X171835500Y-75529000D01*
X171835500Y-73569000D02*
X171835500Y-71459000D01*
X171795500Y-77628000D02*
X171795500Y-75529000D01*
X171795500Y-73569000D02*
X171795500Y-71470000D01*
X171755500Y-77616000D02*
X171755500Y-75529000D01*
X171755500Y-73569000D02*
X171755500Y-71482000D01*
X171715500Y-77604000D02*
X171715500Y-75529000D01*
X171715500Y-73569000D02*
X171715500Y-71494000D01*
X171675500Y-77591000D02*
X171675500Y-75529000D01*
X171675500Y-73569000D02*
X171675500Y-71507000D01*
X171635500Y-77578000D02*
X171635500Y-75529000D01*
X171635500Y-73569000D02*
X171635500Y-71520000D01*
X171595500Y-77564000D02*
X171595500Y-75529000D01*
X171595500Y-73569000D02*
X171595500Y-71534000D01*
X171555500Y-77550000D02*
X171555500Y-75529000D01*
X171555500Y-73569000D02*
X171555500Y-71548000D01*
X171515500Y-77535000D02*
X171515500Y-75529000D01*
X171515500Y-73569000D02*
X171515500Y-71563000D01*
X171475500Y-77519000D02*
X171475500Y-75529000D01*
X171475500Y-73569000D02*
X171475500Y-71579000D01*
X171435500Y-77503000D02*
X171435500Y-75529000D01*
X171435500Y-73569000D02*
X171435500Y-71595000D01*
X171395500Y-77486000D02*
X171395500Y-75529000D01*
X171395500Y-73569000D02*
X171395500Y-71612000D01*
X171355500Y-77468000D02*
X171355500Y-75529000D01*
X171355500Y-73569000D02*
X171355500Y-71630000D01*
X171315500Y-77450000D02*
X171315500Y-75529000D01*
X171315500Y-73569000D02*
X171315500Y-71648000D01*
X171275500Y-77431000D02*
X171275500Y-75529000D01*
X171275500Y-73569000D02*
X171275500Y-71667000D01*
X171235500Y-77412000D02*
X171235500Y-75529000D01*
X171235500Y-73569000D02*
X171235500Y-71686000D01*
X171195500Y-77392000D02*
X171195500Y-75529000D01*
X171195500Y-73569000D02*
X171195500Y-71706000D01*
X171155500Y-77371000D02*
X171155500Y-75529000D01*
X171155500Y-73569000D02*
X171155500Y-71727000D01*
X171115500Y-77349000D02*
X171115500Y-75529000D01*
X171115500Y-73569000D02*
X171115500Y-71749000D01*
X171075500Y-77327000D02*
X171075500Y-75529000D01*
X171075500Y-73569000D02*
X171075500Y-71771000D01*
X171035500Y-77304000D02*
X171035500Y-75529000D01*
X171035500Y-73569000D02*
X171035500Y-71794000D01*
X170995500Y-77280000D02*
X170995500Y-75529000D01*
X170995500Y-73569000D02*
X170995500Y-71818000D01*
X170955500Y-77255000D02*
X170955500Y-75529000D01*
X170955500Y-73569000D02*
X170955500Y-71843000D01*
X170915500Y-77230000D02*
X170915500Y-75529000D01*
X170915500Y-73569000D02*
X170915500Y-71868000D01*
X170875500Y-77203000D02*
X170875500Y-75529000D01*
X170875500Y-73569000D02*
X170875500Y-71895000D01*
X170835500Y-77176000D02*
X170835500Y-75529000D01*
X170835500Y-73569000D02*
X170835500Y-71922000D01*
X170795500Y-77148000D02*
X170795500Y-75529000D01*
X170795500Y-73569000D02*
X170795500Y-71950000D01*
X170755500Y-77119000D02*
X170755500Y-75529000D01*
X170755500Y-73569000D02*
X170755500Y-71979000D01*
X170715500Y-77089000D02*
X170715500Y-75529000D01*
X170715500Y-73569000D02*
X170715500Y-72009000D01*
X170675500Y-77059000D02*
X170675500Y-75529000D01*
X170675500Y-73569000D02*
X170675500Y-72039000D01*
X170635500Y-77027000D02*
X170635500Y-75529000D01*
X170635500Y-73569000D02*
X170635500Y-72071000D01*
X170595500Y-76994000D02*
X170595500Y-75529000D01*
X170595500Y-73569000D02*
X170595500Y-72104000D01*
X170555500Y-76960000D02*
X170555500Y-75529000D01*
X170555500Y-73569000D02*
X170555500Y-72138000D01*
X170515500Y-76924000D02*
X170515500Y-75529000D01*
X170515500Y-73569000D02*
X170515500Y-72174000D01*
X170475500Y-76888000D02*
X170475500Y-75529000D01*
X170475500Y-73569000D02*
X170475500Y-72210000D01*
X170435500Y-76850000D02*
X170435500Y-72248000D01*
X170395500Y-76811000D02*
X170395500Y-72287000D01*
X170355500Y-76771000D02*
X170355500Y-72327000D01*
X170315500Y-76729000D02*
X170315500Y-72369000D01*
X170275500Y-76686000D02*
X170275500Y-72412000D01*
X170235500Y-76641000D02*
X170235500Y-72457000D01*
X170195500Y-76594000D02*
X170195500Y-72504000D01*
X170155500Y-76546000D02*
X170155500Y-72552000D01*
X170115500Y-76495000D02*
X170115500Y-72603000D01*
X170075500Y-76443000D02*
X170075500Y-72655000D01*
X170035500Y-76388000D02*
X170035500Y-72710000D01*
X169995500Y-76330000D02*
X169995500Y-72768000D01*
X169955500Y-76270000D02*
X169955500Y-72828000D01*
X169915500Y-76207000D02*
X169915500Y-72891000D01*
X169875500Y-76140000D02*
X169875500Y-72958000D01*
X169835500Y-76069000D02*
X169835500Y-73029000D01*
X169795500Y-75994000D02*
X169795500Y-73104000D01*
X169755500Y-75913000D02*
X169755500Y-73185000D01*
X169715500Y-75827000D02*
X169715500Y-73271000D01*
X169675500Y-75733000D02*
X169675500Y-73365000D01*
X169635500Y-75630000D02*
X169635500Y-73468000D01*
X169595500Y-75515000D02*
X169595500Y-73583000D01*
X169555500Y-75383000D02*
X169555500Y-73715000D01*
X169515500Y-75225000D02*
X169515500Y-73873000D01*
X169475500Y-75017000D02*
X169475500Y-74081000D01*
X176126500Y-74549000D02*
X174926500Y-74549000D01*
X175526500Y-75199000D02*
X175526500Y-73899000D01*
X168943500Y-68080000D02*
X168943500Y-69080000D01*
X168943500Y-69080000D02*
X171043500Y-69080000D01*
X168943500Y-68080000D02*
X171043500Y-68080000D01*
X139798000Y-88581500D02*
X139798000Y-85281500D01*
X139798000Y-85281500D02*
X134398000Y-85281500D01*
X139798000Y-88581500D02*
X134398000Y-88581500D01*
X158340000Y-88454500D02*
X158340000Y-85154500D01*
X158340000Y-85154500D02*
X152940000Y-85154500D01*
X158340000Y-88454500D02*
X152940000Y-88454500D01*
X176723000Y-88073500D02*
X176723000Y-84773500D01*
X176723000Y-84773500D02*
X171323000Y-84773500D01*
X176723000Y-88073500D02*
X171323000Y-88073500D01*
X181296000Y-75882500D02*
X181296000Y-86102500D01*
X181296000Y-86102500D02*
X183956000Y-86102500D01*
X183956000Y-86102500D02*
X183956000Y-75882500D01*
X183956000Y-75882500D02*
X181296000Y-75882500D01*
X181296000Y-74612500D02*
X181296000Y-73282500D01*
X181296000Y-73282500D02*
X182626000Y-73282500D01*
D13*
X145768000Y-122972000D02*
X145768000Y-123372000D01*
X142268000Y-121872000D02*
X149268000Y-121872000D01*
X142268000Y-122972000D02*
X149268000Y-122972000D01*
X142268000Y-115772000D02*
X142268000Y-123372000D01*
X149268000Y-123372000D02*
X149268000Y-115772000D01*
X149268000Y-115772000D02*
X142268000Y-115772000D01*
X164183000Y-122972000D02*
X164183000Y-123372000D01*
X160683000Y-121872000D02*
X167683000Y-121872000D01*
X160683000Y-122972000D02*
X167683000Y-122972000D01*
X160683000Y-115772000D02*
X160683000Y-123372000D01*
X167683000Y-123372000D02*
X167683000Y-115772000D01*
X167683000Y-115772000D02*
X160683000Y-115772000D01*
D14*
X130824000Y-88384500D02*
X130824000Y-87454500D01*
X130824000Y-85224500D02*
X130824000Y-86154500D01*
X130824000Y-85224500D02*
X128664000Y-85224500D01*
X130824000Y-88384500D02*
X129364000Y-88384500D01*
X149286500Y-88384500D02*
X149286500Y-87454500D01*
X149286500Y-85224500D02*
X149286500Y-86154500D01*
X149286500Y-85224500D02*
X147126500Y-85224500D01*
X149286500Y-88384500D02*
X147826500Y-88384500D01*
X167701500Y-88384500D02*
X167701500Y-87454500D01*
X167701500Y-85224500D02*
X167701500Y-86154500D01*
X167701500Y-85224500D02*
X165541500Y-85224500D01*
X167701500Y-88384500D02*
X166241500Y-88384500D01*
X172728000Y-67900000D02*
X173728000Y-67900000D01*
X173728000Y-69260000D02*
X172728000Y-69260000D01*
X130282000Y-84881000D02*
X129282000Y-84881000D01*
X129282000Y-83521000D02*
X130282000Y-83521000D01*
X148772500Y-84881000D02*
X147772500Y-84881000D01*
X147772500Y-83521000D02*
X148772500Y-83521000D01*
X167187500Y-84881000D02*
X166187500Y-84881000D01*
X166187500Y-83521000D02*
X167187500Y-83521000D01*
D13*
X128433000Y-111301500D02*
X144933000Y-111301500D01*
X144933000Y-111301500D02*
X144933000Y-88801500D01*
X128433000Y-88801500D02*
X144933000Y-88801500D01*
X128433000Y-111301500D02*
X128433000Y-88801500D01*
X146848000Y-111301500D02*
X163348000Y-111301500D01*
X163348000Y-111301500D02*
X163348000Y-88801500D01*
X146848000Y-88801500D02*
X163348000Y-88801500D01*
X146848000Y-111301500D02*
X146848000Y-88801500D01*
X173615381Y-100972928D02*
X173139190Y-101306262D01*
X173615381Y-101544357D02*
X172615381Y-101544357D01*
X172615381Y-101163404D01*
X172663000Y-101068166D01*
X172710619Y-101020547D01*
X172805857Y-100972928D01*
X172948714Y-100972928D01*
X173043952Y-101020547D01*
X173091571Y-101068166D01*
X173139190Y-101163404D01*
X173139190Y-101544357D01*
X173615381Y-100068166D02*
X173615381Y-100544357D01*
X172615381Y-100544357D01*
X172615381Y-99830071D02*
X172615381Y-99211023D01*
X172996333Y-99544357D01*
X172996333Y-99401499D01*
X173043952Y-99306261D01*
X173091571Y-99258642D01*
X173186810Y-99211023D01*
X173424905Y-99211023D01*
X173520143Y-99258642D01*
X173567762Y-99306261D01*
X173615381Y-99401499D01*
X173615381Y-99687214D01*
X173567762Y-99782452D01*
X173520143Y-99830071D01*
D15*
X175456067Y-77635871D02*
X175432257Y-77659681D01*
X175360829Y-77683490D01*
X175313210Y-77683490D01*
X175241781Y-77659681D01*
X175194162Y-77612062D01*
X175170353Y-77564443D01*
X175146543Y-77469205D01*
X175146543Y-77397776D01*
X175170353Y-77302538D01*
X175194162Y-77254919D01*
X175241781Y-77207300D01*
X175313210Y-77183490D01*
X175360829Y-77183490D01*
X175432257Y-77207300D01*
X175456067Y-77231110D01*
X175932257Y-77683490D02*
X175646543Y-77683490D01*
X175789400Y-77683490D02*
X175789400Y-77183490D01*
X175741781Y-77254919D01*
X175694162Y-77302538D01*
X175646543Y-77326348D01*
X170738053Y-67866390D02*
X170738053Y-67366390D01*
X170857100Y-67366390D01*
X170928529Y-67390200D01*
X170976148Y-67437819D01*
X170999957Y-67485438D01*
X171023767Y-67580676D01*
X171023767Y-67652105D01*
X170999957Y-67747343D01*
X170976148Y-67794962D01*
X170928529Y-67842581D01*
X170857100Y-67866390D01*
X170738053Y-67866390D01*
X171499957Y-67866390D02*
X171214243Y-67866390D01*
X171357100Y-67866390D02*
X171357100Y-67366390D01*
X171309481Y-67437819D01*
X171261862Y-67485438D01*
X171214243Y-67509248D01*
X133095253Y-85633690D02*
X133095253Y-85133690D01*
X133214300Y-85133690D01*
X133285729Y-85157500D01*
X133333348Y-85205119D01*
X133357157Y-85252738D01*
X133380967Y-85347976D01*
X133380967Y-85419405D01*
X133357157Y-85514643D01*
X133333348Y-85562262D01*
X133285729Y-85609881D01*
X133214300Y-85633690D01*
X133095253Y-85633690D01*
X133571443Y-85181310D02*
X133595253Y-85157500D01*
X133642872Y-85133690D01*
X133761919Y-85133690D01*
X133809538Y-85157500D01*
X133833348Y-85181310D01*
X133857157Y-85228929D01*
X133857157Y-85276548D01*
X133833348Y-85347976D01*
X133547634Y-85633690D01*
X133857157Y-85633690D01*
X151649953Y-85481290D02*
X151649953Y-84981290D01*
X151769000Y-84981290D01*
X151840429Y-85005100D01*
X151888048Y-85052719D01*
X151911857Y-85100338D01*
X151935667Y-85195576D01*
X151935667Y-85267005D01*
X151911857Y-85362243D01*
X151888048Y-85409862D01*
X151840429Y-85457481D01*
X151769000Y-85481290D01*
X151649953Y-85481290D01*
X152102334Y-84981290D02*
X152411857Y-84981290D01*
X152245191Y-85171767D01*
X152316619Y-85171767D01*
X152364238Y-85195576D01*
X152388048Y-85219386D01*
X152411857Y-85267005D01*
X152411857Y-85386052D01*
X152388048Y-85433671D01*
X152364238Y-85457481D01*
X152316619Y-85481290D01*
X152173762Y-85481290D01*
X152126143Y-85457481D01*
X152102334Y-85433671D01*
X170064953Y-85125690D02*
X170064953Y-84625690D01*
X170184000Y-84625690D01*
X170255429Y-84649500D01*
X170303048Y-84697119D01*
X170326857Y-84744738D01*
X170350667Y-84839976D01*
X170350667Y-84911405D01*
X170326857Y-85006643D01*
X170303048Y-85054262D01*
X170255429Y-85101881D01*
X170184000Y-85125690D01*
X170064953Y-85125690D01*
X170779238Y-84792357D02*
X170779238Y-85125690D01*
X170660191Y-84601881D02*
X170541143Y-84959024D01*
X170850667Y-84959024D01*
D13*
X182292667Y-71734881D02*
X182292667Y-72449167D01*
X182245047Y-72592024D01*
X182149809Y-72687262D01*
X182006952Y-72734881D01*
X181911714Y-72734881D01*
X183292667Y-72734881D02*
X182721238Y-72734881D01*
X183006952Y-72734881D02*
X183006952Y-71734881D01*
X182911714Y-71877738D01*
X182816476Y-71972976D01*
X182721238Y-72020595D01*
X145434667Y-114024381D02*
X145434667Y-114738667D01*
X145387047Y-114881524D01*
X145291809Y-114976762D01*
X145148952Y-115024381D01*
X145053714Y-115024381D01*
X145863238Y-114119619D02*
X145910857Y-114072000D01*
X146006095Y-114024381D01*
X146244191Y-114024381D01*
X146339429Y-114072000D01*
X146387048Y-114119619D01*
X146434667Y-114214857D01*
X146434667Y-114310095D01*
X146387048Y-114452952D01*
X145815619Y-115024381D01*
X146434667Y-115024381D01*
X163849667Y-114024381D02*
X163849667Y-114738667D01*
X163802047Y-114881524D01*
X163706809Y-114976762D01*
X163563952Y-115024381D01*
X163468714Y-115024381D01*
X164230619Y-114024381D02*
X164849667Y-114024381D01*
X164516333Y-114405333D01*
X164659191Y-114405333D01*
X164754429Y-114452952D01*
X164802048Y-114500571D01*
X164849667Y-114595810D01*
X164849667Y-114833905D01*
X164802048Y-114929143D01*
X164754429Y-114976762D01*
X164659191Y-115024381D01*
X164373476Y-115024381D01*
X164278238Y-114976762D01*
X164230619Y-114929143D01*
D15*
X128505710Y-87830019D02*
X128481900Y-87877638D01*
X128434281Y-87925257D01*
X128362852Y-87996686D01*
X128339043Y-88044305D01*
X128339043Y-88091924D01*
X128458090Y-88068114D02*
X128434281Y-88115733D01*
X128386662Y-88163352D01*
X128291424Y-88187162D01*
X128124757Y-88187162D01*
X128029519Y-88163352D01*
X127981900Y-88115733D01*
X127958090Y-88068114D01*
X127958090Y-87972876D01*
X127981900Y-87925257D01*
X128029519Y-87877638D01*
X128124757Y-87853829D01*
X128291424Y-87853829D01*
X128386662Y-87877638D01*
X128434281Y-87925257D01*
X128458090Y-87972876D01*
X128458090Y-88068114D01*
X128458090Y-87377638D02*
X128458090Y-87663352D01*
X128458090Y-87520495D02*
X127958090Y-87520495D01*
X128029519Y-87568114D01*
X128077138Y-87615733D01*
X128100948Y-87663352D01*
X146882610Y-87804619D02*
X146858800Y-87852238D01*
X146811181Y-87899857D01*
X146739752Y-87971286D01*
X146715943Y-88018905D01*
X146715943Y-88066524D01*
X146834990Y-88042714D02*
X146811181Y-88090333D01*
X146763562Y-88137952D01*
X146668324Y-88161762D01*
X146501657Y-88161762D01*
X146406419Y-88137952D01*
X146358800Y-88090333D01*
X146334990Y-88042714D01*
X146334990Y-87947476D01*
X146358800Y-87899857D01*
X146406419Y-87852238D01*
X146501657Y-87828429D01*
X146668324Y-87828429D01*
X146763562Y-87852238D01*
X146811181Y-87899857D01*
X146834990Y-87947476D01*
X146834990Y-88042714D01*
X146382610Y-87637952D02*
X146358800Y-87614142D01*
X146334990Y-87566523D01*
X146334990Y-87447476D01*
X146358800Y-87399857D01*
X146382610Y-87376047D01*
X146430229Y-87352238D01*
X146477848Y-87352238D01*
X146549276Y-87376047D01*
X146834990Y-87661761D01*
X146834990Y-87352238D01*
X165157910Y-87855419D02*
X165134100Y-87903038D01*
X165086481Y-87950657D01*
X165015052Y-88022086D01*
X164991243Y-88069705D01*
X164991243Y-88117324D01*
X165110290Y-88093514D02*
X165086481Y-88141133D01*
X165038862Y-88188752D01*
X164943624Y-88212562D01*
X164776957Y-88212562D01*
X164681719Y-88188752D01*
X164634100Y-88141133D01*
X164610290Y-88093514D01*
X164610290Y-87998276D01*
X164634100Y-87950657D01*
X164681719Y-87903038D01*
X164776957Y-87879229D01*
X164943624Y-87879229D01*
X165038862Y-87903038D01*
X165086481Y-87950657D01*
X165110290Y-87998276D01*
X165110290Y-88093514D01*
X164610290Y-87712561D02*
X164610290Y-87403038D01*
X164800767Y-87569704D01*
X164800767Y-87498276D01*
X164824576Y-87450657D01*
X164848386Y-87426847D01*
X164896005Y-87403038D01*
X165015052Y-87403038D01*
X165062671Y-87426847D01*
X165086481Y-87450657D01*
X165110290Y-87498276D01*
X165110290Y-87641133D01*
X165086481Y-87688752D01*
X165062671Y-87712561D01*
X173906667Y-67764790D02*
X173740000Y-67526695D01*
X173620953Y-67764790D02*
X173620953Y-67264790D01*
X173811429Y-67264790D01*
X173859048Y-67288600D01*
X173882857Y-67312410D01*
X173906667Y-67360029D01*
X173906667Y-67431457D01*
X173882857Y-67479076D01*
X173859048Y-67502886D01*
X173811429Y-67526695D01*
X173620953Y-67526695D01*
X174382857Y-67764790D02*
X174097143Y-67764790D01*
X174240000Y-67764790D02*
X174240000Y-67264790D01*
X174192381Y-67336219D01*
X174144762Y-67383838D01*
X174097143Y-67407648D01*
X128897867Y-83373090D02*
X128731200Y-83134995D01*
X128612153Y-83373090D02*
X128612153Y-82873090D01*
X128802629Y-82873090D01*
X128850248Y-82896900D01*
X128874057Y-82920710D01*
X128897867Y-82968329D01*
X128897867Y-83039757D01*
X128874057Y-83087376D01*
X128850248Y-83111186D01*
X128802629Y-83134995D01*
X128612153Y-83134995D01*
X129088343Y-82920710D02*
X129112153Y-82896900D01*
X129159772Y-82873090D01*
X129278819Y-82873090D01*
X129326438Y-82896900D01*
X129350248Y-82920710D01*
X129374057Y-82968329D01*
X129374057Y-83015948D01*
X129350248Y-83087376D01*
X129064534Y-83373090D01*
X129374057Y-83373090D01*
X147439867Y-83550890D02*
X147273200Y-83312795D01*
X147154153Y-83550890D02*
X147154153Y-83050890D01*
X147344629Y-83050890D01*
X147392248Y-83074700D01*
X147416057Y-83098510D01*
X147439867Y-83146129D01*
X147439867Y-83217557D01*
X147416057Y-83265176D01*
X147392248Y-83288986D01*
X147344629Y-83312795D01*
X147154153Y-83312795D01*
X147606534Y-83050890D02*
X147916057Y-83050890D01*
X147749391Y-83241367D01*
X147820819Y-83241367D01*
X147868438Y-83265176D01*
X147892248Y-83288986D01*
X147916057Y-83336605D01*
X147916057Y-83455652D01*
X147892248Y-83503271D01*
X147868438Y-83527081D01*
X147820819Y-83550890D01*
X147677962Y-83550890D01*
X147630343Y-83527081D01*
X147606534Y-83503271D01*
X165905667Y-83385790D02*
X165739000Y-83147695D01*
X165619953Y-83385790D02*
X165619953Y-82885790D01*
X165810429Y-82885790D01*
X165858048Y-82909600D01*
X165881857Y-82933410D01*
X165905667Y-82981029D01*
X165905667Y-83052457D01*
X165881857Y-83100076D01*
X165858048Y-83123886D01*
X165810429Y-83147695D01*
X165619953Y-83147695D01*
X166334238Y-83052457D02*
X166334238Y-83385790D01*
X166215191Y-82861981D02*
X166096143Y-83219124D01*
X166405667Y-83219124D01*
D13*
X136785381Y-100972928D02*
X136309190Y-101306262D01*
X136785381Y-101544357D02*
X135785381Y-101544357D01*
X135785381Y-101163404D01*
X135833000Y-101068166D01*
X135880619Y-101020547D01*
X135975857Y-100972928D01*
X136118714Y-100972928D01*
X136213952Y-101020547D01*
X136261571Y-101068166D01*
X136309190Y-101163404D01*
X136309190Y-101544357D01*
X136785381Y-100068166D02*
X136785381Y-100544357D01*
X135785381Y-100544357D01*
X136785381Y-99211023D02*
X136785381Y-99782452D01*
X136785381Y-99496738D02*
X135785381Y-99496738D01*
X135928238Y-99591976D01*
X136023476Y-99687214D01*
X136071095Y-99782452D01*
X155200381Y-100972928D02*
X154724190Y-101306262D01*
X155200381Y-101544357D02*
X154200381Y-101544357D01*
X154200381Y-101163404D01*
X154248000Y-101068166D01*
X154295619Y-101020547D01*
X154390857Y-100972928D01*
X154533714Y-100972928D01*
X154628952Y-101020547D01*
X154676571Y-101068166D01*
X154724190Y-101163404D01*
X154724190Y-101544357D01*
X155200381Y-100068166D02*
X155200381Y-100544357D01*
X154200381Y-100544357D01*
X154295619Y-99782452D02*
X154248000Y-99734833D01*
X154200381Y-99639595D01*
X154200381Y-99401499D01*
X154248000Y-99306261D01*
X154295619Y-99258642D01*
X154390857Y-99211023D01*
X154486095Y-99211023D01*
X154628952Y-99258642D01*
X155200381Y-99830071D01*
X155200381Y-99211023D01*
M02*
