G04 #@! TF.FileFunction,Soldermask,Top*
%FSLAX46Y46*%
G04 Gerber Fmt 4.6, Leading zero omitted, Abs format (unit mm)*
G04 Created by KiCad (PCBNEW 4.0.6) date 04/22/17 16:30:30*
%MOMM*%
%LPD*%
G01*
G04 APERTURE LIST*
%ADD10C,0.100000*%
%ADD11C,2.700000*%
%ADD12R,2.000000X2.000000*%
%ADD13C,2.000000*%
%ADD14R,1.200000X1.200000*%
%ADD15R,2.900000X2.200000*%
%ADD16R,2.100000X2.100000*%
%ADD17O,2.100000X2.100000*%
%ADD18C,2.800000*%
%ADD19R,2.800000X2.800000*%
%ADD20R,1.300000X1.200000*%
%ADD21R,0.900000X1.300000*%
%ADD22C,3.600000*%
G04 APERTURE END LIST*
D10*
D11*
X167513000Y-94551500D03*
X173513000Y-109301500D03*
X167513000Y-106751500D03*
X179513000Y-106751500D03*
X179513000Y-94551500D03*
D12*
X173926500Y-74549000D03*
D13*
X171426500Y-74549000D03*
D14*
X171043500Y-68580000D03*
X169443500Y-68580000D03*
D15*
X138398000Y-86931500D03*
X134398000Y-86931500D03*
X156940000Y-86804500D03*
X152940000Y-86804500D03*
X175323000Y-86423500D03*
X171323000Y-86423500D03*
D16*
X182626000Y-74612500D03*
D17*
X182626000Y-77152500D03*
X182626000Y-79692500D03*
X182626000Y-82232500D03*
X182626000Y-84772500D03*
D18*
X147518000Y-118872000D03*
D19*
X144018000Y-118872000D03*
D18*
X165933000Y-118872000D03*
D19*
X162433000Y-118872000D03*
D20*
X129064000Y-85854500D03*
X129064000Y-87754500D03*
X131064000Y-86804500D03*
X147526500Y-85854500D03*
X147526500Y-87754500D03*
X149526500Y-86804500D03*
X165941500Y-85854500D03*
X165941500Y-87754500D03*
X167941500Y-86804500D03*
D21*
X173978000Y-68580000D03*
X172478000Y-68580000D03*
X129032000Y-84201000D03*
X130532000Y-84201000D03*
X147522500Y-84201000D03*
X149022500Y-84201000D03*
X165937500Y-84201000D03*
X167437500Y-84201000D03*
D11*
X130683000Y-94551500D03*
X136683000Y-109301500D03*
X130683000Y-106751500D03*
X142683000Y-106751500D03*
X142683000Y-94551500D03*
X149098000Y-94551500D03*
X155098000Y-109301500D03*
X149098000Y-106751500D03*
X161098000Y-106751500D03*
X161098000Y-94551500D03*
D22*
X128976000Y-119492000D03*
X181976000Y-119492000D03*
X181976000Y-66492000D03*
X128976000Y-66492000D03*
M02*
