G04 #@! TF.FileFunction,Copper,L2,Bot,Signal*
%FSLAX46Y46*%
G04 Gerber Fmt 4.6, Leading zero omitted, Abs format (unit mm)*
G04 Created by KiCad (PCBNEW 4.0.6) date 04/22/17 16:30:30*
%MOMM*%
%LPD*%
G01*
G04 APERTURE LIST*
%ADD10C,0.100000*%
%ADD11C,2.300000*%
%ADD12R,1.600000X1.600000*%
%ADD13C,1.600000*%
%ADD14R,1.700000X1.700000*%
%ADD15O,1.700000X1.700000*%
%ADD16C,2.400000*%
%ADD17R,2.400000X2.400000*%
%ADD18C,1.500000*%
%ADD19C,0.250000*%
%ADD20C,0.254000*%
G04 APERTURE END LIST*
D10*
D11*
X167513000Y-94551500D03*
X173513000Y-109301500D03*
X167513000Y-106751500D03*
X179513000Y-106751500D03*
X179513000Y-94551500D03*
D12*
X173926500Y-74549000D03*
D13*
X171426500Y-74549000D03*
D14*
X182626000Y-74612500D03*
D15*
X182626000Y-77152500D03*
X182626000Y-79692500D03*
X182626000Y-82232500D03*
X182626000Y-84772500D03*
D16*
X147518000Y-118872000D03*
D17*
X144018000Y-118872000D03*
D16*
X165933000Y-118872000D03*
D17*
X162433000Y-118872000D03*
D11*
X130683000Y-94551500D03*
X136683000Y-109301500D03*
X130683000Y-106751500D03*
X142683000Y-106751500D03*
X142683000Y-94551500D03*
X149098000Y-94551500D03*
X155098000Y-109301500D03*
X149098000Y-106751500D03*
X161098000Y-106751500D03*
X161098000Y-94551500D03*
D18*
X173926500Y-74549000D02*
X173926500Y-75599000D01*
X173926500Y-75599000D02*
X179501800Y-81174300D01*
X179501800Y-81174300D02*
X179501800Y-94540300D01*
D19*
X179501800Y-94540300D02*
X179513000Y-94551500D01*
D18*
X176655500Y-97409000D02*
X161099500Y-97409000D01*
X161099500Y-97409000D02*
X145540500Y-97409000D01*
X161098000Y-94551500D02*
X161098000Y-96177845D01*
X161098000Y-96177845D02*
X161099500Y-96179345D01*
X161099500Y-96179345D02*
X161099500Y-97409000D01*
X145540500Y-97409000D02*
X142683000Y-94551500D01*
X179513000Y-94551500D02*
X176655500Y-97409000D01*
D20*
G36*
X185020000Y-122536000D02*
X125932000Y-122536000D01*
X125932000Y-119884316D01*
X126994657Y-119884316D01*
X127295611Y-120612680D01*
X127852389Y-121170431D01*
X128580226Y-121472655D01*
X129368316Y-121473343D01*
X130096680Y-121172389D01*
X130654431Y-120615611D01*
X130956655Y-119887774D01*
X130957343Y-119099684D01*
X130656389Y-118371320D01*
X130099611Y-117813569D01*
X129758675Y-117672000D01*
X142429536Y-117672000D01*
X142429536Y-120072000D01*
X142456103Y-120213190D01*
X142539546Y-120342865D01*
X142666866Y-120429859D01*
X142818000Y-120460464D01*
X145218000Y-120460464D01*
X145359190Y-120433897D01*
X145488865Y-120350454D01*
X145575859Y-120223134D01*
X145606464Y-120072000D01*
X145606464Y-119185101D01*
X145936726Y-119185101D01*
X146176912Y-119766395D01*
X146621266Y-120211525D01*
X147202140Y-120452725D01*
X147831101Y-120453274D01*
X148412395Y-120213088D01*
X148857525Y-119768734D01*
X149098725Y-119187860D01*
X149098751Y-119157750D01*
X160598000Y-119157750D01*
X160598000Y-120198310D01*
X160694673Y-120431699D01*
X160873302Y-120610327D01*
X161106691Y-120707000D01*
X162147250Y-120707000D01*
X162306000Y-120548250D01*
X162306000Y-118999000D01*
X162560000Y-118999000D01*
X162560000Y-120548250D01*
X162718750Y-120707000D01*
X163759309Y-120707000D01*
X163992698Y-120610327D01*
X164171327Y-120431699D01*
X164268000Y-120198310D01*
X164268000Y-119185101D01*
X164351726Y-119185101D01*
X164591912Y-119766395D01*
X165036266Y-120211525D01*
X165617140Y-120452725D01*
X166246101Y-120453274D01*
X166827395Y-120213088D01*
X167156741Y-119884316D01*
X179994657Y-119884316D01*
X180295611Y-120612680D01*
X180852389Y-121170431D01*
X181580226Y-121472655D01*
X182368316Y-121473343D01*
X183096680Y-121172389D01*
X183654431Y-120615611D01*
X183956655Y-119887774D01*
X183957343Y-119099684D01*
X183656389Y-118371320D01*
X183099611Y-117813569D01*
X182371774Y-117511345D01*
X181583684Y-117510657D01*
X180855320Y-117811611D01*
X180297569Y-118368389D01*
X179995345Y-119096226D01*
X179994657Y-119884316D01*
X167156741Y-119884316D01*
X167272525Y-119768734D01*
X167513725Y-119187860D01*
X167514274Y-118558899D01*
X167274088Y-117977605D01*
X166829734Y-117532475D01*
X166248860Y-117291275D01*
X165619899Y-117290726D01*
X165038605Y-117530912D01*
X164593475Y-117975266D01*
X164352275Y-118556140D01*
X164351726Y-119185101D01*
X164268000Y-119185101D01*
X164268000Y-119157750D01*
X164109250Y-118999000D01*
X162560000Y-118999000D01*
X162306000Y-118999000D01*
X160756750Y-118999000D01*
X160598000Y-119157750D01*
X149098751Y-119157750D01*
X149099274Y-118558899D01*
X148859088Y-117977605D01*
X148427926Y-117545690D01*
X160598000Y-117545690D01*
X160598000Y-118586250D01*
X160756750Y-118745000D01*
X162306000Y-118745000D01*
X162306000Y-117195750D01*
X162560000Y-117195750D01*
X162560000Y-118745000D01*
X164109250Y-118745000D01*
X164268000Y-118586250D01*
X164268000Y-117545690D01*
X164171327Y-117312301D01*
X163992698Y-117133673D01*
X163759309Y-117037000D01*
X162718750Y-117037000D01*
X162560000Y-117195750D01*
X162306000Y-117195750D01*
X162147250Y-117037000D01*
X161106691Y-117037000D01*
X160873302Y-117133673D01*
X160694673Y-117312301D01*
X160598000Y-117545690D01*
X148427926Y-117545690D01*
X148414734Y-117532475D01*
X147833860Y-117291275D01*
X147204899Y-117290726D01*
X146623605Y-117530912D01*
X146178475Y-117975266D01*
X145937275Y-118556140D01*
X145936726Y-119185101D01*
X145606464Y-119185101D01*
X145606464Y-117672000D01*
X145579897Y-117530810D01*
X145496454Y-117401135D01*
X145369134Y-117314141D01*
X145218000Y-117283536D01*
X142818000Y-117283536D01*
X142676810Y-117310103D01*
X142547135Y-117393546D01*
X142460141Y-117520866D01*
X142429536Y-117672000D01*
X129758675Y-117672000D01*
X129371774Y-117511345D01*
X128583684Y-117510657D01*
X127855320Y-117811611D01*
X127297569Y-118368389D01*
X126995345Y-119096226D01*
X126994657Y-119884316D01*
X125932000Y-119884316D01*
X125932000Y-109604699D01*
X135151735Y-109604699D01*
X135384325Y-110167609D01*
X135814626Y-110598662D01*
X136377129Y-110832234D01*
X136986199Y-110832765D01*
X137549109Y-110600175D01*
X137980162Y-110169874D01*
X138213734Y-109607371D01*
X138213736Y-109604699D01*
X153566735Y-109604699D01*
X153799325Y-110167609D01*
X154229626Y-110598662D01*
X154792129Y-110832234D01*
X155401199Y-110832765D01*
X155964109Y-110600175D01*
X156395162Y-110169874D01*
X156628734Y-109607371D01*
X156628736Y-109604699D01*
X171981735Y-109604699D01*
X172214325Y-110167609D01*
X172644626Y-110598662D01*
X173207129Y-110832234D01*
X173816199Y-110832765D01*
X174379109Y-110600175D01*
X174810162Y-110169874D01*
X175043734Y-109607371D01*
X175044265Y-108998301D01*
X174811675Y-108435391D01*
X174381374Y-108004338D01*
X173818871Y-107770766D01*
X173209801Y-107770235D01*
X172646891Y-108002825D01*
X172215838Y-108433126D01*
X171982266Y-108995629D01*
X171981735Y-109604699D01*
X156628736Y-109604699D01*
X156629265Y-108998301D01*
X156396675Y-108435391D01*
X155966374Y-108004338D01*
X155403871Y-107770766D01*
X154794801Y-107770235D01*
X154231891Y-108002825D01*
X153800838Y-108433126D01*
X153567266Y-108995629D01*
X153566735Y-109604699D01*
X138213736Y-109604699D01*
X138214265Y-108998301D01*
X137981675Y-108435391D01*
X137551374Y-108004338D01*
X136988871Y-107770766D01*
X136379801Y-107770235D01*
X135816891Y-108002825D01*
X135385838Y-108433126D01*
X135152266Y-108995629D01*
X135151735Y-109604699D01*
X125932000Y-109604699D01*
X125932000Y-107054699D01*
X129151735Y-107054699D01*
X129384325Y-107617609D01*
X129814626Y-108048662D01*
X130377129Y-108282234D01*
X130986199Y-108282765D01*
X131549109Y-108050175D01*
X131980162Y-107619874D01*
X132213734Y-107057371D01*
X132213736Y-107054699D01*
X141151735Y-107054699D01*
X141384325Y-107617609D01*
X141814626Y-108048662D01*
X142377129Y-108282234D01*
X142986199Y-108282765D01*
X143549109Y-108050175D01*
X143980162Y-107619874D01*
X144213734Y-107057371D01*
X144213736Y-107054699D01*
X147566735Y-107054699D01*
X147799325Y-107617609D01*
X148229626Y-108048662D01*
X148792129Y-108282234D01*
X149401199Y-108282765D01*
X149964109Y-108050175D01*
X150395162Y-107619874D01*
X150628734Y-107057371D01*
X150628736Y-107054699D01*
X159566735Y-107054699D01*
X159799325Y-107617609D01*
X160229626Y-108048662D01*
X160792129Y-108282234D01*
X161401199Y-108282765D01*
X161964109Y-108050175D01*
X162395162Y-107619874D01*
X162628734Y-107057371D01*
X162628736Y-107054699D01*
X165981735Y-107054699D01*
X166214325Y-107617609D01*
X166644626Y-108048662D01*
X167207129Y-108282234D01*
X167816199Y-108282765D01*
X168379109Y-108050175D01*
X168810162Y-107619874D01*
X169043734Y-107057371D01*
X169043736Y-107054699D01*
X177981735Y-107054699D01*
X178214325Y-107617609D01*
X178644626Y-108048662D01*
X179207129Y-108282234D01*
X179816199Y-108282765D01*
X180379109Y-108050175D01*
X180810162Y-107619874D01*
X181043734Y-107057371D01*
X181044265Y-106448301D01*
X180811675Y-105885391D01*
X180381374Y-105454338D01*
X179818871Y-105220766D01*
X179209801Y-105220235D01*
X178646891Y-105452825D01*
X178215838Y-105883126D01*
X177982266Y-106445629D01*
X177981735Y-107054699D01*
X169043736Y-107054699D01*
X169044265Y-106448301D01*
X168811675Y-105885391D01*
X168381374Y-105454338D01*
X167818871Y-105220766D01*
X167209801Y-105220235D01*
X166646891Y-105452825D01*
X166215838Y-105883126D01*
X165982266Y-106445629D01*
X165981735Y-107054699D01*
X162628736Y-107054699D01*
X162629265Y-106448301D01*
X162396675Y-105885391D01*
X161966374Y-105454338D01*
X161403871Y-105220766D01*
X160794801Y-105220235D01*
X160231891Y-105452825D01*
X159800838Y-105883126D01*
X159567266Y-106445629D01*
X159566735Y-107054699D01*
X150628736Y-107054699D01*
X150629265Y-106448301D01*
X150396675Y-105885391D01*
X149966374Y-105454338D01*
X149403871Y-105220766D01*
X148794801Y-105220235D01*
X148231891Y-105452825D01*
X147800838Y-105883126D01*
X147567266Y-106445629D01*
X147566735Y-107054699D01*
X144213736Y-107054699D01*
X144214265Y-106448301D01*
X143981675Y-105885391D01*
X143551374Y-105454338D01*
X142988871Y-105220766D01*
X142379801Y-105220235D01*
X141816891Y-105452825D01*
X141385838Y-105883126D01*
X141152266Y-106445629D01*
X141151735Y-107054699D01*
X132213736Y-107054699D01*
X132214265Y-106448301D01*
X131981675Y-105885391D01*
X131551374Y-105454338D01*
X130988871Y-105220766D01*
X130379801Y-105220235D01*
X129816891Y-105452825D01*
X129385838Y-105883126D01*
X129152266Y-106445629D01*
X129151735Y-107054699D01*
X125932000Y-107054699D01*
X125932000Y-94854699D01*
X141151735Y-94854699D01*
X141384325Y-95417609D01*
X141814626Y-95848662D01*
X142377129Y-96082234D01*
X142614465Y-96082441D01*
X144740762Y-98208738D01*
X145107685Y-98453908D01*
X145540500Y-98540000D01*
X176655500Y-98540000D01*
X177088315Y-98453908D01*
X177455238Y-98208738D01*
X179581416Y-96082560D01*
X179816199Y-96082765D01*
X180379109Y-95850175D01*
X180810162Y-95419874D01*
X181043734Y-94857371D01*
X181044265Y-94248301D01*
X180811675Y-93685391D01*
X180632800Y-93506203D01*
X180632800Y-85129390D01*
X181184524Y-85129390D01*
X181354355Y-85539424D01*
X181744642Y-85967683D01*
X182269108Y-86213986D01*
X182499000Y-86093319D01*
X182499000Y-84899500D01*
X182753000Y-84899500D01*
X182753000Y-86093319D01*
X182982892Y-86213986D01*
X183507358Y-85967683D01*
X183897645Y-85539424D01*
X184067476Y-85129390D01*
X183946155Y-84899500D01*
X182753000Y-84899500D01*
X182499000Y-84899500D01*
X181305845Y-84899500D01*
X181184524Y-85129390D01*
X180632800Y-85129390D01*
X180632800Y-84415610D01*
X181184524Y-84415610D01*
X181305845Y-84645500D01*
X182499000Y-84645500D01*
X182499000Y-84625500D01*
X182753000Y-84625500D01*
X182753000Y-84645500D01*
X183946155Y-84645500D01*
X184067476Y-84415610D01*
X183897645Y-84005576D01*
X183507358Y-83577317D01*
X183082053Y-83377583D01*
X183121200Y-83369796D01*
X183520565Y-83102948D01*
X183787413Y-82703583D01*
X183881117Y-82232500D01*
X183787413Y-81761417D01*
X183520565Y-81362052D01*
X183121200Y-81095204D01*
X182650117Y-81001500D01*
X182601883Y-81001500D01*
X182130800Y-81095204D01*
X181731435Y-81362052D01*
X181464587Y-81761417D01*
X181370883Y-82232500D01*
X181464587Y-82703583D01*
X181731435Y-83102948D01*
X182130800Y-83369796D01*
X182169947Y-83377583D01*
X181744642Y-83577317D01*
X181354355Y-84005576D01*
X181184524Y-84415610D01*
X180632800Y-84415610D01*
X180632800Y-81174300D01*
X180546708Y-80741485D01*
X180301538Y-80374562D01*
X179619476Y-79692500D01*
X181370883Y-79692500D01*
X181464587Y-80163583D01*
X181731435Y-80562948D01*
X182130800Y-80829796D01*
X182601883Y-80923500D01*
X182650117Y-80923500D01*
X183121200Y-80829796D01*
X183520565Y-80562948D01*
X183787413Y-80163583D01*
X183881117Y-79692500D01*
X183787413Y-79221417D01*
X183520565Y-78822052D01*
X183121200Y-78555204D01*
X182650117Y-78461500D01*
X182601883Y-78461500D01*
X182130800Y-78555204D01*
X181731435Y-78822052D01*
X181464587Y-79221417D01*
X181370883Y-79692500D01*
X179619476Y-79692500D01*
X177079476Y-77152500D01*
X181370883Y-77152500D01*
X181464587Y-77623583D01*
X181731435Y-78022948D01*
X182130800Y-78289796D01*
X182601883Y-78383500D01*
X182650117Y-78383500D01*
X183121200Y-78289796D01*
X183520565Y-78022948D01*
X183787413Y-77623583D01*
X183881117Y-77152500D01*
X183787413Y-76681417D01*
X183520565Y-76282052D01*
X183121200Y-76015204D01*
X182650117Y-75921500D01*
X182601883Y-75921500D01*
X182130800Y-76015204D01*
X181731435Y-76282052D01*
X181464587Y-76681417D01*
X181370883Y-77152500D01*
X177079476Y-77152500D01*
X175114964Y-75187988D01*
X175114964Y-73762500D01*
X181387536Y-73762500D01*
X181387536Y-75462500D01*
X181414103Y-75603690D01*
X181497546Y-75733365D01*
X181624866Y-75820359D01*
X181776000Y-75850964D01*
X183476000Y-75850964D01*
X183617190Y-75824397D01*
X183746865Y-75740954D01*
X183833859Y-75613634D01*
X183864464Y-75462500D01*
X183864464Y-73762500D01*
X183837897Y-73621310D01*
X183754454Y-73491635D01*
X183627134Y-73404641D01*
X183476000Y-73374036D01*
X181776000Y-73374036D01*
X181634810Y-73400603D01*
X181505135Y-73484046D01*
X181418141Y-73611366D01*
X181387536Y-73762500D01*
X175114964Y-73762500D01*
X175114964Y-73749000D01*
X175088397Y-73607810D01*
X175004954Y-73478135D01*
X174877634Y-73391141D01*
X174726500Y-73360536D01*
X173126500Y-73360536D01*
X172985310Y-73387103D01*
X172855635Y-73470546D01*
X172768641Y-73597866D01*
X172738036Y-73749000D01*
X172738036Y-73934227D01*
X172680364Y-73794995D01*
X172434245Y-73720861D01*
X171606105Y-74549000D01*
X172434245Y-75377139D01*
X172680364Y-75303005D01*
X172738036Y-75142555D01*
X172738036Y-75349000D01*
X172764603Y-75490190D01*
X172795500Y-75538206D01*
X172795500Y-75599000D01*
X172881592Y-76031815D01*
X173126762Y-76398738D01*
X178370800Y-81642776D01*
X178370800Y-93528434D01*
X178215838Y-93683126D01*
X177982266Y-94245629D01*
X177982059Y-94482965D01*
X176187024Y-96278000D01*
X162230500Y-96278000D01*
X162230500Y-96179345D01*
X162229000Y-96171804D01*
X162229000Y-95585746D01*
X162395162Y-95419874D01*
X162628734Y-94857371D01*
X162629265Y-94248301D01*
X162396675Y-93685391D01*
X161966374Y-93254338D01*
X161403871Y-93020766D01*
X160794801Y-93020235D01*
X160231891Y-93252825D01*
X159800838Y-93683126D01*
X159567266Y-94245629D01*
X159566735Y-94854699D01*
X159799325Y-95417609D01*
X159967000Y-95585577D01*
X159967000Y-96177845D01*
X159968500Y-96185386D01*
X159968500Y-96278000D01*
X146008976Y-96278000D01*
X144214060Y-94483084D01*
X144214265Y-94248301D01*
X143981675Y-93685391D01*
X143551374Y-93254338D01*
X142988871Y-93020766D01*
X142379801Y-93020235D01*
X141816891Y-93252825D01*
X141385838Y-93683126D01*
X141152266Y-94245629D01*
X141151735Y-94854699D01*
X125932000Y-94854699D01*
X125932000Y-75556745D01*
X170598361Y-75556745D01*
X170672495Y-75802864D01*
X171209723Y-75995965D01*
X171779954Y-75968778D01*
X172180505Y-75802864D01*
X172254639Y-75556745D01*
X171426500Y-74728605D01*
X170598361Y-75556745D01*
X125932000Y-75556745D01*
X125932000Y-74332223D01*
X169979535Y-74332223D01*
X170006722Y-74902454D01*
X170172636Y-75303005D01*
X170418755Y-75377139D01*
X171246895Y-74549000D01*
X170418755Y-73720861D01*
X170172636Y-73794995D01*
X169979535Y-74332223D01*
X125932000Y-74332223D01*
X125932000Y-73541255D01*
X170598361Y-73541255D01*
X171426500Y-74369395D01*
X172254639Y-73541255D01*
X172180505Y-73295136D01*
X171643277Y-73102035D01*
X171073046Y-73129222D01*
X170672495Y-73295136D01*
X170598361Y-73541255D01*
X125932000Y-73541255D01*
X125932000Y-66884316D01*
X126994657Y-66884316D01*
X127295611Y-67612680D01*
X127852389Y-68170431D01*
X128580226Y-68472655D01*
X129368316Y-68473343D01*
X130096680Y-68172389D01*
X130654431Y-67615611D01*
X130956655Y-66887774D01*
X130956658Y-66884316D01*
X179994657Y-66884316D01*
X180295611Y-67612680D01*
X180852389Y-68170431D01*
X181580226Y-68472655D01*
X182368316Y-68473343D01*
X183096680Y-68172389D01*
X183654431Y-67615611D01*
X183956655Y-66887774D01*
X183957343Y-66099684D01*
X183656389Y-65371320D01*
X183099611Y-64813569D01*
X182371774Y-64511345D01*
X181583684Y-64510657D01*
X180855320Y-64811611D01*
X180297569Y-65368389D01*
X179995345Y-66096226D01*
X179994657Y-66884316D01*
X130956658Y-66884316D01*
X130957343Y-66099684D01*
X130656389Y-65371320D01*
X130099611Y-64813569D01*
X129371774Y-64511345D01*
X128583684Y-64510657D01*
X127855320Y-64811611D01*
X127297569Y-65368389D01*
X126995345Y-66096226D01*
X126994657Y-66884316D01*
X125932000Y-66884316D01*
X125932000Y-63448000D01*
X185020000Y-63448000D01*
X185020000Y-122536000D01*
X185020000Y-122536000D01*
G37*
X185020000Y-122536000D02*
X125932000Y-122536000D01*
X125932000Y-119884316D01*
X126994657Y-119884316D01*
X127295611Y-120612680D01*
X127852389Y-121170431D01*
X128580226Y-121472655D01*
X129368316Y-121473343D01*
X130096680Y-121172389D01*
X130654431Y-120615611D01*
X130956655Y-119887774D01*
X130957343Y-119099684D01*
X130656389Y-118371320D01*
X130099611Y-117813569D01*
X129758675Y-117672000D01*
X142429536Y-117672000D01*
X142429536Y-120072000D01*
X142456103Y-120213190D01*
X142539546Y-120342865D01*
X142666866Y-120429859D01*
X142818000Y-120460464D01*
X145218000Y-120460464D01*
X145359190Y-120433897D01*
X145488865Y-120350454D01*
X145575859Y-120223134D01*
X145606464Y-120072000D01*
X145606464Y-119185101D01*
X145936726Y-119185101D01*
X146176912Y-119766395D01*
X146621266Y-120211525D01*
X147202140Y-120452725D01*
X147831101Y-120453274D01*
X148412395Y-120213088D01*
X148857525Y-119768734D01*
X149098725Y-119187860D01*
X149098751Y-119157750D01*
X160598000Y-119157750D01*
X160598000Y-120198310D01*
X160694673Y-120431699D01*
X160873302Y-120610327D01*
X161106691Y-120707000D01*
X162147250Y-120707000D01*
X162306000Y-120548250D01*
X162306000Y-118999000D01*
X162560000Y-118999000D01*
X162560000Y-120548250D01*
X162718750Y-120707000D01*
X163759309Y-120707000D01*
X163992698Y-120610327D01*
X164171327Y-120431699D01*
X164268000Y-120198310D01*
X164268000Y-119185101D01*
X164351726Y-119185101D01*
X164591912Y-119766395D01*
X165036266Y-120211525D01*
X165617140Y-120452725D01*
X166246101Y-120453274D01*
X166827395Y-120213088D01*
X167156741Y-119884316D01*
X179994657Y-119884316D01*
X180295611Y-120612680D01*
X180852389Y-121170431D01*
X181580226Y-121472655D01*
X182368316Y-121473343D01*
X183096680Y-121172389D01*
X183654431Y-120615611D01*
X183956655Y-119887774D01*
X183957343Y-119099684D01*
X183656389Y-118371320D01*
X183099611Y-117813569D01*
X182371774Y-117511345D01*
X181583684Y-117510657D01*
X180855320Y-117811611D01*
X180297569Y-118368389D01*
X179995345Y-119096226D01*
X179994657Y-119884316D01*
X167156741Y-119884316D01*
X167272525Y-119768734D01*
X167513725Y-119187860D01*
X167514274Y-118558899D01*
X167274088Y-117977605D01*
X166829734Y-117532475D01*
X166248860Y-117291275D01*
X165619899Y-117290726D01*
X165038605Y-117530912D01*
X164593475Y-117975266D01*
X164352275Y-118556140D01*
X164351726Y-119185101D01*
X164268000Y-119185101D01*
X164268000Y-119157750D01*
X164109250Y-118999000D01*
X162560000Y-118999000D01*
X162306000Y-118999000D01*
X160756750Y-118999000D01*
X160598000Y-119157750D01*
X149098751Y-119157750D01*
X149099274Y-118558899D01*
X148859088Y-117977605D01*
X148427926Y-117545690D01*
X160598000Y-117545690D01*
X160598000Y-118586250D01*
X160756750Y-118745000D01*
X162306000Y-118745000D01*
X162306000Y-117195750D01*
X162560000Y-117195750D01*
X162560000Y-118745000D01*
X164109250Y-118745000D01*
X164268000Y-118586250D01*
X164268000Y-117545690D01*
X164171327Y-117312301D01*
X163992698Y-117133673D01*
X163759309Y-117037000D01*
X162718750Y-117037000D01*
X162560000Y-117195750D01*
X162306000Y-117195750D01*
X162147250Y-117037000D01*
X161106691Y-117037000D01*
X160873302Y-117133673D01*
X160694673Y-117312301D01*
X160598000Y-117545690D01*
X148427926Y-117545690D01*
X148414734Y-117532475D01*
X147833860Y-117291275D01*
X147204899Y-117290726D01*
X146623605Y-117530912D01*
X146178475Y-117975266D01*
X145937275Y-118556140D01*
X145936726Y-119185101D01*
X145606464Y-119185101D01*
X145606464Y-117672000D01*
X145579897Y-117530810D01*
X145496454Y-117401135D01*
X145369134Y-117314141D01*
X145218000Y-117283536D01*
X142818000Y-117283536D01*
X142676810Y-117310103D01*
X142547135Y-117393546D01*
X142460141Y-117520866D01*
X142429536Y-117672000D01*
X129758675Y-117672000D01*
X129371774Y-117511345D01*
X128583684Y-117510657D01*
X127855320Y-117811611D01*
X127297569Y-118368389D01*
X126995345Y-119096226D01*
X126994657Y-119884316D01*
X125932000Y-119884316D01*
X125932000Y-109604699D01*
X135151735Y-109604699D01*
X135384325Y-110167609D01*
X135814626Y-110598662D01*
X136377129Y-110832234D01*
X136986199Y-110832765D01*
X137549109Y-110600175D01*
X137980162Y-110169874D01*
X138213734Y-109607371D01*
X138213736Y-109604699D01*
X153566735Y-109604699D01*
X153799325Y-110167609D01*
X154229626Y-110598662D01*
X154792129Y-110832234D01*
X155401199Y-110832765D01*
X155964109Y-110600175D01*
X156395162Y-110169874D01*
X156628734Y-109607371D01*
X156628736Y-109604699D01*
X171981735Y-109604699D01*
X172214325Y-110167609D01*
X172644626Y-110598662D01*
X173207129Y-110832234D01*
X173816199Y-110832765D01*
X174379109Y-110600175D01*
X174810162Y-110169874D01*
X175043734Y-109607371D01*
X175044265Y-108998301D01*
X174811675Y-108435391D01*
X174381374Y-108004338D01*
X173818871Y-107770766D01*
X173209801Y-107770235D01*
X172646891Y-108002825D01*
X172215838Y-108433126D01*
X171982266Y-108995629D01*
X171981735Y-109604699D01*
X156628736Y-109604699D01*
X156629265Y-108998301D01*
X156396675Y-108435391D01*
X155966374Y-108004338D01*
X155403871Y-107770766D01*
X154794801Y-107770235D01*
X154231891Y-108002825D01*
X153800838Y-108433126D01*
X153567266Y-108995629D01*
X153566735Y-109604699D01*
X138213736Y-109604699D01*
X138214265Y-108998301D01*
X137981675Y-108435391D01*
X137551374Y-108004338D01*
X136988871Y-107770766D01*
X136379801Y-107770235D01*
X135816891Y-108002825D01*
X135385838Y-108433126D01*
X135152266Y-108995629D01*
X135151735Y-109604699D01*
X125932000Y-109604699D01*
X125932000Y-107054699D01*
X129151735Y-107054699D01*
X129384325Y-107617609D01*
X129814626Y-108048662D01*
X130377129Y-108282234D01*
X130986199Y-108282765D01*
X131549109Y-108050175D01*
X131980162Y-107619874D01*
X132213734Y-107057371D01*
X132213736Y-107054699D01*
X141151735Y-107054699D01*
X141384325Y-107617609D01*
X141814626Y-108048662D01*
X142377129Y-108282234D01*
X142986199Y-108282765D01*
X143549109Y-108050175D01*
X143980162Y-107619874D01*
X144213734Y-107057371D01*
X144213736Y-107054699D01*
X147566735Y-107054699D01*
X147799325Y-107617609D01*
X148229626Y-108048662D01*
X148792129Y-108282234D01*
X149401199Y-108282765D01*
X149964109Y-108050175D01*
X150395162Y-107619874D01*
X150628734Y-107057371D01*
X150628736Y-107054699D01*
X159566735Y-107054699D01*
X159799325Y-107617609D01*
X160229626Y-108048662D01*
X160792129Y-108282234D01*
X161401199Y-108282765D01*
X161964109Y-108050175D01*
X162395162Y-107619874D01*
X162628734Y-107057371D01*
X162628736Y-107054699D01*
X165981735Y-107054699D01*
X166214325Y-107617609D01*
X166644626Y-108048662D01*
X167207129Y-108282234D01*
X167816199Y-108282765D01*
X168379109Y-108050175D01*
X168810162Y-107619874D01*
X169043734Y-107057371D01*
X169043736Y-107054699D01*
X177981735Y-107054699D01*
X178214325Y-107617609D01*
X178644626Y-108048662D01*
X179207129Y-108282234D01*
X179816199Y-108282765D01*
X180379109Y-108050175D01*
X180810162Y-107619874D01*
X181043734Y-107057371D01*
X181044265Y-106448301D01*
X180811675Y-105885391D01*
X180381374Y-105454338D01*
X179818871Y-105220766D01*
X179209801Y-105220235D01*
X178646891Y-105452825D01*
X178215838Y-105883126D01*
X177982266Y-106445629D01*
X177981735Y-107054699D01*
X169043736Y-107054699D01*
X169044265Y-106448301D01*
X168811675Y-105885391D01*
X168381374Y-105454338D01*
X167818871Y-105220766D01*
X167209801Y-105220235D01*
X166646891Y-105452825D01*
X166215838Y-105883126D01*
X165982266Y-106445629D01*
X165981735Y-107054699D01*
X162628736Y-107054699D01*
X162629265Y-106448301D01*
X162396675Y-105885391D01*
X161966374Y-105454338D01*
X161403871Y-105220766D01*
X160794801Y-105220235D01*
X160231891Y-105452825D01*
X159800838Y-105883126D01*
X159567266Y-106445629D01*
X159566735Y-107054699D01*
X150628736Y-107054699D01*
X150629265Y-106448301D01*
X150396675Y-105885391D01*
X149966374Y-105454338D01*
X149403871Y-105220766D01*
X148794801Y-105220235D01*
X148231891Y-105452825D01*
X147800838Y-105883126D01*
X147567266Y-106445629D01*
X147566735Y-107054699D01*
X144213736Y-107054699D01*
X144214265Y-106448301D01*
X143981675Y-105885391D01*
X143551374Y-105454338D01*
X142988871Y-105220766D01*
X142379801Y-105220235D01*
X141816891Y-105452825D01*
X141385838Y-105883126D01*
X141152266Y-106445629D01*
X141151735Y-107054699D01*
X132213736Y-107054699D01*
X132214265Y-106448301D01*
X131981675Y-105885391D01*
X131551374Y-105454338D01*
X130988871Y-105220766D01*
X130379801Y-105220235D01*
X129816891Y-105452825D01*
X129385838Y-105883126D01*
X129152266Y-106445629D01*
X129151735Y-107054699D01*
X125932000Y-107054699D01*
X125932000Y-94854699D01*
X141151735Y-94854699D01*
X141384325Y-95417609D01*
X141814626Y-95848662D01*
X142377129Y-96082234D01*
X142614465Y-96082441D01*
X144740762Y-98208738D01*
X145107685Y-98453908D01*
X145540500Y-98540000D01*
X176655500Y-98540000D01*
X177088315Y-98453908D01*
X177455238Y-98208738D01*
X179581416Y-96082560D01*
X179816199Y-96082765D01*
X180379109Y-95850175D01*
X180810162Y-95419874D01*
X181043734Y-94857371D01*
X181044265Y-94248301D01*
X180811675Y-93685391D01*
X180632800Y-93506203D01*
X180632800Y-85129390D01*
X181184524Y-85129390D01*
X181354355Y-85539424D01*
X181744642Y-85967683D01*
X182269108Y-86213986D01*
X182499000Y-86093319D01*
X182499000Y-84899500D01*
X182753000Y-84899500D01*
X182753000Y-86093319D01*
X182982892Y-86213986D01*
X183507358Y-85967683D01*
X183897645Y-85539424D01*
X184067476Y-85129390D01*
X183946155Y-84899500D01*
X182753000Y-84899500D01*
X182499000Y-84899500D01*
X181305845Y-84899500D01*
X181184524Y-85129390D01*
X180632800Y-85129390D01*
X180632800Y-84415610D01*
X181184524Y-84415610D01*
X181305845Y-84645500D01*
X182499000Y-84645500D01*
X182499000Y-84625500D01*
X182753000Y-84625500D01*
X182753000Y-84645500D01*
X183946155Y-84645500D01*
X184067476Y-84415610D01*
X183897645Y-84005576D01*
X183507358Y-83577317D01*
X183082053Y-83377583D01*
X183121200Y-83369796D01*
X183520565Y-83102948D01*
X183787413Y-82703583D01*
X183881117Y-82232500D01*
X183787413Y-81761417D01*
X183520565Y-81362052D01*
X183121200Y-81095204D01*
X182650117Y-81001500D01*
X182601883Y-81001500D01*
X182130800Y-81095204D01*
X181731435Y-81362052D01*
X181464587Y-81761417D01*
X181370883Y-82232500D01*
X181464587Y-82703583D01*
X181731435Y-83102948D01*
X182130800Y-83369796D01*
X182169947Y-83377583D01*
X181744642Y-83577317D01*
X181354355Y-84005576D01*
X181184524Y-84415610D01*
X180632800Y-84415610D01*
X180632800Y-81174300D01*
X180546708Y-80741485D01*
X180301538Y-80374562D01*
X179619476Y-79692500D01*
X181370883Y-79692500D01*
X181464587Y-80163583D01*
X181731435Y-80562948D01*
X182130800Y-80829796D01*
X182601883Y-80923500D01*
X182650117Y-80923500D01*
X183121200Y-80829796D01*
X183520565Y-80562948D01*
X183787413Y-80163583D01*
X183881117Y-79692500D01*
X183787413Y-79221417D01*
X183520565Y-78822052D01*
X183121200Y-78555204D01*
X182650117Y-78461500D01*
X182601883Y-78461500D01*
X182130800Y-78555204D01*
X181731435Y-78822052D01*
X181464587Y-79221417D01*
X181370883Y-79692500D01*
X179619476Y-79692500D01*
X177079476Y-77152500D01*
X181370883Y-77152500D01*
X181464587Y-77623583D01*
X181731435Y-78022948D01*
X182130800Y-78289796D01*
X182601883Y-78383500D01*
X182650117Y-78383500D01*
X183121200Y-78289796D01*
X183520565Y-78022948D01*
X183787413Y-77623583D01*
X183881117Y-77152500D01*
X183787413Y-76681417D01*
X183520565Y-76282052D01*
X183121200Y-76015204D01*
X182650117Y-75921500D01*
X182601883Y-75921500D01*
X182130800Y-76015204D01*
X181731435Y-76282052D01*
X181464587Y-76681417D01*
X181370883Y-77152500D01*
X177079476Y-77152500D01*
X175114964Y-75187988D01*
X175114964Y-73762500D01*
X181387536Y-73762500D01*
X181387536Y-75462500D01*
X181414103Y-75603690D01*
X181497546Y-75733365D01*
X181624866Y-75820359D01*
X181776000Y-75850964D01*
X183476000Y-75850964D01*
X183617190Y-75824397D01*
X183746865Y-75740954D01*
X183833859Y-75613634D01*
X183864464Y-75462500D01*
X183864464Y-73762500D01*
X183837897Y-73621310D01*
X183754454Y-73491635D01*
X183627134Y-73404641D01*
X183476000Y-73374036D01*
X181776000Y-73374036D01*
X181634810Y-73400603D01*
X181505135Y-73484046D01*
X181418141Y-73611366D01*
X181387536Y-73762500D01*
X175114964Y-73762500D01*
X175114964Y-73749000D01*
X175088397Y-73607810D01*
X175004954Y-73478135D01*
X174877634Y-73391141D01*
X174726500Y-73360536D01*
X173126500Y-73360536D01*
X172985310Y-73387103D01*
X172855635Y-73470546D01*
X172768641Y-73597866D01*
X172738036Y-73749000D01*
X172738036Y-73934227D01*
X172680364Y-73794995D01*
X172434245Y-73720861D01*
X171606105Y-74549000D01*
X172434245Y-75377139D01*
X172680364Y-75303005D01*
X172738036Y-75142555D01*
X172738036Y-75349000D01*
X172764603Y-75490190D01*
X172795500Y-75538206D01*
X172795500Y-75599000D01*
X172881592Y-76031815D01*
X173126762Y-76398738D01*
X178370800Y-81642776D01*
X178370800Y-93528434D01*
X178215838Y-93683126D01*
X177982266Y-94245629D01*
X177982059Y-94482965D01*
X176187024Y-96278000D01*
X162230500Y-96278000D01*
X162230500Y-96179345D01*
X162229000Y-96171804D01*
X162229000Y-95585746D01*
X162395162Y-95419874D01*
X162628734Y-94857371D01*
X162629265Y-94248301D01*
X162396675Y-93685391D01*
X161966374Y-93254338D01*
X161403871Y-93020766D01*
X160794801Y-93020235D01*
X160231891Y-93252825D01*
X159800838Y-93683126D01*
X159567266Y-94245629D01*
X159566735Y-94854699D01*
X159799325Y-95417609D01*
X159967000Y-95585577D01*
X159967000Y-96177845D01*
X159968500Y-96185386D01*
X159968500Y-96278000D01*
X146008976Y-96278000D01*
X144214060Y-94483084D01*
X144214265Y-94248301D01*
X143981675Y-93685391D01*
X143551374Y-93254338D01*
X142988871Y-93020766D01*
X142379801Y-93020235D01*
X141816891Y-93252825D01*
X141385838Y-93683126D01*
X141152266Y-94245629D01*
X141151735Y-94854699D01*
X125932000Y-94854699D01*
X125932000Y-75556745D01*
X170598361Y-75556745D01*
X170672495Y-75802864D01*
X171209723Y-75995965D01*
X171779954Y-75968778D01*
X172180505Y-75802864D01*
X172254639Y-75556745D01*
X171426500Y-74728605D01*
X170598361Y-75556745D01*
X125932000Y-75556745D01*
X125932000Y-74332223D01*
X169979535Y-74332223D01*
X170006722Y-74902454D01*
X170172636Y-75303005D01*
X170418755Y-75377139D01*
X171246895Y-74549000D01*
X170418755Y-73720861D01*
X170172636Y-73794995D01*
X169979535Y-74332223D01*
X125932000Y-74332223D01*
X125932000Y-73541255D01*
X170598361Y-73541255D01*
X171426500Y-74369395D01*
X172254639Y-73541255D01*
X172180505Y-73295136D01*
X171643277Y-73102035D01*
X171073046Y-73129222D01*
X170672495Y-73295136D01*
X170598361Y-73541255D01*
X125932000Y-73541255D01*
X125932000Y-66884316D01*
X126994657Y-66884316D01*
X127295611Y-67612680D01*
X127852389Y-68170431D01*
X128580226Y-68472655D01*
X129368316Y-68473343D01*
X130096680Y-68172389D01*
X130654431Y-67615611D01*
X130956655Y-66887774D01*
X130956658Y-66884316D01*
X179994657Y-66884316D01*
X180295611Y-67612680D01*
X180852389Y-68170431D01*
X181580226Y-68472655D01*
X182368316Y-68473343D01*
X183096680Y-68172389D01*
X183654431Y-67615611D01*
X183956655Y-66887774D01*
X183957343Y-66099684D01*
X183656389Y-65371320D01*
X183099611Y-64813569D01*
X182371774Y-64511345D01*
X181583684Y-64510657D01*
X180855320Y-64811611D01*
X180297569Y-65368389D01*
X179995345Y-66096226D01*
X179994657Y-66884316D01*
X130956658Y-66884316D01*
X130957343Y-66099684D01*
X130656389Y-65371320D01*
X130099611Y-64813569D01*
X129371774Y-64511345D01*
X128583684Y-64510657D01*
X127855320Y-64811611D01*
X127297569Y-65368389D01*
X126995345Y-66096226D01*
X126994657Y-66884316D01*
X125932000Y-66884316D01*
X125932000Y-63448000D01*
X185020000Y-63448000D01*
X185020000Y-122536000D01*
M02*
